SplineFontDB: 3.0
FontName: SpurceSans-Black
FullName: Spurce Sans Black
FamilyName: Spurce Sans
Weight: Black
Copyright: Copyright 2020 Nicholas Auler, with font name 'Spurce Sans'.\n\nBased on Source Sans, Copyright 2010, 2012, 2014 Adobe Systems Incorporated (http://www.adobe.com/), with Reserved Font Name `Source'.
UComments: "This font is still in beta. If you find any issues, contact me at nicholas.auler@gmail.com"
Version: 0.6
ItalicAngle: 0
UnderlinePosition: -100
UnderlineWidth: 50
Ascent: 750
Descent: 250
InvalidEm: 0
sfntRevision: 0x0000999a
LayerCount: 2
Layer: 0 1 "Back" 1
Layer: 1 1 "Fore" 0
XUID: [1021 316 771282308 10055]
StyleMap: 0x0040
FSType: 0
OS2Version: 3
OS2_WeightWidthSlopeOnly: 0
OS2_UseTypoMetrics: 0
CreationTime: 1441032305
ModificationTime: 1588186707
PfmFamily: 33
TTFWeight: 900
TTFWidth: 5
LineGap: 0
VLineGap: 0
Panose: 2 11 8 3 3 4 3 2 2 4
OS2TypoAscent: 750
OS2TypoAOffset: 0
OS2TypoDescent: -250
OS2TypoDOffset: 0
OS2TypoLinegap: 0
OS2WinAscent: 984
OS2WinAOffset: 0
OS2WinDescent: 273
OS2WinDOffset: 0
HheadAscent: 984
HheadAOffset: 0
HheadDescent: -273
HheadDOffset: 0
OS2SubXSize: 650
OS2SubYSize: 600
OS2SubXOff: 0
OS2SubYOff: 75
OS2SupXSize: 650
OS2SupYSize: 600
OS2SupXOff: 0
OS2SupYOff: 350
OS2StrikeYSize: 50
OS2StrikeYPos: 300
OS2CapHeight: 660
OS2XHeight: 500
OS2Vendor: 'ADBO'
OS2CodePages: 2000019f.00000000
OS2UnicodeRanges: 600002f7.02000001.00000000.00000000
Lookup: 1 0 0 "'aalt' Access All Alternates lookup 0" { "'aalt' Access All Alternates lookup 0 subtable"  } ['aalt' ('DFLT' <'dflt' > 'cyrl' <'SRB ' 'dflt' > 'grek' <'dflt' > 'latn' <'AZE ' 'CRT ' 'NSM ' 'SKS ' 'TRK ' 'dflt' > ) ]
Lookup: 3 0 0 "'aalt' Access All Alternates lookup 1" { "'aalt' Access All Alternates lookup 1 subtable"  } ['aalt' ('DFLT' <'dflt' > 'cyrl' <'SRB ' 'dflt' > 'grek' <'dflt' > 'latn' <'AZE ' 'CRT ' 'NSM ' 'SKS ' 'TRK ' 'dflt' > ) ]

StartChar: .notdef
Encoding: 1114112 -1 0
Width: 704
Flags: W
LayerCount: 2
Fore
SplineSet
76 0 m 1,0,-1
 76 660 l 1,1,-1
 628 660 l 1,2,-1
 628 0 l 1,3,-1
 76 0 l 1,0,-1
288 104 m 1,4,-1
 416 104 l 1,5,-1
 390 160 l 1,6,-1
 354 256 l 1,7,-1
 350 256 l 1,8,-1
 314 160 l 1,9,-1
 288 104 l 1,4,-1
350 424 m 1,10,-1
 354 424 l 1,11,-1
 394 520 l 1,12,-1
 412 556 l 1,13,-1
 292 556 l 1,14,-1
 310 520 l 1,15,-1
 350 424 l 1,10,-1
188 172 m 1,16,-1
 270 340 l 1,17,-1
 188 508 l 1,18,-1
 188 172 l 1,16,-1
516 172 m 1,19,-1
 516 508 l 1,20,-1
 434 340 l 1,21,-1
 516 172 l 1,19,-1
EndSplineSet
Validated: 1
EndChar

StartChar: A
Encoding: 65 65 2
Width: 584
GlyphClass: 2
Flags: W
AnchorPoint: "Anchor-8" 484 0 basechar 0
AnchorPoint: "Anchor-4" 288 -22 basechar 0
AnchorPoint: "Anchor-1" 288 672 basechar 0
LayerCount: 2
Fore
SplineSet
240 316 m 2,0,-1
 229 271 l 1,1,-1
 349 271 l 1,2,-1
 338 316 l 2,3,4
 326 363 326 363 314 418 c 128,-1,5
 302 473 302 473 290 522 c 1,6,-1
 286 522 l 1,7,8
 275 472 275 472 263.5 417.5 c 128,-1,9
 252 363 252 363 240 316 c 2,0,-1
-10 0 m 1,10,-1
 188 650 l 1,11,-1
 396 650 l 1,12,-1
 594 0 l 1,13,-1
 412 0 l 1,14,-1
 380 138 l 1,15,-1
 198 138 l 1,16,-1
 166 0 l 1,17,-1
 -10 0 l 1,10,-1
EndSplineSet
Validated: 1
Substitution2: "'sups' Superscript lookup 27 subtable" A.sups
Substitution2: "'c2sc' Capitals to Small Capitals lookup 17 subtable" A.sc
AlternateSubs2: "'aalt' Access All Alternates lookup 1 subtable" A.sc A.sups
EndChar

StartChar: B
Encoding: 66 66 3
Width: 612
GlyphClass: 2
Flags: W
AnchorPoint: "Anchor-4" 320 -22 basechar 0
AnchorPoint: "Anchor-1" 305 672 basechar 0
LayerCount: 2
Fore
SplineSet
72 0 m 1,0,-1
 72 650 l 1,1,-1
 306 650 l 2,2,3
 357 650 357 650 402 642.5 c 128,-1,4
 447 635 447 635 480 617 c 128,-1,5
 513 599 513 599 532.5 567.5 c 128,-1,6
 552 536 552 536 552 488 c 0,7,8
 552 467 552 467 546 445.5 c 128,-1,9
 540 424 540 424 529.5 404.5 c 128,-1,10
 519 385 519 385 504 370 c 128,-1,11
 489 355 489 355 470 348 c 1,12,-1
 470 344 l 1,13,14
 517 330 517 330 549.5 293.5 c 128,-1,15
 582 257 582 257 582 192 c 0,16,17
 582 142 582 142 561.5 105.5 c 128,-1,18
 541 69 541 69 506.5 45.5 c 128,-1,19
 472 22 472 22 425 11 c 128,-1,20
 378 0 378 0 326 0 c 2,21,-1
 72 0 l 1,0,-1
244 396 m 1,22,-1
 302 396 l 2,23,24
 344 396 344 396 364 414 c 128,-1,25
 384 432 384 432 384 462 c 256,26,27
 384 492 384 492 364 505 c 128,-1,28
 344 518 344 518 302 518 c 2,29,-1
 244 518 l 1,30,-1
 244 396 l 1,22,-1
244 132 m 1,31,-1
 314 132 l 2,32,33
 414 132 414 132 414 204 c 0,34,35
 414 240 414 240 389.5 255 c 128,-1,36
 365 270 365 270 314 270 c 2,37,-1
 244 270 l 1,38,-1
 244 132 l 1,31,-1
EndSplineSet
Validated: 1
Substitution2: "'sups' Superscript lookup 27 subtable" B.sups
Substitution2: "'c2sc' Capitals to Small Capitals lookup 17 subtable" B.sc
AlternateSubs2: "'aalt' Access All Alternates lookup 1 subtable" B.sc B.sups
EndChar

StartChar: C
Encoding: 67 67 4
Width: 586
GlyphClass: 2
Flags: W
AnchorPoint: "Anchor-4" 352 -22 basechar 0
AnchorPoint: "Anchor-3" 352 0 basechar 0
AnchorPoint: "Anchor-1" 348 672 basechar 0
LayerCount: 2
Fore
SplineSet
354 -12 m 0,0,1
 292 -12 292 -12 235.5 8.5 c 128,-1,2
 179 29 179 29 136.5 70.5 c 128,-1,3
 94 112 94 112 69 174.5 c 128,-1,4
 44 237 44 237 44 320 c 0,5,6
 44 402 44 402 70 465.5 c 128,-1,7
 96 529 96 529 139.5 572.5 c 128,-1,8
 183 616 183 616 239.5 639 c 128,-1,9
 296 662 296 662 358 662 c 0,10,11
 423 662 423 662 474 636.5 c 128,-1,12
 525 611 525 611 560 576 c 1,13,-1
 470 466 l 1,14,15
 446 487 446 487 420.5 500.5 c 128,-1,16
 395 514 395 514 362 514 c 0,17,18
 333 514 333 514 307.5 501 c 128,-1,19
 282 488 282 488 262.5 464 c 128,-1,20
 243 440 243 440 231.5 405 c 128,-1,21
 220 370 220 370 220 326 c 0,22,23
 220 234 220 234 258.5 185 c 128,-1,24
 297 136 297 136 360 136 c 0,25,26
 398 136 398 136 427.5 152.5 c 128,-1,27
 457 169 457 169 478 192 c 1,28,-1
 568 84 l 1,29,30
 526 36 526 36 471.5 12 c 128,-1,31
 417 -12 417 -12 354 -12 c 0,0,1
EndSplineSet
Validated: 1
Substitution2: "'sups' Superscript lookup 27 subtable" C.sups
Substitution2: "'c2sc' Capitals to Small Capitals lookup 17 subtable" C.sc
AlternateSubs2: "'aalt' Access All Alternates lookup 1 subtable" C.sc C.sups
EndChar

StartChar: D
Encoding: 68 68 5
Width: 642
GlyphClass: 2
Flags: W
AnchorPoint: "Anchor-4" 316 -22 basechar 0
AnchorPoint: "Anchor-1" 322 672 basechar 0
LayerCount: 2
Fore
SplineSet
72 0 m 1,0,-1
 72 650 l 1,1,-1
 264 650 l 2,2,3
 338 650 338 650 399.5 632 c 128,-1,4
 461 614 461 614 505 575 c 128,-1,5
 549 536 549 536 573.5 475 c 128,-1,6
 598 414 598 414 598 328 c 256,7,8
 598 242 598 242 574 180 c 128,-1,9
 550 118 550 118 506.5 78 c 128,-1,10
 463 38 463 38 403.5 19 c 128,-1,11
 344 0 344 0 274 0 c 2,12,-1
 72 0 l 1,0,-1
244 138 m 1,13,-1
 254 138 l 2,14,15
 289 138 289 138 320 146.5 c 128,-1,16
 351 155 351 155 373.5 176 c 128,-1,17
 396 197 396 197 409 234 c 128,-1,18
 422 271 422 271 422 328 c 256,19,20
 422 385 422 385 409 421 c 128,-1,21
 396 457 396 457 373.5 477 c 128,-1,22
 351 497 351 497 320 504.5 c 128,-1,23
 289 512 289 512 254 512 c 2,24,-1
 244 512 l 1,25,-1
 244 138 l 1,13,-1
EndSplineSet
Validated: 1
Substitution2: "'sups' Superscript lookup 27 subtable" D.sups
Substitution2: "'c2sc' Capitals to Small Capitals lookup 17 subtable" D.sc
AlternateSubs2: "'aalt' Access All Alternates lookup 1 subtable" D.sc D.sups
EndChar

StartChar: E
Encoding: 69 69 6
Width: 556
GlyphClass: 2
Flags: W
AnchorPoint: "Anchor-8" 396 0 basechar 0
AnchorPoint: "Anchor-4" 294 -22 basechar 0
AnchorPoint: "Anchor-1" 290 672 basechar 0
LayerCount: 2
Fore
SplineSet
72 0 m 1,0,-1
 72 650 l 1,1,-1
 492 650 l 1,2,-1
 492 506 l 1,3,-1
 244 506 l 1,4,-1
 244 404 l 1,5,-1
 456 404 l 1,6,-1
 456 260 l 1,7,-1
 244 260 l 1,8,-1
 244 144 l 1,9,-1
 502 144 l 1,10,-1
 502 0 l 1,11,-1
 72 0 l 1,0,-1
EndSplineSet
Validated: 1
Substitution2: "'sups' Superscript lookup 27 subtable" E.sups
Substitution2: "'c2sc' Capitals to Small Capitals lookup 17 subtable" E.sc
AlternateSubs2: "'aalt' Access All Alternates lookup 1 subtable" E.sc E.sups
EndChar

StartChar: F
Encoding: 70 70 7
Width: 536
GlyphClass: 2
Flags: W
AnchorPoint: "Anchor-4" 168 -22 basechar 0
AnchorPoint: "Anchor-1" 290 672 basechar 0
LayerCount: 2
Fore
SplineSet
72 0 m 1,0,-1
 72 650 l 1,1,-1
 496 650 l 1,2,-1
 496 506 l 1,3,-1
 244 506 l 1,4,-1
 244 382 l 1,5,-1
 460 382 l 1,6,-1
 460 238 l 1,7,-1
 244 238 l 1,8,-1
 244 0 l 1,9,-1
 72 0 l 1,0,-1
EndSplineSet
Validated: 1
Substitution2: "'sups' Superscript lookup 27 subtable" F.sups
Substitution2: "'c2sc' Capitals to Small Capitals lookup 17 subtable" F.sc
AlternateSubs2: "'aalt' Access All Alternates lookup 1 subtable" F.sc F.sups
EndChar

StartChar: G
Encoding: 71 71 8
Width: 646
GlyphClass: 2
Flags: W
AnchorPoint: "Anchor-4" 368 -22 basechar 0
AnchorPoint: "Anchor-1" 372 672 basechar 0
LayerCount: 2
Fore
SplineSet
372 -12 m 0,0,1
 304 -12 304 -12 244 8.5 c 128,-1,2
 184 29 184 29 139.5 70.5 c 128,-1,3
 95 112 95 112 69.5 174.5 c 128,-1,4
 44 237 44 237 44 320 c 0,5,6
 44 402 44 402 70 465.5 c 128,-1,7
 96 529 96 529 140.5 572.5 c 128,-1,8
 185 616 185 616 244 639 c 128,-1,9
 303 662 303 662 368 662 c 0,10,11
 440 662 440 662 492.5 636.5 c 128,-1,12
 545 611 545 611 580 576 c 1,13,-1
 490 466 l 1,14,15
 466 487 466 487 439.5 500.5 c 128,-1,16
 413 514 413 514 374 514 c 0,17,18
 341 514 341 514 313 501 c 128,-1,19
 285 488 285 488 264 464 c 128,-1,20
 243 440 243 440 231.5 405 c 128,-1,21
 220 370 220 370 220 326 c 0,22,23
 220 234 220 234 261 185 c 128,-1,24
 302 136 302 136 390 136 c 0,25,26
 404 136 404 136 417.5 139 c 128,-1,27
 431 142 431 142 440 148 c 1,28,-1
 440 238 l 1,29,-1
 344 238 l 1,30,-1
 344 378 l 1,31,-1
 592 378 l 1,32,-1
 592 68 l 1,33,34
 557 35 557 35 499 11.5 c 128,-1,35
 441 -12 441 -12 372 -12 c 0,0,1
EndSplineSet
Validated: 1
Substitution2: "'sups' Superscript lookup 27 subtable" G.sups
Substitution2: "'c2sc' Capitals to Small Capitals lookup 17 subtable" G.sc
AlternateSubs2: "'aalt' Access All Alternates lookup 1 subtable" G.sc G.sups
EndChar

StartChar: H
Encoding: 72 72 9
Width: 682
GlyphClass: 2
Flags: W
AnchorPoint: "Anchor-4" 340 -22 basechar 0
AnchorPoint: "Anchor-1" 340 672 basechar 0
LayerCount: 2
Fore
SplineSet
72 0 m 1,0,-1
 72 650 l 1,1,-1
 244 650 l 1,2,-1
 244 408 l 1,3,-1
 438 408 l 1,4,-1
 438 650 l 1,5,-1
 610 650 l 1,6,-1
 610 0 l 1,7,-1
 438 0 l 1,8,-1
 438 258 l 1,9,-1
 244 258 l 1,10,-1
 244 0 l 1,11,-1
 72 0 l 1,0,-1
EndSplineSet
Validated: 1
Substitution2: "'sups' Superscript lookup 27 subtable" H.sups
Substitution2: "'c2sc' Capitals to Small Capitals lookup 17 subtable" H.sc
AlternateSubs2: "'aalt' Access All Alternates lookup 1 subtable" H.sc H.sups
EndChar

StartChar: I
Encoding: 73 73 10
Width: 416
GlyphClass: 2
Flags: W
LayerCount: 2
Fore
SplineSet
54 0 m 5,0,-1
 54 144 l 5,1,-1
 122 144 l 5,2,-1
 122 506 l 5,3,-1
 54 506 l 5,4,-1
 54 650 l 5,5,-1
 362 650 l 5,6,-1
 362 506 l 5,7,-1
 294 506 l 5,8,-1
 294 144 l 5,9,-1
 362 144 l 5,10,-1
 362 0 l 5,11,-1
 54 0 l 5,0,-1
EndSplineSet
Validated: 1
Substitution2: "'ss04' Style Set 4 lookup 43 subtable" I.a
Substitution2: "'sups' Superscript lookup 27 subtable" I.sups
Substitution2: "'c2sc' Capitals to Small Capitals lookup 17 subtable" I.sc
AlternateSubs2: "'aalt' Access All Alternates lookup 1 subtable" I.sc I.sups I.a
EndChar

StartChar: J
Encoding: 74 74 11
Width: 520
GlyphClass: 2
Flags: W
AnchorPoint: "Anchor-4" 276 -22 basechar 0
AnchorPoint: "Anchor-1" 364 672 basechar 0
LayerCount: 2
Fore
SplineSet
232 -12 m 0,0,1
 152 -12 152 -12 99 18 c 128,-1,2
 46 48 46 48 10 111 c 1,3,-1
 126 198 l 1,4,5
 143 166 143 166 165 151 c 128,-1,6
 187 136 187 136 208 136 c 0,7,8
 225 136 225 136 238.5 140.5 c 128,-1,9
 252 145 252 145 261 157 c 128,-1,10
 270 169 270 169 275 189 c 128,-1,11
 280 209 280 209 280 240 c 2,12,-1
 280 650 l 1,13,-1
 452 650 l 1,14,-1
 452 226 l 2,15,16
 452 177 452 177 438.5 134 c 128,-1,17
 425 91 425 91 398 58.5 c 128,-1,18
 371 26 371 26 329.5 7 c 128,-1,19
 288 -12 288 -12 232 -12 c 0,0,1
EndSplineSet
Validated: 1
Substitution2: "'sups' Superscript lookup 27 subtable" J.sups
Substitution2: "'c2sc' Capitals to Small Capitals lookup 17 subtable" J.sc
AlternateSubs2: "'aalt' Access All Alternates lookup 1 subtable" J.sc J.sups
EndChar

StartChar: K
Encoding: 75 75 12
Width: 628
GlyphClass: 2
Flags: W
AnchorPoint: "Anchor-4" 334 -22 basechar 0
AnchorPoint: "Anchor-1" 322 672 basechar 0
LayerCount: 2
Fore
SplineSet
72 0 m 1,0,-1
 72 650 l 1,1,-1
 244 650 l 1,2,-1
 244 408 l 1,3,-1
 248 408 l 1,4,-1
 412 650 l 1,5,-1
 600 650 l 1,6,-1
 406 386 l 1,7,-1
 638 0 l 1,8,-1
 450 0 l 1,9,-1
 306 250 l 1,10,-1
 244 162 l 1,11,-1
 244 0 l 1,12,-1
 72 0 l 1,0,-1
EndSplineSet
Validated: 1
Substitution2: "'sups' Superscript lookup 27 subtable" K.sups
Substitution2: "'c2sc' Capitals to Small Capitals lookup 17 subtable" K.sc
AlternateSubs2: "'aalt' Access All Alternates lookup 1 subtable" K.sc K.sups
EndChar

StartChar: L
Encoding: 76 76 13
Width: 530
GlyphClass: 2
Flags: W
AnchorPoint: "Anchor-4" 291 -22 basechar 0
AnchorPoint: "Anchor-1" 162 672 basechar 0
LayerCount: 2
Fore
SplineSet
72 0 m 1,0,-1
 72 650 l 1,1,-1
 244 650 l 1,2,-1
 244 144 l 1,3,-1
 490 144 l 1,4,-1
 490 0 l 1,5,-1
 72 0 l 1,0,-1
EndSplineSet
Validated: 1
Substitution2: "'sups' Superscript lookup 27 subtable" L.sups
Substitution2: "'c2sc' Capitals to Small Capitals lookup 17 subtable" L.sc
AlternateSubs2: "'aalt' Access All Alternates lookup 1 subtable" L.sc L.sups
EndChar

StartChar: M
Encoding: 77 77 14
Width: 776
GlyphClass: 2
Flags: W
AnchorPoint: "Anchor-4" 390 -22 basechar 0
AnchorPoint: "Anchor-1" 388 672 basechar 0
LayerCount: 2
Fore
SplineSet
72 0 m 1,0,-1
 72 650 l 1,1,-1
 256 650 l 1,2,-1
 354 384 l 2,3,4
 363 357 363 357 371 328 c 128,-1,5
 379 299 379 299 388 270 c 1,6,-1
 392 270 l 1,7,8
 401 299 401 299 409 328 c 128,-1,9
 417 357 417 357 426 384 c 2,10,-1
 520 650 l 1,11,-1
 704 650 l 1,12,-1
 704 0 l 1,13,-1
 548 0 l 1,14,-1
 548 192 l 2,15,16
 548 217 548 217 550.5 247 c 128,-1,17
 553 277 553 277 556 308.5 c 128,-1,18
 559 340 559 340 563 370 c 128,-1,19
 567 400 567 400 570 424 c 1,20,-1
 566 424 l 1,21,-1
 512 268 l 1,22,-1
 432 53 l 1,23,-1
 340 53 l 1,24,-1
 260 268 l 1,25,-1
 208 424 l 1,26,-1
 204 424 l 1,27,28
 207 400 207 400 211 370 c 128,-1,29
 215 340 215 340 218 308.5 c 128,-1,30
 221 277 221 277 223.5 247 c 128,-1,31
 226 217 226 217 226 192 c 2,32,-1
 226 0 l 1,33,-1
 72 0 l 1,0,-1
EndSplineSet
Validated: 1
Substitution2: "'sups' Superscript lookup 27 subtable" M.sups
Substitution2: "'c2sc' Capitals to Small Capitals lookup 17 subtable" M.sc
AlternateSubs2: "'aalt' Access All Alternates lookup 1 subtable" M.sc M.sups
EndChar

StartChar: N
Encoding: 78 78 15
Width: 672
GlyphClass: 2
Flags: W
AnchorPoint: "Anchor-4" 350 -22 basechar 0
AnchorPoint: "Anchor-1" 336 672 basechar 0
LayerCount: 2
Fore
SplineSet
72 0 m 1,0,-1
 72 650 l 1,1,-1
 248 650 l 1,2,-1
 392 360 l 1,3,-1
 454 214 l 1,4,-1
 458 214 l 1,5,6
 455 240 455 240 451 271 c 128,-1,7
 447 302 447 302 444 334.5 c 128,-1,8
 441 367 441 367 438.5 399.5 c 128,-1,9
 436 432 436 432 436 462 c 2,10,-1
 436 650 l 1,11,-1
 600 650 l 1,12,-1
 600 0 l 1,13,-1
 424 0 l 1,14,-1
 280 291 l 1,15,-1
 218 436 l 1,16,-1
 214 436 l 1,17,18
 220 380 220 380 228 314 c 128,-1,19
 236 248 236 248 236 188 c 2,20,-1
 236 0 l 1,21,-1
 72 0 l 1,0,-1
EndSplineSet
Validated: 1
Substitution2: "'sups' Superscript lookup 27 subtable" N.sups
Substitution2: "'c2sc' Capitals to Small Capitals lookup 17 subtable" N.sc
AlternateSubs2: "'aalt' Access All Alternates lookup 1 subtable" N.sc N.sups
EndChar

StartChar: O
Encoding: 79 79 16
Width: 692
GlyphClass: 2
Flags: W
AnchorPoint: "Anchor-8" 346 0 basechar 0
AnchorPoint: "Anchor-6" 490 640 basechar 0
AnchorPoint: "Anchor-4" 346 -22 basechar 0
AnchorPoint: "Anchor-1" 346 672 basechar 0
LayerCount: 2
Fore
SplineSet
346 -12 m 0,0,1
 278 -12 278 -12 222.5 11 c 128,-1,2
 167 34 167 34 127.5 77.5 c 128,-1,3
 88 121 88 121 66 184.5 c 128,-1,4
 44 248 44 248 44 328 c 256,5,6
 44 408 44 408 66 470.5 c 128,-1,7
 88 533 88 533 127.5 575.5 c 128,-1,8
 167 618 167 618 222.5 640 c 128,-1,9
 278 662 278 662 346 662 c 0,10,11
 413 662 413 662 469 640 c 128,-1,12
 525 618 525 618 564.5 575 c 128,-1,13
 604 532 604 532 626 470 c 128,-1,14
 648 408 648 408 648 328 c 256,15,16
 648 248 648 248 626 184.5 c 128,-1,17
 604 121 604 121 564.5 77.5 c 128,-1,18
 525 34 525 34 469 11 c 128,-1,19
 413 -12 413 -12 346 -12 c 0,0,1
346 136 m 256,20,21
 405 136 405 136 438.5 187.5 c 128,-1,22
 472 239 472 239 472 328 c 256,23,24
 472 417 472 417 438.5 465.5 c 128,-1,25
 405 514 405 514 346 514 c 256,26,27
 287 514 287 514 253.5 465.5 c 128,-1,28
 220 417 220 417 220 328 c 256,29,30
 220 239 220 239 253.5 187.5 c 128,-1,31
 287 136 287 136 346 136 c 256,20,21
EndSplineSet
Validated: 1
Substitution2: "'sups' Superscript lookup 27 subtable" O.sups
Substitution2: "'c2sc' Capitals to Small Capitals lookup 17 subtable" O.sc
AlternateSubs2: "'aalt' Access All Alternates lookup 1 subtable" O.sc O.sups
EndChar

StartChar: P
Encoding: 80 80 17
Width: 608
GlyphClass: 2
Flags: W
AnchorPoint: "Anchor-4" 170 -22 basechar 0
AnchorPoint: "Anchor-1" 321 672 basechar 0
LayerCount: 2
Fore
SplineSet
72 0 m 1,0,-1
 72 650 l 1,1,-1
 310 650 l 2,2,3
 363 650 363 650 411 639.5 c 128,-1,4
 459 629 459 629 495 603.5 c 128,-1,5
 531 578 531 578 552.5 536.5 c 128,-1,6
 574 495 574 495 574 434 c 0,7,8
 574 374 574 374 552.5 331 c 128,-1,9
 531 288 531 288 495 260.5 c 128,-1,10
 459 233 459 233 412 219.5 c 128,-1,11
 365 206 365 206 314 206 c 2,12,-1
 244 206 l 1,13,-1
 244 0 l 1,14,-1
 72 0 l 1,0,-1
244 342 m 1,15,-1
 306 342 l 2,16,17
 357 342 357 342 381.5 366 c 128,-1,18
 406 390 406 390 406 434 c 256,19,20
 406 478 406 478 379 496 c 128,-1,21
 352 514 352 514 302 514 c 2,22,-1
 244 514 l 1,23,-1
 244 342 l 1,15,-1
EndSplineSet
Validated: 1
Substitution2: "'sups' Superscript lookup 27 subtable" P.sups
Substitution2: "'c2sc' Capitals to Small Capitals lookup 17 subtable" P.sc
AlternateSubs2: "'aalt' Access All Alternates lookup 1 subtable" P.sc P.sups
EndChar

StartChar: Q
Encoding: 81 81 18
Width: 692
GlyphClass: 2
Flags: W
AnchorPoint: "Anchor-1" 346 672 basechar 0
LayerCount: 2
Fore
SplineSet
346 128 m 256,0,1
 405 128 405 128 438.5 179.5 c 128,-1,2
 472 231 472 231 472 328 c 0,3,4
 472 417 472 417 438.5 465.5 c 128,-1,5
 405 514 405 514 346 514 c 256,6,7
 287 514 287 514 253.5 465.5 c 128,-1,8
 220 417 220 417 220 328 c 0,9,10
 220 231 220 231 253.5 179.5 c 128,-1,11
 287 128 287 128 346 128 c 256,0,1
566 -188 m 0,12,13
 511 -188 511 -188 464.5 -174.5 c 128,-1,14
 418 -161 418 -161 380.5 -136 c 128,-1,15
 343 -111 343 -111 315 -77.5 c 128,-1,16
 287 -44 287 -44 268 -3 c 1,17,18
 217 9 217 9 175.5 36.5 c 128,-1,19
 134 64 134 64 105 106 c 128,-1,20
 76 148 76 148 60 204 c 128,-1,21
 44 260 44 260 44 328 c 0,22,23
 44 408 44 408 66 470.5 c 128,-1,24
 88 533 88 533 127.5 575.5 c 128,-1,25
 167 618 167 618 222.5 640 c 128,-1,26
 278 662 278 662 346 662 c 0,27,28
 413 662 413 662 469 640 c 128,-1,29
 525 618 525 618 564.5 575 c 128,-1,30
 604 532 604 532 626 470 c 128,-1,31
 648 408 648 408 648 328 c 0,32,33
 648 200 648 200 594.5 117 c 128,-1,34
 541 34 541 34 449 4 c 1,35,36
 472 -28 472 -28 510.5 -40 c 128,-1,37
 549 -52 549 -52 586 -52 c 0,38,39
 607 -52 607 -52 626 -48.5 c 128,-1,40
 645 -45 645 -45 660 -40 c 1,41,-1
 690 -164 l 1,42,43
 670 -175 670 -175 639 -181.5 c 128,-1,44
 608 -188 608 -188 566 -188 c 0,12,13
EndSplineSet
Validated: 1
Substitution2: "'sups' Superscript lookup 27 subtable" Q.sups
Substitution2: "'c2sc' Capitals to Small Capitals lookup 17 subtable" Q.sc
AlternateSubs2: "'aalt' Access All Alternates lookup 1 subtable" Q.sc Q.sups
EndChar

StartChar: R
Encoding: 82 82 19
Width: 630
GlyphClass: 2
Flags: W
AnchorPoint: "Anchor-4" 334 -22 basechar 0
AnchorPoint: "Anchor-1" 316 672 basechar 0
LayerCount: 2
Fore
SplineSet
72 0 m 1,0,-1
 72 650 l 1,1,-1
 318 650 l 2,2,3
 370 650 370 650 417.5 640 c 128,-1,4
 465 630 465 630 500.5 606 c 128,-1,5
 536 582 536 582 557 541.5 c 128,-1,6
 578 501 578 501 578 440 c 0,7,8
 578 370 578 370 549.5 324 c 128,-1,9
 521 278 521 278 473 252 c 1,10,-1
 614 0 l 1,11,-1
 422 0 l 1,12,-1
 310 218 l 1,13,-1
 244 218 l 1,14,-1
 244 0 l 1,15,-1
 72 0 l 1,0,-1
244 354 m 1,16,-1
 306 354 l 2,17,18
 410 354 410 354 410 440 c 0,19,20
 410 482 410 482 383.5 498 c 128,-1,21
 357 514 357 514 306 514 c 2,22,-1
 244 514 l 1,23,-1
 244 354 l 1,16,-1
EndSplineSet
Validated: 1
Substitution2: "'sups' Superscript lookup 27 subtable" R.sups
Substitution2: "'c2sc' Capitals to Small Capitals lookup 17 subtable" R.sc
AlternateSubs2: "'aalt' Access All Alternates lookup 1 subtable" R.sc R.sups
EndChar

StartChar: S
Encoding: 83 83 20
Width: 564
GlyphClass: 2
Flags: W
AnchorPoint: "Anchor-4" 282 -22 basechar 0
AnchorPoint: "Anchor-3" 282 0 basechar 0
AnchorPoint: "Anchor-1" 296 672 basechar 0
LayerCount: 2
Fore
SplineSet
278 -12 m 0,0,1
 216 -12 216 -12 150.5 10.5 c 128,-1,2
 85 33 85 33 32 81 c 1,3,-1
 130 199 l 1,4,5
 165 171 165 171 205.5 153.5 c 128,-1,6
 246 136 246 136 282 136 c 0,7,8
 321 136 321 136 338.5 148 c 128,-1,9
 356 160 356 160 356 182 c 0,10,11
 356 194 356 194 350 202 c 128,-1,12
 344 210 344 210 332.5 217 c 128,-1,13
 321 224 321 224 305 230.5 c 128,-1,14
 289 237 289 237 268 245 c 2,15,-1
 187 279 l 2,16,17
 161 289 161 289 137 305.5 c 128,-1,18
 113 322 113 322 95 344.5 c 128,-1,19
 77 367 77 367 66.5 396 c 128,-1,20
 56 425 56 425 56 460 c 0,21,22
 56 502 56 502 74 538.5 c 128,-1,23
 92 575 92 575 124 602.5 c 128,-1,24
 156 630 156 630 200.5 646 c 128,-1,25
 245 662 245 662 298 662 c 0,26,27
 354 662 354 662 411.5 641 c 128,-1,28
 469 620 469 620 514 575 c 1,29,-1
 428 467 l 1,30,31
 395 490 395 490 364.5 502 c 128,-1,32
 334 514 334 514 298 514 c 0,33,34
 266 514 266 514 248 503 c 128,-1,35
 230 492 230 492 230 470 c 0,36,37
 230 447 230 447 255.5 434.5 c 128,-1,38
 281 422 281 422 326 405 c 2,39,-1
 405 374 l 2,40,41
 466 350 466 350 499 307 c 128,-1,42
 532 264 532 264 532 196 c 0,43,44
 532 155 532 155 515 117 c 128,-1,45
 498 79 498 79 465.5 50.5 c 128,-1,46
 433 22 433 22 386 5 c 128,-1,47
 339 -12 339 -12 278 -12 c 0,0,1
EndSplineSet
Validated: 1
Substitution2: "'sups' Superscript lookup 27 subtable" S.sups
Substitution2: "'c2sc' Capitals to Small Capitals lookup 17 subtable" S.sc
AlternateSubs2: "'aalt' Access All Alternates lookup 1 subtable" S.sc S.sups
EndChar

StartChar: T
Encoding: 84 84 21
Width: 564
GlyphClass: 2
Flags: W
AnchorPoint: "Anchor-4" 282 -22 basechar 0
AnchorPoint: "Anchor-3" 282 0 basechar 0
AnchorPoint: "Anchor-1" 282 672 basechar 0
LayerCount: 2
Fore
SplineSet
196 0 m 1,0,-1
 196 506 l 1,1,-1
 24 506 l 1,2,-1
 24 650 l 1,3,-1
 540 650 l 1,4,-1
 540 506 l 1,5,-1
 368 506 l 1,6,-1
 368 0 l 1,7,-1
 196 0 l 1,0,-1
EndSplineSet
Validated: 1
Substitution2: "'sups' Superscript lookup 27 subtable" T.sups
Substitution2: "'c2sc' Capitals to Small Capitals lookup 17 subtable" T.sc
AlternateSubs2: "'aalt' Access All Alternates lookup 1 subtable" T.sc T.sups
EndChar

StartChar: U
Encoding: 85 85 22
Width: 672
GlyphClass: 2
Flags: W
AnchorPoint: "Anchor-8" 336 0 basechar 0
AnchorPoint: "Anchor-6" 552 660 basechar 0
AnchorPoint: "Anchor-4" 336 -22 basechar 0
AnchorPoint: "Anchor-1" 336 672 basechar 0
LayerCount: 2
Fore
SplineSet
338 -12 m 0,0,1
 201 -12 201 -12 134.5 67.5 c 128,-1,2
 68 147 68 147 68 314 c 2,3,-1
 68 650 l 1,4,-1
 240 650 l 1,5,-1
 240 294 l 2,6,7
 240 207 240 207 263.5 171.5 c 128,-1,8
 287 136 287 136 338 136 c 256,9,10
 389 136 389 136 413.5 171.5 c 128,-1,11
 438 207 438 207 438 294 c 2,12,-1
 438 650 l 1,13,-1
 604 650 l 1,14,-1
 604 314 l 2,15,16
 604 147 604 147 539 67.5 c 128,-1,17
 474 -12 474 -12 338 -12 c 0,0,1
EndSplineSet
Validated: 1
Substitution2: "'sups' Superscript lookup 27 subtable" U.sups
Substitution2: "'c2sc' Capitals to Small Capitals lookup 17 subtable" U.sc
AlternateSubs2: "'aalt' Access All Alternates lookup 1 subtable" U.sc U.sups
EndChar

StartChar: V
Encoding: 86 86 23
Width: 572
GlyphClass: 2
Flags: W
AnchorPoint: "Anchor-4" 282 -22 basechar 0
AnchorPoint: "Anchor-1" 286 672 basechar 0
LayerCount: 2
Fore
SplineSet
182 0 m 1,0,-1
 -10 650 l 1,1,-1
 172 650 l 1,2,-1
 240 366 l 2,3,4
 254 314 254 314 264 263.5 c 128,-1,5
 274 213 274 213 288 160 c 1,6,-1
 292 160 l 1,7,8
 306 213 306 213 316.5 263.5 c 128,-1,9
 327 314 327 314 340 366 c 2,10,-1
 406 650 l 1,11,-1
 582 650 l 1,12,-1
 390 0 l 1,13,-1
 182 0 l 1,0,-1
EndSplineSet
Validated: 1
Substitution2: "'sups' Superscript lookup 27 subtable" V.sups
Substitution2: "'c2sc' Capitals to Small Capitals lookup 17 subtable" V.sc
AlternateSubs2: "'aalt' Access All Alternates lookup 1 subtable" V.sc V.sups
EndChar

StartChar: W
Encoding: 87 87 24
Width: 824
GlyphClass: 2
Flags: W
AnchorPoint: "Anchor-4" 414 -22 basechar 0
AnchorPoint: "Anchor-1" 412 672 basechar 0
LayerCount: 2
Fore
SplineSet
124 0 m 1,0,-1
 10 650 l 1,1,-1
 186 650 l 1,2,-1
 222 366 l 2,3,4
 227 315 227 315 233 264 c 128,-1,5
 239 213 239 213 244 162 c 1,6,-1
 248 162 l 1,7,8
 257 213 257 213 266 264 c 128,-1,9
 275 315 275 315 284 366 c 2,10,-1
 346 650 l 1,11,-1
 490 650 l 1,12,-1
 552 366 l 2,13,14
 561 317 561 317 570 265.5 c 128,-1,15
 579 214 579 214 588 162 c 1,16,-1
 592 162 l 1,17,18
 597 214 597 214 603 265 c 128,-1,19
 609 316 609 316 614 366 c 2,20,-1
 650 650 l 1,21,-1
 814 650 l 1,22,-1
 706 0 l 1,23,-1
 488 0 l 1,24,-1
 438 258 l 2,25,26
 430 296 430 296 424.5 335 c 128,-1,27
 419 374 419 374 414 410 c 1,28,-1
 410 410 l 1,29,30
 405 374 405 374 399.5 335 c 128,-1,31
 394 296 394 296 386 258 c 2,32,-1
 338 0 l 1,33,-1
 124 0 l 1,0,-1
EndSplineSet
Validated: 1
Substitution2: "'sups' Superscript lookup 27 subtable" W.sups
Substitution2: "'c2sc' Capitals to Small Capitals lookup 17 subtable" W.sc
AlternateSubs2: "'aalt' Access All Alternates lookup 1 subtable" W.sc W.sups
EndChar

StartChar: X
Encoding: 88 88 25
Width: 588
GlyphClass: 2
Flags: W
AnchorPoint: "Anchor-4" 282 -22 basechar 0
AnchorPoint: "Anchor-1" 294 672 basechar 0
LayerCount: 2
Fore
SplineSet
10 0 m 1,0,-1
 186 334 l 1,1,-1
 20 650 l 1,2,-1
 212 650 l 1,3,-1
 256 544 l 2,4,5
 267 521 267 521 277.5 494.5 c 128,-1,6
 288 468 288 468 302 436 c 1,7,-1
 306 436 l 1,8,9
 317 468 317 468 327 494.5 c 128,-1,10
 337 521 337 521 346 544 c 2,11,-1
 384 650 l 1,12,-1
 568 650 l 1,13,-1
 402 326 l 1,14,-1
 578 0 l 1,15,-1
 386 0 l 1,16,-1
 334 116 l 2,17,18
 322 142 322 142 311 168 c 128,-1,19
 300 194 300 194 288 224 c 1,20,-1
 284 224 l 1,21,22
 273 194 273 194 263 168 c 128,-1,23
 253 142 253 142 242 116 c 2,24,-1
 194 0 l 1,25,-1
 10 0 l 1,0,-1
EndSplineSet
Validated: 1
Substitution2: "'sups' Superscript lookup 27 subtable" X.sups
Substitution2: "'c2sc' Capitals to Small Capitals lookup 17 subtable" X.sc
AlternateSubs2: "'aalt' Access All Alternates lookup 1 subtable" X.sc X.sups
EndChar

StartChar: Y
Encoding: 89 89 26
Width: 544
GlyphClass: 2
Flags: W
AnchorPoint: "Anchor-4" 274 -22 basechar 0
AnchorPoint: "Anchor-1" 272 672 basechar 0
LayerCount: 2
Fore
SplineSet
186 0 m 1,0,-1
 186 224 l 1,1,-1
 -10 650 l 1,2,-1
 174 650 l 1,3,-1
 222 514 l 2,4,5
 234 477 234 477 246 442 c 128,-1,6
 258 407 258 407 271 369 c 1,7,-1
 275 369 l 1,8,9
 288 407 288 407 300.5 442 c 128,-1,10
 313 477 313 477 326 514 c 2,11,-1
 374 650 l 1,12,-1
 554 650 l 1,13,-1
 358 224 l 1,14,-1
 358 0 l 1,15,-1
 186 0 l 1,0,-1
EndSplineSet
Validated: 1
Substitution2: "'sups' Superscript lookup 27 subtable" Y.sups
Substitution2: "'c2sc' Capitals to Small Capitals lookup 17 subtable" Y.sc
AlternateSubs2: "'aalt' Access All Alternates lookup 1 subtable" Y.sc Y.sups
EndChar

StartChar: Z
Encoding: 90 90 27
Width: 542
GlyphClass: 2
Flags: W
AnchorPoint: "Anchor-4" 282 -22 basechar 0
AnchorPoint: "Anchor-1" 284 672 basechar 0
LayerCount: 2
Fore
SplineSet
32 0 m 1,0,-1
 32 104 l 1,1,-1
 298 506 l 1,2,-1
 58 506 l 1,3,-1
 58 650 l 1,4,-1
 510 650 l 1,5,-1
 510 546 l 1,6,-1
 244 144 l 1,7,-1
 512 144 l 1,8,-1
 512 0 l 1,9,-1
 32 0 l 1,0,-1
EndSplineSet
Validated: 1
Substitution2: "'sups' Superscript lookup 27 subtable" Z.sups
Substitution2: "'c2sc' Capitals to Small Capitals lookup 17 subtable" Z.sc
AlternateSubs2: "'aalt' Access All Alternates lookup 1 subtable" Z.sc Z.sups
EndChar

StartChar: a
Encoding: 97 97 28
Width: 580
GlyphClass: 2
Flags: W
LayerCount: 2
Fore
SplineSet
286 128 m 0,0,1
 306 128 306 128 321 135.5 c 128,-1,2
 336 143 336 143 350 164 c 1,3,-1
 350 348 l 1,4,5
 335 362 335 362 317 367 c 128,-1,6
 299 372 299 372 282 372 c 0,7,8
 255 372 255 372 233.5 345 c 128,-1,9
 212 318 212 318 212 252 c 0,10,11
 212 184 212 184 231.5 156 c 128,-1,12
 251 128 251 128 286 128 c 0,0,1
240 -12 m 0,13,14
 193 -12 193 -12 155.5 6 c 128,-1,15
 118 24 118 24 91.5 58 c 128,-1,16
 65 92 65 92 50.5 140.5 c 128,-1,17
 36 189 36 189 36 250 c 128,-1,18
 36 311 36 311 54 360 c 128,-1,19
 72 409 72 409 101.5 442.5 c 128,-1,20
 131 476 131 476 168.5 494 c 128,-1,21
 206 512 206 512 244 512 c 0,22,23
 280 512 280 512 310.5 497.5 c 128,-1,24
 341 483 341 483 370 450 c 1,25,-1
 374 450 l 1,26,-1
 388 500 l 1,27,-1
 522 500 l 1,28,-1
 522 266 l 1,29,-1
 522 170 l 2,30,31
 522 144 522 144 531.5 135 c 128,-1,32
 541 126 541 126 550 126 c 0,33,34
 555 126 555 126 558.5 126 c 128,-1,35
 562 126 562 126 568 128 c 1,36,-1
 588 2 l 1,37,38
 574 -4 574 -4 553.5 -8 c 128,-1,39
 533 -12 533 -12 504 -12 c 0,40,41
 451 -12 451 -12 421.5 1.5 c 128,-1,42
 392 15 392 15 374 40 c 0,43,44
 371.782638598 43.0796686137 371.782638598 43.0796686137 369.724614424 46 c 2,45,-1
 366 46 l 1,46,47
 340 20 340 20 306.5 4 c 128,-1,48
 273 -12 273 -12 240 -12 c 0,13,14
EndSplineSet
Validated: 1
Substitution2: "'ss02' Style Set 2 lookup 39 subtable" a.a
Substitution2: "'sups' Superscript lookup 26 subtable" a.sups
Substitution2: "'smcp' Lowercase to Small Capitals lookup 20 subtable" A.sc
AlternateSubs2: "'aalt' Access All Alternates lookup 1 subtable" A.sc a.sups a.a
EndChar

StartChar: b
Encoding: 98 98 29
Width: 580
GlyphClass: 2
Flags: W
AnchorPoint: "Anchor-4" 297 -22 basechar 0
AnchorPoint: "Anchor-0" 146 730 basechar 0
LayerCount: 2
Fore
SplineSet
336 -12 m 0,0,1
 303 -12 303 -12 271 4.5 c 128,-1,2
 239 21 239 21 210 54 c 1,3,-1
 206 54 l 1,4,-1
 192 0 l 1,5,-1
 58 0 l 1,6,-1
 58 696 l 1,7,-1
 230 696 l 1,8,-1
 230 534 l 1,9,-1
 226 462 l 1,10,11
 252 486 252 486 284 499 c 128,-1,12
 316 512 316 512 349 512 c 0,13,14
 393 512 393 512 429 494 c 128,-1,15
 465 476 465 476 490.5 443 c 128,-1,16
 516 410 516 410 530 363 c 128,-1,17
 544 316 544 316 544 259 c 0,18,19
 544 194 544 194 526.5 143.5 c 128,-1,20
 509 93 509 93 480 58.5 c 128,-1,21
 451 24 451 24 413.5 6 c 128,-1,22
 376 -12 376 -12 336 -12 c 0,0,1
294 128 m 0,23,24
 324 128 324 128 346 156 c 128,-1,25
 368 184 368 184 368 256 c 0,26,27
 368 318 368 318 350.5 345 c 128,-1,28
 333 372 333 372 298 372 c 0,29,30
 278 372 278 372 262.5 364 c 128,-1,31
 247 356 247 356 230 336 c 1,32,-1
 230 152 l 1,33,34
 245 138 245 138 261 133 c 128,-1,35
 277 128 277 128 294 128 c 0,23,24
EndSplineSet
Validated: 1
Substitution2: "'sups' Superscript lookup 26 subtable" b.sups
Substitution2: "'smcp' Lowercase to Small Capitals lookup 20 subtable" B.sc
AlternateSubs2: "'aalt' Access All Alternates lookup 1 subtable" B.sc b.sups
EndChar

StartChar: c
Encoding: 99 99 30
Width: 472
GlyphClass: 2
Flags: W
AnchorPoint: "Anchor-4" 276 -22 basechar 0
AnchorPoint: "Anchor-3" 276 0 basechar 0
AnchorPoint: "Anchor-0" 280 522 basechar 0
LayerCount: 2
Fore
SplineSet
284 -12 m 0,0,1
 231 -12 231 -12 185 5.5 c 128,-1,2
 139 23 139 23 105 56.5 c 128,-1,3
 71 90 71 90 51.5 139 c 128,-1,4
 32 188 32 188 32 250 c 256,5,6
 32 312 32 312 54 361 c 128,-1,7
 76 410 76 410 113 443.5 c 128,-1,8
 150 477 150 477 198.5 494.5 c 128,-1,9
 247 512 247 512 300 512 c 0,10,11
 345 512 345 512 381 498 c 128,-1,12
 417 484 417 484 446 460 c 1,13,-1
 366 350 l 1,14,15
 349 364 349 364 336.5 369 c 128,-1,16
 324 374 324 374 310 374 c 0,17,18
 262 374 262 374 235 340.5 c 128,-1,19
 208 307 208 307 208 250 c 256,20,21
 208 193 208 193 235.5 159.5 c 128,-1,22
 263 126 263 126 304 126 c 0,23,24
 325 126 325 126 345.5 135 c 128,-1,25
 366 144 366 144 384 158 c 1,26,-1
 450 46 l 1,27,28
 412 13 412 13 367.5 0.5 c 128,-1,29
 323 -12 323 -12 284 -12 c 0,0,1
EndSplineSet
Validated: 1
Substitution2: "'sups' Superscript lookup 26 subtable" c.sups
Substitution2: "'smcp' Lowercase to Small Capitals lookup 20 subtable" C.sc
AlternateSubs2: "'aalt' Access All Alternates lookup 1 subtable" C.sc c.sups
EndChar

StartChar: d
Encoding: 100 100 31
Width: 580
GlyphClass: 2
Flags: W
AnchorPoint: "Anchor-4" 316 -22 basechar 0
AnchorPoint: "Anchor-0" 414 730 basechar 0
LayerCount: 2
Fore
SplineSet
504 -12 m 0,0,1
 451 -12 451 -12 421.5 1.5 c 128,-1,2
 392 15 392 15 374 40 c 0,3,4
 371.782638598 43.0796686137 371.782638598 43.0796686137 369.724614424 46 c 2,5,-1
 366 46 l 1,6,7
 340 20 340 20 306.5 4 c 128,-1,8
 273 -12 273 -12 240 -12 c 0,9,10
 193 -12 193 -12 155.5 6 c 128,-1,11
 118 24 118 24 91.5 58 c 128,-1,12
 65 92 65 92 50.5 140.5 c 128,-1,13
 36 189 36 189 36 250 c 128,-1,14
 36 311 36 311 53.5 360 c 128,-1,15
 71 409 71 409 99.5 442.5 c 128,-1,16
 128 476 128 476 165 494 c 128,-1,17
 202 512 202 512 240 512 c 0,18,19
 281 512 281 512 307 498.5 c 128,-1,20
 333 485 333 485 356 462 c 1,21,-1
 350 534 l 1,22,-1
 350 696 l 1,23,-1
 522 696 l 1,24,-1
 522 266 l 1,25,-1
 522 170 l 2,26,27
 522 144 522 144 531.5 135 c 128,-1,28
 541 126 541 126 550 126 c 0,29,30
 555 126 555 126 558.5 126 c 128,-1,31
 562 126 562 126 568 128 c 1,32,-1
 588 2 l 1,33,34
 574 -4 574 -4 553.5 -8 c 128,-1,35
 533 -12 533 -12 504 -12 c 0,0,1
286 128 m 0,36,37
 306 128 306 128 321 135.5 c 128,-1,38
 336 143 336 143 350 164 c 1,39,-1
 350 348 l 1,40,41
 335 362 335 362 317 367 c 128,-1,42
 299 372 299 372 282 372 c 0,43,44
 255 372 255 372 233.5 345 c 128,-1,45
 212 318 212 318 212 252 c 0,46,47
 212 184 212 184 231.5 156 c 128,-1,48
 251 128 251 128 286 128 c 0,36,37
EndSplineSet
Validated: 1
Substitution2: "'sups' Superscript lookup 26 subtable" d.sups
Substitution2: "'smcp' Lowercase to Small Capitals lookup 20 subtable" D.sc
AlternateSubs2: "'aalt' Access All Alternates lookup 1 subtable" D.sc d.sups
EndChar

StartChar: e
Encoding: 101 101 32
Width: 526
GlyphClass: 2
Flags: W
AnchorPoint: "Anchor-7" 400 0 basechar 0
AnchorPoint: "Anchor-4" 272 -22 basechar 0
AnchorPoint: "Anchor-0" 272 522 basechar 0
LayerCount: 2
Fore
SplineSet
290 -12 m 0,0,1
 235 -12 235 -12 188 5.5 c 128,-1,2
 141 23 141 23 106.5 56.5 c 128,-1,3
 72 90 72 90 52 139 c 128,-1,4
 32 188 32 188 32 250 c 0,5,6
 32 311 32 311 52.5 359.5 c 128,-1,7
 73 408 73 408 106.5 442 c 128,-1,8
 140 476 140 476 183 494 c 128,-1,9
 226 512 226 512 272 512 c 0,10,11
 327 512 327 512 368 493 c 128,-1,12
 409 474 409 474 436 441 c 128,-1,13
 463 408 463 408 476.5 364 c 128,-1,14
 490 320 490 320 490 270 c 0,15,16
 490 247 490 247 487.5 227 c 128,-1,17
 485 207 485 207 483 198 c 1,18,-1
 198 198 l 1,19,20
 210 153 210 153 241 135.5 c 128,-1,21
 272 118 272 118 314 118 c 0,22,23
 340 118 340 118 364.5 125.5 c 128,-1,24
 389 133 389 133 416 148 c 1,25,-1
 472 46 l 1,26,27
 431 17 431 17 381.5 2.5 c 128,-1,28
 332 -12 332 -12 290 -12 c 0,0,1
196 310 m 1,29,-1
 344 310 l 1,30,31
 344 339 344 339 329.5 360.5 c 128,-1,32
 315 382 315 382 276 382 c 0,33,34
 247 382 247 382 225.5 365 c 128,-1,35
 204 348 204 348 196 310 c 1,29,-1
EndSplineSet
Validated: 1
Substitution2: "'sups' Superscript lookup 26 subtable" e.sups
Substitution2: "'smcp' Lowercase to Small Capitals lookup 20 subtable" E.sc
AlternateSubs2: "'aalt' Access All Alternates lookup 1 subtable" E.sc e.sups
EndChar

StartChar: f
Encoding: 102 102 33
Width: 360
GlyphClass: 2
Flags: W
AnchorPoint: "Anchor-4" 174 -22 basechar 0
AnchorPoint: "Anchor-0" 230 741 basechar 0
LayerCount: 2
Fore
SplineSet
88 0 m 1,0,-1
 88 366 l 1,1,-1
 22 366 l 1,2,-1
 22 494 l 1,3,-1
 88 499 l 1,4,-1
 88 506 l 2,5,6
 88 546 88 546 98 582.5 c 128,-1,7
 108 619 108 619 131.5 647 c 128,-1,8
 155 675 155 675 192.5 691.5 c 128,-1,9
 230 708 230 708 286 708 c 0,10,11
 321 708 321 708 348 702 c 128,-1,12
 375 696 375 696 392 690 c 1,13,-1
 362 564 l 1,14,15
 350 569 350 569 337 571.5 c 128,-1,16
 324 574 324 574 312 574 c 0,17,18
 288 574 288 574 274 560.5 c 128,-1,19
 260 547 260 547 260 512 c 2,20,-1
 260 500 l 1,21,-1
 344 500 l 1,22,-1
 344 366 l 1,23,-1
 260 366 l 1,24,-1
 260 0 l 1,25,-1
 88 0 l 1,0,-1
EndSplineSet
Validated: 1
Substitution2: "'sups' Superscript lookup 26 subtable" f.sups
Substitution2: "'smcp' Lowercase to Small Capitals lookup 20 subtable" F.sc
AlternateSubs2: "'aalt' Access All Alternates lookup 1 subtable" F.sc f.sups
EndChar

StartChar: g
Encoding: 103 103 34
Width: 592
GlyphClass: 2
Flags: W
LayerCount: 2
Fore
SplineSet
262 -186 m 0,0,1
 242 -186 242 -186 218.5 -182.5 c 128,-1,2
 195 -179 195 -179 170 -172 c 128,-1,3
 145 -165 145 -165 119.5 -154.5 c 128,-1,4
 94 -144 94 -144 72 -130 c 1,5,-1
 128 -18 l 1,6,7
 163 -36 163 -36 198 -44 c 128,-1,8
 233 -52 233 -52 262 -52 c 0,9,10
 312 -52 312 -52 331.5 -34 c 128,-1,11
 351 -16 351 -16 356 10 c 2,12,-1
 360 60 l 1,13,14
 337 39 337 39 307.5 27.5 c 128,-1,15
 278 16 278 16 246 16 c 0,16,17
 199 16 199 16 161.5 34.5 c 128,-1,18
 124 53 124 53 97.5 85.5 c 128,-1,19
 71 118 71 118 56.5 162.5 c 128,-1,20
 42 207 42 207 42 260 c 0,21,22
 42 317 42 317 60 363.5 c 128,-1,23
 78 410 78 410 107.5 443 c 128,-1,24
 137 476 137 476 174.5 494 c 128,-1,25
 212 512 212 512 250 512 c 0,26,27
 286 512 286 512 316.5 499 c 128,-1,28
 347 486 347 486 374 454 c 1,29,-1
 378 454 l 1,30,-1
 390 500 l 1,31,-1
 528 500 l 1,32,-1
 528 16 l 2,33,34
 528 -84 528 -84 459 -135 c 128,-1,35
 390 -186 390 -186 262 -186 c 0,0,1
292 154 m 0,36,37
 312 154 312 154 326.5 161.5 c 128,-1,38
 341 169 341 169 356 192 c 1,39,-1
 356 348 l 1,40,41
 341 362 341 362 323 367 c 128,-1,42
 305 372 305 372 288 372 c 0,43,44
 259 372 259 372 237.5 345.5 c 128,-1,45
 216 319 216 319 216 262 c 0,46,47
 216 208 216 208 236.5 181 c 128,-1,48
 257 154 257 154 292 154 c 0,36,37
EndSplineSet
Validated: 1
Substitution2: "'ss03' Style Set 3 lookup 41 subtable" g.a
Substitution2: "'sups' Superscript lookup 26 subtable" g.sups
Substitution2: "'smcp' Lowercase to Small Capitals lookup 20 subtable" G.sc
AlternateSubs2: "'aalt' Access All Alternates lookup 1 subtable" G.sc g.sups g.a
EndChar

StartChar: h
Encoding: 104 104 35
Width: 582
GlyphClass: 2
Flags: W
AnchorPoint: "Anchor-4" 296 -22 basechar 0
AnchorPoint: "Anchor-0" 142 730 basechar 0
LayerCount: 2
Fore
SplineSet
58 0 m 1,0,-1
 58 696 l 1,1,-1
 230 696 l 1,2,-1
 230 534 l 1,3,-1
 222 448 l 1,4,5
 248 471 248 471 284.5 491.5 c 128,-1,6
 321 512 321 512 372 512 c 0,7,8
 454 512 454 512 491 456.5 c 128,-1,9
 528 401 528 401 528 308 c 2,10,-1
 528 266 l 1,11,-1
 528 170 l 2,12,13
 528 144 528 144 537.5 135 c 128,-1,14
 547 126 547 126 556 126 c 0,15,16
 561 126 561 126 564.5 126 c 128,-1,17
 568 126 568 126 574 128 c 1,18,-1
 594 2 l 1,19,20
 580 -4 580 -4 559.5 -8 c 128,-1,21
 539 -12 539 -12 510 -12 c 0,22,23
 466 -12 466 -12 436.5 1.5 c 128,-1,24
 407 15 407 15 389 40 c 128,-1,25
 371 65 371 65 363.5 99.5 c 128,-1,26
 356 134 356 134 356 176 c 2,27,-1
 356 200 l 1,28,-1
 356 266 l 1,29,-1
 356 286 l 2,30,31
 356 334 356 334 344 350 c 128,-1,32
 332 366 332 366 306 366 c 0,33,34
 282 366 282 366 266 356 c 128,-1,35
 250 346 250 346 230 328 c 1,36,-1
 230 0 l 1,37,-1
 58 0 l 1,0,-1
EndSplineSet
Validated: 1
Substitution2: "'sups' Superscript lookup 26 subtable" h.sups
Substitution2: "'smcp' Lowercase to Small Capitals lookup 20 subtable" H.sc
AlternateSubs2: "'aalt' Access All Alternates lookup 1 subtable" H.sc h.sups
EndChar

StartChar: i
Encoding: 105 105 36
Width: 288
GlyphClass: 2
Flags: W
AnchorPoint: "Anchor-7" 190 0 basechar 0
AnchorPoint: "Anchor-4" 144 -22 basechar 0
AnchorPoint: "Anchor-0" 144 733 basechar 0
LayerCount: 2
Fore
SplineSet
58 0 m 1,0,-1
 58 500 l 1,1,-1
 230 500 l 1,2,-1
 230 0 l 1,3,-1
 58 0 l 1,0,-1
144 562 m 256,4,5
 102 562 102 562 75 586 c 128,-1,6
 48 610 48 610 48 648 c 256,7,8
 48 686 48 686 75 710 c 128,-1,9
 102 734 102 734 144 734 c 256,10,11
 186 734 186 734 213 710 c 128,-1,12
 240 686 240 686 240 648 c 256,13,14
 240 610 240 610 213 586 c 128,-1,15
 186 562 186 562 144 562 c 256,4,5
EndSplineSet
Validated: 1
Substitution2: "'sups' Superscript lookup 26 subtable" i.sups
Substitution2: "'smcp' Lowercase to Small Capitals lookup 20 subtable" I.sc
Substitution2: "'locl' Localized Forms in Latin lookup 2 subtable" i.trk
AlternateSubs2: "'aalt' Access All Alternates lookup 1 subtable" i.trk I.sc i.sups
EndChar

StartChar: j
Encoding: 106 106 37
Width: 290
GlyphClass: 2
Flags: W
AnchorPoint: "Anchor-4" 86 -237 basechar 0
AnchorPoint: "Anchor-0" 147 733 basechar 0
LayerCount: 2
Fore
SplineSet
38 -188 m 0,0,1
 3 -188 3 -188 -18 -184 c 128,-1,2
 -39 -180 -39 -180 -56 -174 c 1,3,-1
 -26 -48 l 1,4,5
 -15 -51 -15 -51 -7 -52.5 c 128,-1,6
 1 -54 1 -54 10 -54 c 0,7,8
 37 -54 37 -54 48.5 -37.5 c 128,-1,9
 60 -21 60 -21 60 20 c 2,10,-1
 60 500 l 1,11,-1
 232 500 l 1,12,-1
 232 26 l 2,13,14
 232 -16 232 -16 223 -54.5 c 128,-1,15
 214 -93 214 -93 191.5 -123 c 128,-1,16
 169 -153 169 -153 131.5 -170.5 c 128,-1,17
 94 -188 94 -188 38 -188 c 0,0,1
146 562 m 256,18,19
 104 562 104 562 77 586 c 128,-1,20
 50 610 50 610 50 648 c 256,21,22
 50 686 50 686 77 710 c 128,-1,23
 104 734 104 734 146 734 c 256,24,25
 188 734 188 734 215 710 c 128,-1,26
 242 686 242 686 242 648 c 256,27,28
 242 610 242 610 215 586 c 128,-1,29
 188 562 188 562 146 562 c 256,18,19
EndSplineSet
Validated: 1
Substitution2: "'sups' Superscript lookup 26 subtable" j.sups
Substitution2: "'smcp' Lowercase to Small Capitals lookup 20 subtable" J.sc
AlternateSubs2: "'aalt' Access All Alternates lookup 1 subtable" J.sc j.sups
EndChar

StartChar: k
Encoding: 107 107 38
Width: 568
GlyphClass: 2
Flags: W
AnchorPoint: "Anchor-4" 304 -22 basechar 0
AnchorPoint: "Anchor-0" 146 730 basechar 0
LayerCount: 2
Fore
SplineSet
58 0 m 1,0,-1
 58 696 l 1,1,-1
 226 696 l 1,2,-1
 226 326 l 1,3,-1
 230 326 l 1,4,-1
 368 500 l 1,5,-1
 554 500 l 1,6,-1
 376 292 l 1,7,-1
 564 0 l 1,8,-1
 378 0 l 1,9,-1
 278 178 l 1,10,-1
 226 120 l 1,11,-1
 226 0 l 1,12,-1
 58 0 l 1,0,-1
EndSplineSet
Validated: 1
Substitution2: "'sups' Superscript lookup 26 subtable" k.sups
Substitution2: "'smcp' Lowercase to Small Capitals lookup 20 subtable" K.sc
AlternateSubs2: "'aalt' Access All Alternates lookup 1 subtable" K.sc k.sups
EndChar

StartChar: l
Encoding: 108 108 39
Width: 298
GlyphClass: 2
Flags: W
AnchorPoint: "Anchor-4" 143 -22 basechar 0
AnchorPoint: "Anchor-0" 143 730 basechar 0
LayerCount: 2
Fore
SplineSet
212 -12 m 0,0,1
 168 -12 168 -12 138.5 1.5 c 128,-1,2
 109 15 109 15 91 40 c 128,-1,3
 73 65 73 65 65.5 99.5 c 128,-1,4
 58 134 58 134 58 176 c 2,5,-1
 58 696 l 1,6,-1
 230 696 l 1,7,-1
 230 170 l 2,8,9
 230 144 230 144 239.5 135 c 128,-1,10
 249 126 249 126 258 126 c 0,11,12
 263 126 263 126 266.5 126 c 128,-1,13
 270 126 270 126 276 128 c 1,14,-1
 296 2 l 5,15,16
 282 -4 282 -4 261.5 -8 c 128,-1,17
 241 -12 241 -12 212 -12 c 0,0,1
EndSplineSet
Validated: 1
Substitution2: "'ss01' Style Set 1 lookup 36 subtable" l.a
Substitution2: "'sups' Superscript lookup 26 subtable" l.sups
Substitution2: "'smcp' Lowercase to Small Capitals lookup 20 subtable" L.sc
AlternateSubs2: "'aalt' Access All Alternates lookup 1 subtable" L.sc l.sups l.a
EndChar

StartChar: m
Encoding: 109 109 40
Width: 868
GlyphClass: 2
Flags: W
AnchorPoint: "Anchor-4" 444 -22 basechar 0
AnchorPoint: "Anchor-0" 446 522 basechar 0
LayerCount: 2
Fore
SplineSet
796 -12 m 0,0,1
 752 -12 752 -12 722.5 1.5 c 128,-1,2
 693 15 693 15 675 40 c 128,-1,3
 657 65 657 65 649.5 99.5 c 128,-1,4
 642 134 642 134 642 176 c 2,5,-1
 642 190 l 1,6,-1
 642 266 l 1,7,-1
 642 286 l 2,8,9
 642 334 642 334 630 350 c 128,-1,10
 618 366 618 366 592 366 c 0,11,12
 560 366 560 366 522 328 c 1,13,-1
 522 0 l 1,14,-1
 350 0 l 1,15,-1
 350 286 l 2,16,17
 350 334 350 334 338 350 c 128,-1,18
 326 366 326 366 300 366 c 0,19,20
 268 366 268 366 230 328 c 1,21,-1
 230 0 l 1,22,-1
 58 0 l 1,23,-1
 58 500 l 1,24,-1
 198 500 l 1,25,-1
 210 439 l 1,26,-1
 214 439 l 1,27,28
 244 468 244 468 278.5 490 c 128,-1,29
 313 512 313 512 364 512 c 128,-1,30
 415 512 415 512 448.5 491.5 c 128,-1,31
 482 471 482 471 502 432 c 1,32,33
 533 464 533 464 569 488 c 128,-1,34
 605 512 605 512 656 512 c 0,35,36
 738 512 738 512 776 456.5 c 128,-1,37
 814 401 814 401 814 308 c 2,38,-1
 814 266 l 1,39,-1
 814 170 l 2,40,41
 814 144 814 144 823.5 135 c 128,-1,42
 833 126 833 126 842 126 c 0,43,44
 847 126 847 126 850.5 126 c 128,-1,45
 854 126 854 126 860 128 c 1,46,-1
 880 2 l 1,47,48
 866 -4 866 -4 845.5 -8 c 128,-1,49
 825 -12 825 -12 796 -12 c 0,0,1
EndSplineSet
Validated: 1
Substitution2: "'sups' Superscript lookup 26 subtable" m.sups
Substitution2: "'smcp' Lowercase to Small Capitals lookup 20 subtable" M.sc
AlternateSubs2: "'aalt' Access All Alternates lookup 1 subtable" M.sc m.sups
EndChar

StartChar: n
Encoding: 110 110 41
Width: 582
GlyphClass: 2
Flags: W
AnchorPoint: "Anchor-4" 296 -22 basechar 0
AnchorPoint: "Anchor-0" 314 522 basechar 0
LayerCount: 2
Fore
SplineSet
58 0 m 1,0,-1
 58 500 l 1,1,-1
 198 500 l 1,2,-1
 210 440 l 1,3,-1
 214 440 l 1,4,5
 244 469 244 469 282.5 490.5 c 128,-1,6
 321 512 321 512 372 512 c 0,7,8
 454 512 454 512 491 456.5 c 128,-1,9
 528 401 528 401 528 308 c 2,10,-1
 528 266 l 1,11,-1
 528 170 l 2,12,13
 528 144 528 144 537.5 135 c 128,-1,14
 547 126 547 126 556 126 c 0,15,16
 561 126 561 126 564.5 126 c 128,-1,17
 568 126 568 126 574 128 c 1,18,-1
 594 2 l 1,19,20
 580 -4 580 -4 559.5 -8 c 128,-1,21
 539 -12 539 -12 510 -12 c 0,22,23
 466 -12 466 -12 436.5 1.5 c 128,-1,24
 407 15 407 15 389 40 c 128,-1,25
 371 65 371 65 363.5 99.5 c 128,-1,26
 356 134 356 134 356 176 c 2,27,-1
 356 190 l 1,28,-1
 356 266 l 1,29,-1
 356 286 l 2,30,31
 356 334 356 334 344 350 c 128,-1,32
 332 366 332 366 306 366 c 0,33,34
 282 366 282 366 266 356 c 128,-1,35
 250 346 250 346 230 328 c 1,36,-1
 230 0 l 1,37,-1
 58 0 l 1,0,-1
EndSplineSet
Validated: 1
Substitution2: "'sups' Superscript lookup 26 subtable" n.sups
Substitution2: "'smcp' Lowercase to Small Capitals lookup 20 subtable" N.sc
AlternateSubs2: "'aalt' Access All Alternates lookup 1 subtable" N.sc n.sups
EndChar

StartChar: o
Encoding: 111 111 42
Width: 560
GlyphClass: 2
Flags: W
AnchorPoint: "Anchor-7" 334 0 basechar 0
AnchorPoint: "Anchor-6" 374 500 basechar 0
AnchorPoint: "Anchor-4" 280 -22 basechar 0
AnchorPoint: "Anchor-0" 280 522 basechar 0
LayerCount: 2
Fore
SplineSet
280 -12 m 256,0,1
 232 -12 232 -12 187 5.5 c 128,-1,2
 142 23 142 23 107.5 56.5 c 128,-1,3
 73 90 73 90 52.5 139 c 128,-1,4
 32 188 32 188 32 250 c 256,5,6
 32 312 32 312 52.5 361 c 128,-1,7
 73 410 73 410 107.5 443.5 c 128,-1,8
 142 477 142 477 187 494.5 c 128,-1,9
 232 512 232 512 280 512 c 256,10,11
 328 512 328 512 372.5 494.5 c 128,-1,12
 417 477 417 477 451.5 443.5 c 128,-1,13
 486 410 486 410 507 361 c 128,-1,14
 528 312 528 312 528 250 c 256,15,16
 528 188 528 188 507 139 c 128,-1,17
 486 90 486 90 451.5 56.5 c 128,-1,18
 417 23 417 23 372.5 5.5 c 128,-1,19
 328 -12 328 -12 280 -12 c 256,0,1
280 126 m 256,20,21
 319 126 319 126 335.5 159.5 c 128,-1,22
 352 193 352 193 352 250 c 256,23,24
 352 307 352 307 335.5 340.5 c 128,-1,25
 319 374 319 374 280 374 c 256,26,27
 241 374 241 374 224.5 340.5 c 128,-1,28
 208 307 208 307 208 250 c 256,29,30
 208 193 208 193 224.5 159.5 c 128,-1,31
 241 126 241 126 280 126 c 256,20,21
EndSplineSet
Validated: 1
Substitution2: "'sups' Superscript lookup 26 subtable" o.sups
Substitution2: "'smcp' Lowercase to Small Capitals lookup 20 subtable" O.sc
AlternateSubs2: "'aalt' Access All Alternates lookup 1 subtable" O.sc o.sups
EndChar

StartChar: p
Encoding: 112 112 43
Width: 580
GlyphClass: 2
Flags: W
AnchorPoint: "Anchor-4" 135 -218 basechar 0
AnchorPoint: "Anchor-0" 314 522 basechar 0
LayerCount: 2
Fore
SplineSet
58 -176 m 1,0,-1
 58 500 l 1,1,-1
 198 500 l 1,2,-1
 210 454 l 1,3,-1
 214 454 l 1,4,5
 242 480 242 480 277 496 c 128,-1,6
 312 512 312 512 350 512 c 0,7,8
 394 512 394 512 430 494 c 128,-1,9
 466 476 466 476 491.5 443 c 128,-1,10
 517 410 517 410 530.5 363 c 128,-1,11
 544 316 544 316 544 258 c 0,12,13
 544 193 544 193 526.5 143 c 128,-1,14
 509 93 509 93 480 58.5 c 128,-1,15
 451 24 451 24 413.5 6 c 128,-1,16
 376 -12 376 -12 336 -12 c 0,17,18
 274 -12 274 -12 224 38 c 1,19,-1
 230 -38 l 1,20,-1
 230 -176 l 1,21,-1
 58 -176 l 1,0,-1
294 128 m 0,22,23
 324 128 324 128 346 156 c 128,-1,24
 368 184 368 184 368 256 c 0,25,26
 368 318 368 318 350.5 345 c 128,-1,27
 333 372 333 372 298 372 c 0,28,29
 278 372 278 372 262.5 364 c 128,-1,30
 247 356 247 356 230 336 c 1,31,-1
 230 152 l 1,32,33
 245 138 245 138 261 133 c 128,-1,34
 277 128 277 128 294 128 c 0,22,23
EndSplineSet
Validated: 1
Substitution2: "'sups' Superscript lookup 26 subtable" p.sups
Substitution2: "'smcp' Lowercase to Small Capitals lookup 20 subtable" P.sc
AlternateSubs2: "'aalt' Access All Alternates lookup 1 subtable" P.sc p.sups
EndChar

StartChar: q
Encoding: 113 113 44
Width: 580
GlyphClass: 2
Flags: W
AnchorPoint: "Anchor-4" 432 -218 basechar 0
AnchorPoint: "Anchor-0" 298 522 basechar 0
LayerCount: 2
Fore
SplineSet
286 128 m 0,0,1
 306 128 306 128 321 135.5 c 128,-1,2
 336 143 336 143 350 164 c 1,3,-1
 350 348 l 1,4,5
 335 362 335 362 317 367 c 128,-1,6
 299 372 299 372 282 372 c 0,7,8
 255 372 255 372 233.5 345 c 128,-1,9
 212 318 212 318 212 252 c 0,10,11
 212 184 212 184 231.5 156 c 128,-1,12
 251 128 251 128 286 128 c 0,0,1
504 -200 m 0,13,14
 460 -200 460 -200 430.5 -186.5 c 128,-1,15
 401 -173 401 -173 383 -148 c 128,-1,16
 365 -123 365 -123 357.5 -88.5 c 128,-1,17
 350 -54 350 -54 350 -12 c 2,18,-1
 350 32.2923097235 l 1,19,20
 328.985828416 13.2796407497 328.985828416 13.2796407497 301.5 1.5 c 0,21,22
 270 -12 270 -12 240 -12 c 0,23,24
 193 -12 193 -12 155.5 6 c 128,-1,25
 118 24 118 24 91.5 58 c 128,-1,26
 65 92 65 92 50.5 140.5 c 128,-1,27
 36 189 36 189 36 250 c 128,-1,28
 36 311 36 311 53.5 360 c 128,-1,29
 71 409 71 409 99.5 442.5 c 128,-1,30
 128 476 128 476 165 494 c 128,-1,31
 202 512 202 512 240 512 c 0,32,33
 280 512 280 512 310.5 497.5 c 128,-1,34
 341 483 341 483 370 450 c 1,35,-1
 374 450 l 1,36,-1
 388 500 l 1,37,-1
 522 500 l 1,38,-1
 522 78 l 1,39,-1
 522 -18 l 2,40,41
 522 -44 522 -44 531.5 -53 c 128,-1,42
 541 -62 541 -62 550 -62 c 0,43,44
 555 -62 555 -62 558.5 -62 c 128,-1,45
 562 -62 562 -62 568 -60 c 1,46,-1
 588 -186 l 1,47,48
 574 -192 574 -192 553.5 -196 c 128,-1,49
 533 -200 533 -200 504 -200 c 0,13,14
EndSplineSet
Validated: 1
Substitution2: "'sups' Superscript lookup 26 subtable" q.sups
Substitution2: "'smcp' Lowercase to Small Capitals lookup 20 subtable" Q.sc
AlternateSubs2: "'aalt' Access All Alternates lookup 1 subtable" Q.sc q.sups
EndChar

StartChar: r
Encoding: 114 114 45
Width: 418
GlyphClass: 2
Flags: W
AnchorPoint: "Anchor-4" 144 -22 basechar 0
AnchorPoint: "Anchor-0" 258 522 basechar 0
LayerCount: 2
Fore
SplineSet
58 0 m 1,0,-1
 58 500 l 1,1,-1
 198 500 l 1,2,-1
 210 414 l 1,3,-1
 214 414 l 1,4,5
 242 465 242 465 280.5 488.5 c 128,-1,6
 319 512 319 512 356 512 c 0,7,8
 379 512 379 512 393 509.5 c 128,-1,9
 407 507 407 507 418 502 c 1,10,-1
 390 354 l 1,11,12
 376 357 376 357 363.5 359.5 c 128,-1,13
 351 362 351 362 334 362 c 0,14,15
 307 362 307 362 277.5 343.5 c 128,-1,16
 248 325 248 325 230 278 c 1,17,-1
 230 0 l 1,18,-1
 58 0 l 1,0,-1
EndSplineSet
Validated: 1
Substitution2: "'sups' Superscript lookup 26 subtable" r.sups
Substitution2: "'smcp' Lowercase to Small Capitals lookup 20 subtable" R.sc
AlternateSubs2: "'aalt' Access All Alternates lookup 1 subtable" R.sc r.sups
EndChar

StartChar: s
Encoding: 115 115 46
Width: 452
GlyphClass: 2
Flags: W
AnchorPoint: "Anchor-4" 236 -22 basechar 0
AnchorPoint: "Anchor-3" 236 0 basechar 0
AnchorPoint: "Anchor-0" 242 522 basechar 0
LayerCount: 2
Fore
SplineSet
212 -12 m 0,0,1
 164 -12 164 -12 110.5 7 c 128,-1,2
 57 26 57 26 18 58 c 1,3,-1
 94 164 l 1,4,5
 162 114 162 114 216 114 c 0,6,7
 243 114 243 114 254.5 121.5 c 128,-1,8
 266 129 266 129 266 144 c 0,9,10
 266 154 266 154 258 161.5 c 128,-1,11
 250 169 250 169 236.5 175.5 c 128,-1,12
 223 182 223 182 206 188 c 128,-1,13
 189 194 189 194 170 202 c 0,14,15
 148 211 148 211 125.5 223.5 c 128,-1,16
 103 236 103 236 85 254 c 128,-1,17
 67 272 67 272 55.5 295.5 c 128,-1,18
 44 319 44 319 44 350 c 0,19,20
 44 387 44 387 58.5 417 c 128,-1,21
 73 447 73 447 99 468 c 128,-1,22
 125 489 125 489 161.5 500.5 c 128,-1,23
 198 512 198 512 242 512 c 0,24,25
 304 512 304 512 348.5 491.5 c 128,-1,26
 393 471 393 471 426 446 c 1,27,-1
 350 344 l 1,28,29
 323 364 323 364 297 375 c 128,-1,30
 271 386 271 386 248 386 c 0,31,32
 204 386 204 386 204 358 c 0,33,34
 204 348 204 348 211.5 341 c 128,-1,35
 219 334 219 334 232 328 c 128,-1,36
 245 322 245 322 262 316.5 c 128,-1,37
 279 311 279 311 298 304 c 0,38,39
 320 296 320 296 343 284 c 128,-1,40
 366 272 366 272 384.5 254.5 c 128,-1,41
 403 237 403 237 414.5 212.5 c 128,-1,42
 426 188 426 188 426 154 c 0,43,44
 426 119 426 119 412 88.5 c 128,-1,45
 398 58 398 58 371 35.5 c 128,-1,46
 344 13 344 13 304 0.5 c 128,-1,47
 264 -12 264 -12 212 -12 c 0,0,1
EndSplineSet
Validated: 1
Substitution2: "'sups' Superscript lookup 26 subtable" s.sups
Substitution2: "'smcp' Lowercase to Small Capitals lookup 20 subtable" S.sc
AlternateSubs2: "'aalt' Access All Alternates lookup 1 subtable" S.sc s.sups
EndChar

StartChar: t
Encoding: 116 116 47
Width: 400
GlyphClass: 2
Flags: W
AnchorPoint: "Anchor-4" 244 -22 basechar 0
AnchorPoint: "Anchor-3" 244 0 basechar 0
AnchorPoint: "Anchor-0" 176 664 basechar 0
LayerCount: 2
Fore
SplineSet
264 -12 m 0,0,1
 215 -12 215 -12 180.5 2.5 c 128,-1,2
 146 17 146 17 123.5 44 c 128,-1,3
 101 71 101 71 90.5 108.5 c 128,-1,4
 80 146 80 146 80 192 c 2,5,-1
 80 366 l 1,6,-1
 14 366 l 1,7,-1
 14 494 l 1,8,-1
 90 500 l 1,9,-1
 110 630 l 1,10,-1
 252 630 l 1,11,-1
 252 500 l 1,12,-1
 366 500 l 1,13,-1
 366 366 l 1,14,-1
 252 366 l 1,15,-1
 252 195 l 2,16,17
 252 153 252 153 270 137.5 c 128,-1,18
 288 122 288 122 312 122 c 0,19,20
 324 122 324 122 335.5 124.5 c 128,-1,21
 347 127 347 127 356 130 c 1,22,-1
 382 6 l 1,23,24
 362 0 362 0 334 -6 c 128,-1,25
 306 -12 306 -12 264 -12 c 0,0,1
EndSplineSet
Validated: 1
Substitution2: "'sups' Superscript lookup 26 subtable" t.sups
Substitution2: "'smcp' Lowercase to Small Capitals lookup 20 subtable" T.sc
AlternateSubs2: "'aalt' Access All Alternates lookup 1 subtable" T.sc t.sups
EndChar

StartChar: u
Encoding: 117 117 48
Width: 578
GlyphClass: 2
Flags: W
AnchorPoint: "Anchor-7" 466 0 basechar 0
AnchorPoint: "Anchor-6" 438 510 basechar 0
AnchorPoint: "Anchor-4" 308 -22 basechar 0
AnchorPoint: "Anchor-0" 290 522 basechar 0
LayerCount: 2
Fore
SplineSet
210 -12 m 0,0,1
 169 -12 169 -12 139.5 2.5 c 128,-1,2
 110 17 110 17 91 43.5 c 128,-1,3
 72 70 72 70 63 107.5 c 128,-1,4
 54 145 54 145 54 192 c 2,5,-1
 54 500 l 1,6,-1
 226 500 l 1,7,-1
 226 214 l 2,8,9
 226 166 226 166 238 150 c 128,-1,10
 250 134 250 134 276 134 c 0,11,12
 300 134 300 134 315.5 144 c 128,-1,13
 331 154 331 154 348 178 c 1,14,-1
 348 266 l 1,15,-1
 348 500 l 1,16,-1
 520 500 l 1,17,-1
 520 266 l 1,18,-1
 520 170 l 2,19,20
 520 144 520 144 529.5 135 c 128,-1,21
 539 126 539 126 548 126 c 0,22,23
 553 126 553 126 556.5 126 c 128,-1,24
 560 126 560 126 566 128 c 1,25,-1
 586 2 l 1,26,27
 572 -4 572 -4 551.5 -8 c 128,-1,28
 531 -12 531 -12 502 -12 c 0,29,30
 458 -12 458 -12 428.5 1.5 c 128,-1,31
 399 15 399 15 381 40 c 0,32,33
 372.417512614 51.9201213696 372.417512614 51.9201213696 366.222125358 66 c 1,34,-1
 364 66 l 1,35,36
 334 30 334 30 297.5 9 c 128,-1,37
 261 -12 261 -12 210 -12 c 0,0,1
EndSplineSet
Validated: 1
Substitution2: "'sups' Superscript lookup 26 subtable" u.sups
Substitution2: "'smcp' Lowercase to Small Capitals lookup 20 subtable" U.sc
AlternateSubs2: "'aalt' Access All Alternates lookup 1 subtable" U.sc u.sups
EndChar

StartChar: v
Encoding: 118 118 49
Width: 544
GlyphClass: 2
Flags: W
AnchorPoint: "Anchor-4" 274 -22 basechar 0
AnchorPoint: "Anchor-0" 274 522 basechar 0
LayerCount: 2
Fore
SplineSet
176 0 m 1,0,-1
 12 500 l 1,1,-1
 184 500 l 1,2,-1
 238 282 l 2,3,4
 256 207 256 207 274 126 c 1,5,-1
 278 126 l 1,6,7
 296 207 296 207 314 282 c 2,8,-1
 368 500 l 1,9,-1
 532 500 l 1,10,-1
 374 0 l 1,11,-1
 176 0 l 1,0,-1
EndSplineSet
Validated: 1
Substitution2: "'sups' Superscript lookup 26 subtable" v.sups
Substitution2: "'smcp' Lowercase to Small Capitals lookup 20 subtable" V.sc
AlternateSubs2: "'aalt' Access All Alternates lookup 1 subtable" V.sc v.sups
EndChar

StartChar: w
Encoding: 119 119 50
Width: 798
GlyphClass: 2
Flags: W
AnchorPoint: "Anchor-4" 400 -22 basechar 0
AnchorPoint: "Anchor-0" 400 522 basechar 0
LayerCount: 2
Fore
SplineSet
144 0 m 1,0,-1
 24 500 l 1,1,-1
 194 500 l 1,2,-1
 232 290 l 2,3,4
 238 252 238 252 242 214.5 c 128,-1,5
 246 177 246 177 252 138 c 1,6,-1
 256 138 l 1,7,8
 262 177 262 177 268.5 215.5 c 128,-1,9
 275 254 275 254 284 290 c 2,10,-1
 330 500 l 1,11,-1
 476 500 l 1,12,-1
 524 290 l 2,13,14
 533 252 533 252 539.5 214.5 c 128,-1,15
 546 177 546 177 554 138 c 1,16,-1
 558 138 l 1,17,18
 564 177 564 177 568 214.5 c 128,-1,19
 572 252 572 252 578 290 c 2,20,-1
 616 500 l 1,21,-1
 774 500 l 1,22,-1
 660 0 l 1,23,-1
 460 0 l 1,24,-1
 424 174 l 2,25,26
 418 209 418 209 412 244 c 128,-1,27
 406 279 406 279 400 321 c 1,28,-1
 396 321 l 1,29,30
 390 279 390 279 385 244 c 128,-1,31
 380 209 380 209 374 174 c 2,32,-1
 340 0 l 1,33,-1
 144 0 l 1,0,-1
EndSplineSet
Validated: 1
Substitution2: "'sups' Superscript lookup 26 subtable" w.sups
Substitution2: "'smcp' Lowercase to Small Capitals lookup 20 subtable" W.sc
AlternateSubs2: "'aalt' Access All Alternates lookup 1 subtable" W.sc w.sups
EndChar

StartChar: x
Encoding: 120 120 51
Width: 540
GlyphClass: 2
Flags: W
AnchorPoint: "Anchor-4" 270 -22 basechar 0
AnchorPoint: "Anchor-0" 270 522 basechar 0
LayerCount: 2
Fore
SplineSet
14 0 m 1,0,-1
 164 260 l 1,1,-1
 22 500 l 1,2,-1
 206 500 l 1,3,-1
 242 430 l 2,4,5
 252 409 252 409 262 387 c 128,-1,6
 272 365 272 365 282 344 c 1,7,-1
 286 344 l 1,8,9
 293 365 293 365 301 387 c 128,-1,10
 309 409 309 409 316 430 c 2,11,-1
 340 500 l 1,12,-1
 518 500 l 1,13,-1
 376 240 l 1,14,-1
 526 0 l 1,15,-1
 342 0 l 1,16,-1
 302 70 l 2,17,18
 291 91 291 91 280 113 c 128,-1,19
 269 135 269 135 258 156 c 1,20,-1
 254 156 l 1,21,22
 246 135 246 135 237 113.5 c 128,-1,23
 228 92 228 92 220 70 c 2,24,-1
 192 0 l 1,25,-1
 14 0 l 1,0,-1
EndSplineSet
Validated: 1
Substitution2: "'sups' Superscript lookup 26 subtable" x.sups
Substitution2: "'smcp' Lowercase to Small Capitals lookup 20 subtable" X.sc
AlternateSubs2: "'aalt' Access All Alternates lookup 1 subtable" X.sc x.sups
EndChar

StartChar: y
Encoding: 121 121 52
Width: 542
GlyphClass: 2
Flags: W
AnchorPoint: "Anchor-4" 238 -241 basechar 0
AnchorPoint: "Anchor-0" 276 522 basechar 0
LayerCount: 2
Fore
SplineSet
132 -188 m 0,0,1
 106 -188 106 -188 89.5 -185.5 c 128,-1,2
 73 -183 73 -183 56 -178 c 1,3,-1
 86 -48 l 1,4,5
 93 -50 93 -50 101.5 -52 c 128,-1,6
 110 -54 110 -54 118 -54 c 0,7,8
 153 -54 153 -54 170.5 -40.5 c 128,-1,9
 188 -27 188 -27 196 -4 c 2,10,-1
 202 18 l 1,11,-1
 12 500 l 1,12,-1
 184 500 l 1,13,-1
 244 308 l 2,14,15
 255 273 255 273 263 238.5 c 128,-1,16
 271 204 271 204 280 166 c 1,17,-1
 284 166 l 1,18,19
 292 202 292 202 299.5 237 c 128,-1,20
 307 272 307 272 316 308 c 2,21,-1
 366 500 l 1,22,-1
 530 500 l 1,23,-1
 362 8 l 2,24,25
 342 -43 342 -43 321.5 -80 c 128,-1,26
 301 -117 301 -117 274 -141 c 128,-1,27
 247 -165 247 -165 212.5 -176.5 c 128,-1,28
 178 -188 178 -188 132 -188 c 0,0,1
EndSplineSet
Validated: 1
Substitution2: "'sups' Superscript lookup 26 subtable" y.sups
Substitution2: "'smcp' Lowercase to Small Capitals lookup 20 subtable" Y.sc
AlternateSubs2: "'aalt' Access All Alternates lookup 1 subtable" Y.sc y.sups
EndChar

StartChar: z
Encoding: 122 122 53
Width: 474
GlyphClass: 2
Flags: W
AnchorPoint: "Anchor-4" 252 -22 basechar 0
AnchorPoint: "Anchor-0" 252 522 basechar 0
LayerCount: 2
Fore
SplineSet
40 0 m 1,0,-1
 40 92 l 1,1,-1
 230 366 l 1,2,-1
 62 366 l 1,3,-1
 62 500 l 1,4,-1
 444 500 l 1,5,-1
 444 408 l 1,6,-1
 254 134 l 1,7,-1
 450 134 l 1,8,-1
 450 0 l 1,9,-1
 40 0 l 1,0,-1
EndSplineSet
Validated: 1
Substitution2: "'sups' Superscript lookup 26 subtable" z.sups
Substitution2: "'smcp' Lowercase to Small Capitals lookup 20 subtable" Z.sc
AlternateSubs2: "'aalt' Access All Alternates lookup 1 subtable" Z.sc z.sups
EndChar

StartChar: Aogonek
Encoding: 260 260 75
Width: 584
GlyphClass: 2
Flags: W
AnchorPoint: "Anchor-1" 292 672 basechar 0
LayerCount: 2
Fore
SplineSet
498 -228 m 0,0,1
 447 -228 447 -228 411.5 -202.5 c 128,-1,2
 376 -177 376 -177 376 -130 c 0,3,4
 376 -106 376 -106 384.5 -85 c 128,-1,5
 393 -64 393 -64 406 -47 c 128,-1,6
 419 -30 419 -30 433.5 -18 c 128,-1,7
 448 -6 448 -6 460 0 c 1,8,-1
 412 0 l 1,9,-1
 380 138 l 1,10,-1
 198 138 l 1,11,-1
 166 0 l 1,12,-1
 -10 0 l 1,13,-1
 188 650 l 1,14,-1
 396 650 l 1,15,-1
 594 0 l 1,16,17
 572 0 572 0 554.5 -7.5 c 128,-1,18
 537 -15 537 -15 525 -27 c 128,-1,19
 513 -39 513 -39 506.5 -54 c 128,-1,20
 500 -69 500 -69 500 -84 c 0,21,22
 500 -101 500 -101 510.5 -109.5 c 128,-1,23
 521 -118 521 -118 536 -118 c 0,24,25
 547 -118 547 -118 557 -113.5 c 128,-1,26
 567 -109 567 -109 574 -104 c 1,27,-1
 612 -190 l 1,28,29
 591 -207 591 -207 559 -217.5 c 128,-1,30
 527 -228 527 -228 498 -228 c 0,0,1
240 316 m 2,31,-1
 229 271 l 1,32,-1
 349 271 l 1,33,-1
 338 316 l 2,34,35
 326 363 326 363 314 418 c 128,-1,36
 302 473 302 473 290 522 c 1,37,-1
 286 522 l 1,38,39
 275 472 275 472 263.5 417.5 c 128,-1,40
 252 363 252 363 240 316 c 2,31,-1
EndSplineSet
Validated: 1
Substitution2: "'c2sc' Capitals to Small Capitals lookup 17 subtable" Aogonek.sc
Ligature2: "'ccmp' Glyph Composition/Decomposition lookup 11 subtable" A uni0328
Substitution2: "'aalt' Access All Alternates lookup 0 subtable" Aogonek.sc
EndChar

StartChar: AE
Encoding: 198 198 76
Width: 854
GlyphClass: 2
Flags: W
AnchorPoint: "Anchor-1" 526 694 basechar 0
LayerCount: 2
Fore
SplineSet
308 348 m 2,0,-1
 272 265 l 1,1,-1
 380 265 l 1,2,-1
 380 522 l 1,3,-1
 376 522 l 1,4,5
 358 475 358 475 341.5 431 c 128,-1,6
 325 387 325 387 308 348 c 2,0,-1
-22 0 m 1,7,-1
 274 650 l 1,8,-1
 790 650 l 1,9,-1
 790 506 l 1,10,-1
 552 506 l 1,11,-1
 552 404 l 1,12,-1
 754 404 l 1,13,-1
 754 260 l 1,14,-1
 552 260 l 1,15,-1
 552 144 l 1,16,-1
 800 144 l 1,17,-1
 800 0 l 1,18,-1
 380 0 l 1,19,-1
 380 132 l 1,20,-1
 215 132 l 1,21,-1
 158 0 l 1,22,-1
 -22 0 l 1,7,-1
EndSplineSet
Validated: 1
Substitution2: "'c2sc' Capitals to Small Capitals lookup 17 subtable" AE.sc
Substitution2: "'aalt' Access All Alternates lookup 0 subtable" AE.sc
EndChar

StartChar: uni0243
Encoding: 579 579 79
Width: 638
Flags: W
LayerCount: 2
Fore
SplineSet
98 0 m 1,0,-1
 98 174 l 1,1,-1
 24 174 l 1,2,-1
 24 248 l 1,3,-1
 98 254 l 1,4,-1
 98 650 l 1,5,-1
 332 650 l 2,6,7
 383 650 383 650 428 642.5 c 128,-1,8
 473 635 473 635 506 617 c 128,-1,9
 539 599 539 599 558.5 569 c 128,-1,10
 578 539 578 539 578 494 c 0,11,12
 578 474 578 474 572 455 c 128,-1,13
 566 436 566 436 552.5 419 c 128,-1,14
 539 402 539 402 518.5 388.5 c 128,-1,15
 498 375 498 375 470 368 c 1,16,-1
 470 364 l 1,17,18
 539 350 539 350 573.5 310.5 c 128,-1,19
 608 271 608 271 608 202 c 0,20,21
 608 149 608 149 587.5 111 c 128,-1,22
 567 73 567 73 532.5 48 c 128,-1,23
 498 23 498 23 451 11.5 c 128,-1,24
 404 0 404 0 352 0 c 2,25,-1
 98 0 l 1,0,-1
270 404 m 1,26,-1
 328 404 l 2,27,28
 370 404 370 404 392 423 c 128,-1,29
 414 442 414 442 414 472 c 256,30,31
 414 502 414 502 392 515 c 128,-1,32
 370 528 370 528 328 528 c 2,33,-1
 270 528 l 1,34,-1
 270 404 l 1,26,-1
270 122 m 1,35,-1
 340 122 l 2,36,37
 391 122 391 122 417.5 146.5 c 128,-1,38
 444 171 444 171 444 216 c 0,39,40
 444 263 444 263 417.5 283.5 c 128,-1,41
 391 304 391 304 340 304 c 2,42,-1
 270 304 l 1,43,-1
 270 254 l 1,44,-1
 386 254 l 1,45,-1
 386 174 l 1,46,-1
 270 174 l 1,47,-1
 270 122 l 1,35,-1
EndSplineSet
Validated: 1
Substitution2: "'c2sc' Capitals to Small Capitals lookup 17 subtable" uni0243.sc
Substitution2: "'aalt' Access All Alternates lookup 0 subtable" uni0243.sc
EndChar

StartChar: Eogonek
Encoding: 280 280 106
Width: 556
GlyphClass: 2
Flags: W
AnchorPoint: "Anchor-1" 290 672 basechar 0
LayerCount: 2
Fore
SplineSet
410 -228 m 0,0,1
 359 -228 359 -228 323.5 -202.5 c 128,-1,2
 288 -177 288 -177 288 -130 c 0,3,4
 288 -106 288 -106 296 -85.5 c 128,-1,5
 304 -65 304 -65 316 -48.5 c 128,-1,6
 328 -32 328 -32 342 -20 c 128,-1,7
 356 -8 356 -8 368 0 c 1,8,-1
 72 0 l 1,9,-1
 72 650 l 1,10,-1
 492 650 l 1,11,-1
 492 506 l 1,12,-1
 244 506 l 1,13,-1
 244 404 l 1,14,-1
 456 404 l 1,15,-1
 456 260 l 1,16,-1
 244 260 l 1,17,-1
 244 144 l 1,18,-1
 502 144 l 1,19,-1
 502 0 l 1,20,-1
 496 0 l 2,21,22
 479 0 479 0 463.5 -7.5 c 128,-1,23
 448 -15 448 -15 436.5 -27 c 128,-1,24
 425 -39 425 -39 418.5 -54 c 128,-1,25
 412 -69 412 -69 412 -84 c 0,26,27
 412 -102 412 -102 424.5 -110 c 128,-1,28
 437 -118 437 -118 452 -118 c 0,29,30
 461 -118 461 -118 470 -113.5 c 128,-1,31
 479 -109 479 -109 486 -104 c 1,32,-1
 524 -190 l 1,33,34
 503 -207 503 -207 471 -217.5 c 128,-1,35
 439 -228 439 -228 410 -228 c 0,0,1
EndSplineSet
Validated: 1
Substitution2: "'c2sc' Capitals to Small Capitals lookup 17 subtable" Eogonek.sc
Ligature2: "'ccmp' Glyph Composition/Decomposition lookup 11 subtable" E uni0328
Substitution2: "'aalt' Access All Alternates lookup 0 subtable" Eogonek.sc
EndChar

StartChar: uni0193
Encoding: 403 403 116
Width: 646
Flags: W
LayerCount: 2
Fore
SplineSet
372 -12 m 0,0,1
 304 -12 304 -12 244 8.5 c 128,-1,2
 184 29 184 29 139.5 70.5 c 128,-1,3
 95 112 95 112 69.5 174.5 c 128,-1,4
 44 237 44 237 44 320 c 0,5,6
 44 402 44 402 70 465.5 c 128,-1,7
 96 529 96 529 140.5 572.5 c 128,-1,8
 185 616 185 616 244 639 c 128,-1,9
 303 662 303 662 368 662 c 0,10,11
 378 662 378 662 387.5 661.5 c 128,-1,12
 397 661 397 661 407 660 c 1,13,14
 406 663 406 663 406 670 c 0,15,16
 406 701 406 701 416.5 729 c 128,-1,17
 427 757 427 757 446.5 778 c 128,-1,18
 466 799 466 799 495 811.5 c 128,-1,19
 524 824 524 824 562 824 c 0,20,21
 597 824 597 824 618 819.5 c 128,-1,22
 639 815 639 815 656 810 c 1,23,-1
 626 684 l 1,24,25
 618 687 618 687 613 688.5 c 128,-1,26
 608 690 608 690 600 690 c 0,27,28
 579 690 579 690 564.5 679 c 128,-1,29
 550 668 550 668 550 644 c 0,30,31
 550 626 550 626 559.5 612 c 128,-1,32
 569 598 569 598 580 586 c 1,33,-1
 490 476 l 1,34,35
 466 493 466 493 439.5 503.5 c 128,-1,36
 413 514 413 514 374 514 c 0,37,38
 341 514 341 514 313 501 c 128,-1,39
 285 488 285 488 264 464 c 128,-1,40
 243 440 243 440 231.5 405 c 128,-1,41
 220 370 220 370 220 326 c 0,42,43
 220 234 220 234 261 185 c 128,-1,44
 302 136 302 136 390 136 c 0,45,46
 404 136 404 136 417.5 139 c 128,-1,47
 431 142 431 142 440 148 c 1,48,-1
 440 238 l 1,49,-1
 344 238 l 1,50,-1
 344 378 l 1,51,-1
 592 378 l 1,52,-1
 592 68 l 1,53,54
 557 35 557 35 499 11.5 c 128,-1,55
 441 -12 441 -12 372 -12 c 0,0,1
EndSplineSet
Validated: 1
Substitution2: "'c2sc' Capitals to Small Capitals lookup 17 subtable" uni0193.sc
Substitution2: "'aalt' Access All Alternates lookup 0 subtable" uni0193.sc
EndChar

StartChar: Hbar
Encoding: 294 294 120
Width: 722
Flags: W
LayerCount: 2
Fore
SplineSet
22 484 m 1,0,-1
 22 558 l 1,1,-1
 92 564 l 1,2,-1
 92 650 l 1,3,-1
 264 650 l 1,4,-1
 264 564 l 1,5,-1
 458 564 l 1,6,-1
 458 650 l 1,7,-1
 630 650 l 1,8,-1
 630 564 l 1,9,-1
 700 564 l 1,10,-1
 700 484 l 1,11,-1
 630 484 l 1,12,-1
 630 0 l 1,13,-1
 458 0 l 1,14,-1
 458 258 l 1,15,-1
 264 258 l 1,16,-1
 264 0 l 1,17,-1
 92 0 l 1,18,-1
 92 484 l 1,19,-1
 22 484 l 1,0,-1
264 408 m 1,20,-1
 458 408 l 1,21,-1
 458 484 l 1,22,-1
 264 484 l 1,23,-1
 264 408 l 1,20,-1
EndSplineSet
Validated: 1
Substitution2: "'c2sc' Capitals to Small Capitals lookup 17 subtable" Hbar.sc
Substitution2: "'aalt' Access All Alternates lookup 0 subtable" Hbar.sc
EndChar

StartChar: Iogonek
Encoding: 302 302 131
Width: 416
GlyphClass: 2
Flags: W
AnchorPoint: "Anchor-1" 216 672 basechar 0
LayerCount: 2
Fore
SplineSet
214 -228 m 0,0,1
 163 -228 163 -228 127.5 -202.5 c 128,-1,2
 92 -177 92 -177 92 -130 c 0,3,4
 92 -106 92 -106 100 -85.5 c 128,-1,5
 108 -65 108 -65 119 -48 c 128,-1,6
 130 -31 130 -31 143 -19 c 128,-1,7
 156 -7 156 -7 165 0 c 1,8,-1
 54 0 l 1,9,-1
 54 144 l 1,10,-1
 122 144 l 1,11,-1
 122 506 l 1,12,-1
 54 506 l 1,13,-1
 54 650 l 1,14,-1
 362 650 l 1,15,-1
 362 506 l 1,16,-1
 294 506 l 1,17,-1
 294 144 l 1,18,-1
 362 144 l 1,19,-1
 362 0 l 1,20,-1
 267 0 l 1,21,22
 243 -20 243 -20 229.5 -41.5 c 128,-1,23
 216 -63 216 -63 216 -84 c 0,24,25
 216 -102 216 -102 228.5 -110 c 128,-1,26
 241 -118 241 -118 256 -118 c 0,27,28
 265 -118 265 -118 274 -113.5 c 128,-1,29
 283 -109 283 -109 290 -104 c 1,30,-1
 328 -190 l 1,31,32
 307 -207 307 -207 275 -217.5 c 128,-1,33
 243 -228 243 -228 214 -228 c 0,0,1
EndSplineSet
Validated: 1
Substitution2: "'ss04' Style Set 4 lookup 43 subtable" Iogonek.a
Substitution2: "'c2sc' Capitals to Small Capitals lookup 17 subtable" Iogonek.sc
Ligature2: "'ccmp' Glyph Composition/Decomposition lookup 11 subtable" I uni0328
AlternateSubs2: "'aalt' Access All Alternates lookup 1 subtable" Iogonek.sc Iogonek.a
EndChar

StartChar: Lslash
Encoding: 321 321 144
Width: 538
Flags: W
LayerCount: 2
Fore
SplineSet
28 166 m 1,0,-1
 -30 268 l 1,1,-1
 80 331 l 1,2,-1
 80 650 l 1,3,-1
 252 650 l 1,4,-1
 252 410 l 1,5,-1
 402 494 l 1,6,-1
 460 392 l 1,7,-1
 252 277 l 1,8,-1
 252 144 l 1,9,-1
 498 144 l 1,10,-1
 498 0 l 1,11,-1
 80 0 l 1,12,-1
 80 198 l 1,13,-1
 28 166 l 1,0,-1
EndSplineSet
Validated: 1
Substitution2: "'c2sc' Capitals to Small Capitals lookup 17 subtable" Lslash.sc
Substitution2: "'aalt' Access All Alternates lookup 0 subtable" Lslash.sc
EndChar

StartChar: Oslash
Encoding: 216 216 173
Width: 692
GlyphClass: 2
Flags: W
AnchorPoint: "Anchor-1" 356 672 basechar 0
LayerCount: 2
Fore
SplineSet
346 -12 m 0,0,1
 253 -12 253 -12 186 30 c 1,2,-1
 124 -46 l 1,3,-1
 36 22 l 1,4,-1
 105 106 l 1,5,6
 76 148 76 148 60 203.5 c 128,-1,7
 44 259 44 259 44 328 c 0,8,9
 44 408 44 408 66 470.5 c 128,-1,10
 88 533 88 533 127.5 575.5 c 128,-1,11
 167 618 167 618 222.5 640 c 128,-1,12
 278 662 278 662 346 662 c 0,13,14
 446 662 446 662 520 613 c 1,15,-1
 588 696 l 1,16,-1
 676 628 l 1,17,-1
 597 532 l 1,18,19
 622 492 622 492 635 441 c 128,-1,20
 648 390 648 390 648 328 c 0,21,22
 648 248 648 248 626 184.5 c 128,-1,23
 604 121 604 121 564.5 77.5 c 128,-1,24
 525 34 525 34 469 11 c 128,-1,25
 413 -12 413 -12 346 -12 c 0,0,1
220 328 m 0,26,27
 220 286 220 286 227 255 c 1,28,-1
 418 488 l 1,29,30
 387 514 387 514 346 514 c 0,31,32
 287 514 287 514 253.5 465.5 c 128,-1,33
 220 417 220 417 220 328 c 0,26,27
346 136 m 0,34,35
 405 136 405 136 438.5 187.5 c 128,-1,36
 472 239 472 239 472 328 c 0,37,38
 472 354 472 354 469 375 c 1,39,-1
 287 153 l 1,40,41
 313 136 313 136 346 136 c 0,34,35
EndSplineSet
Validated: 1
Substitution2: "'c2sc' Capitals to Small Capitals lookup 17 subtable" Oslash.sc
Substitution2: "'aalt' Access All Alternates lookup 0 subtable" Oslash.sc
EndChar

StartChar: OE
Encoding: 338 338 174
Width: 880
GlyphClass: 2
Flags: W
AnchorPoint: "Anchor-1" 528 672 basechar 0
LayerCount: 2
Fore
SplineSet
374 0 m 2,0,1
 306 0 306 0 246 19 c 128,-1,2
 186 38 186 38 141 78 c 128,-1,3
 96 118 96 118 70 180 c 128,-1,4
 44 242 44 242 44 328 c 256,5,6
 44 414 44 414 70.5 475 c 128,-1,7
 97 536 97 536 143 575 c 128,-1,8
 189 614 189 614 251 632 c 128,-1,9
 313 650 313 650 384 650 c 2,10,-1
 816 650 l 1,11,-1
 816 506 l 1,12,-1
 580 506 l 1,13,-1
 580 404 l 1,14,-1
 780 404 l 1,15,-1
 780 260 l 1,16,-1
 580 260 l 1,17,-1
 580 144 l 1,18,-1
 826 144 l 1,19,-1
 826 0 l 1,20,-1
 374 0 l 2,0,1
394 138 m 2,21,-1
 408 138 l 1,22,-1
 408 512 l 1,23,-1
 394 512 l 2,24,25
 358 512 358 512 326 505 c 128,-1,26
 294 498 294 498 270.5 478 c 128,-1,27
 247 458 247 458 233.5 422 c 128,-1,28
 220 386 220 386 220 328 c 256,29,30
 220 270 220 270 233.5 233 c 128,-1,31
 247 196 247 196 270.5 175 c 128,-1,32
 294 154 294 154 326 146 c 128,-1,33
 358 138 358 138 394 138 c 2,21,-1
EndSplineSet
Validated: 1
Substitution2: "'c2sc' Capitals to Small Capitals lookup 17 subtable" OE.sc
Substitution2: "'aalt' Access All Alternates lookup 0 subtable" OE.sc
EndChar

StartChar: Ohorn
Encoding: 416 416 175
Width: 692
GlyphClass: 2
Flags: W
AnchorPoint: "Anchor-4" 346 -22 basechar 0
AnchorPoint: "Anchor-1" 346 672 basechar 0
LayerCount: 2
Fore
SplineSet
346 -12 m 0,0,1
 278 -12 278 -12 222.5 11 c 128,-1,2
 167 34 167 34 127.5 77.5 c 128,-1,3
 88 121 88 121 66 184.5 c 128,-1,4
 44 248 44 248 44 328 c 256,5,6
 44 408 44 408 66 470.5 c 128,-1,7
 88 533 88 533 127.5 575.5 c 128,-1,8
 167 618 167 618 222.5 640 c 128,-1,9
 278 662 278 662 346 662 c 0,10,11
 424 662 424 662 489 631 c 1,12,13
 513 640 513 640 526.5 654 c 128,-1,14
 540 668 540 668 540 700 c 0,15,16
 540 721 540 721 534.5 739 c 128,-1,17
 529 757 529 757 524 768 c 1,18,-1
 650 818 l 1,19,20
 662 801 662 801 672 773 c 128,-1,21
 682 745 682 745 682 712 c 0,22,23
 682 656 682 656 653 624.5 c 128,-1,24
 624 593 624 593 563 576 c 1,25,26
 604 533 604 533 626 471 c 128,-1,27
 648 409 648 409 648 328 c 0,28,29
 648 248 648 248 626 184.5 c 128,-1,30
 604 121 604 121 564.5 77.5 c 128,-1,31
 525 34 525 34 469 11 c 128,-1,32
 413 -12 413 -12 346 -12 c 0,0,1
346 136 m 256,33,34
 405 136 405 136 438.5 187.5 c 128,-1,35
 472 239 472 239 472 328 c 256,36,37
 472 417 472 417 438.5 465.5 c 128,-1,38
 405 514 405 514 346 514 c 256,39,40
 287 514 287 514 253.5 465.5 c 128,-1,41
 220 417 220 417 220 328 c 256,42,43
 220 239 220 239 253.5 187.5 c 128,-1,44
 287 136 287 136 346 136 c 256,33,34
EndSplineSet
Validated: 1
Substitution2: "'c2sc' Capitals to Small Capitals lookup 17 subtable" Ohorn.sc
Substitution2: "'aalt' Access All Alternates lookup 0 subtable" Ohorn.sc
EndChar

StartChar: uni01EA
Encoding: 490 490 181
Width: 692
GlyphClass: 2
Flags: W
AnchorPoint: "Anchor-1" 346 672 basechar 0
LayerCount: 2
Fore
SplineSet
370 -228 m 0,0,1
 319 -228 319 -228 283.5 -202.5 c 128,-1,2
 248 -177 248 -177 248 -130 c 0,3,4
 248 -89 248 -89 269.5 -58.5 c 128,-1,5
 291 -28 291 -28 312 -10 c 1,6,7
 250 -4 250 -4 200.5 21.5 c 128,-1,8
 151 47 151 47 116.5 90.5 c 128,-1,9
 82 134 82 134 63 193.5 c 128,-1,10
 44 253 44 253 44 328 c 0,11,12
 44 408 44 408 66 470.5 c 128,-1,13
 88 533 88 533 127.5 575.5 c 128,-1,14
 167 618 167 618 222.5 640 c 128,-1,15
 278 662 278 662 346 662 c 0,16,17
 413 662 413 662 469 640 c 128,-1,18
 525 618 525 618 564.5 575 c 128,-1,19
 604 532 604 532 626 470 c 128,-1,20
 648 408 648 408 648 328 c 0,21,22
 648 258 648 258 633.5 205.5 c 128,-1,23
 619 153 619 153 592 114 c 128,-1,24
 565 75 565 75 526.5 46.5 c 128,-1,25
 488 18 488 18 440 -4 c 0,26,27
 404 -21 404 -21 388 -42.5 c 128,-1,28
 372 -64 372 -64 372 -84 c 0,29,30
 372 -102 372 -102 384.5 -110 c 128,-1,31
 397 -118 397 -118 412 -118 c 0,32,33
 421 -118 421 -118 430 -113.5 c 128,-1,34
 439 -109 439 -109 446 -104 c 1,35,-1
 484 -190 l 1,36,37
 463 -207 463 -207 431 -217.5 c 128,-1,38
 399 -228 399 -228 370 -228 c 0,0,1
346 136 m 256,39,40
 405 136 405 136 438.5 187.5 c 128,-1,41
 472 239 472 239 472 328 c 256,42,43
 472 417 472 417 438.5 465.5 c 128,-1,44
 405 514 405 514 346 514 c 256,45,46
 287 514 287 514 253.5 465.5 c 128,-1,47
 220 417 220 417 220 328 c 256,48,49
 220 239 220 239 253.5 187.5 c 128,-1,50
 287 136 287 136 346 136 c 256,39,40
EndSplineSet
Validated: 1
Substitution2: "'c2sc' Capitals to Small Capitals lookup 17 subtable" uni01EA.sc
Ligature2: "'ccmp' Glyph Composition/Decomposition lookup 11 subtable" O uni0328
Substitution2: "'aalt' Access All Alternates lookup 0 subtable" uni01EA.sc
EndChar

StartChar: uni1E9E
Encoding: 7838 7838 196
Width: 720
Flags: W
LayerCount: 2
Fore
SplineSet
474 -12 m 0,0,1
 406 -12 406 -12 359.5 10 c 128,-1,2
 313 32 313 32 286 58 c 1,3,-1
 374 162 l 1,4,5
 397 141 397 141 416 133.5 c 128,-1,6
 435 126 435 126 452 126 c 0,7,8
 476 126 476 126 491 141 c 128,-1,9
 506 156 506 156 506 182 c 0,10,11
 506 206 506 206 473.5 227 c 128,-1,12
 441 248 441 248 371 261 c 1,13,-1
 360 360 l 1,14,-1
 458 474 l 1,15,16
 447 494 447 494 423 509 c 128,-1,17
 399 524 399 524 362 524 c 0,18,19
 303 524 303 524 275.5 488.5 c 128,-1,20
 248 453 248 453 248 384 c 2,21,-1
 248 0 l 1,22,-1
 76 0 l 1,23,-1
 76 406 l 2,24,25
 76 459 76 459 92.5 506 c 128,-1,26
 109 553 109 553 144 587.5 c 128,-1,27
 179 622 179 622 234 642 c 128,-1,28
 289 662 289 662 366 662 c 0,29,30
 418 662 418 662 461 648 c 128,-1,31
 504 634 504 634 537 608.5 c 128,-1,32
 570 583 570 583 592.5 547 c 128,-1,33
 615 511 615 511 626 468 c 1,34,-1
 530 358 l 1,35,36
 561 346 561 346 588.5 330.5 c 128,-1,37
 616 315 616 315 637 294 c 128,-1,38
 658 273 658 273 670 245 c 128,-1,39
 682 217 682 217 682 180 c 0,40,41
 682 139 682 139 669 104 c 128,-1,42
 656 69 656 69 630 43.5 c 128,-1,43
 604 18 604 18 565 3 c 128,-1,44
 526 -12 526 -12 474 -12 c 0,0,1
EndSplineSet
Validated: 1
Substitution2: "'c2sc' Capitals to Small Capitals lookup 17 subtable" uni1E9E.sc
Substitution2: "'aalt' Access All Alternates lookup 0 subtable" uni1E9E.sc
EndChar

StartChar: uni0166
Encoding: 358 358 202
Width: 564
Flags: W
LayerCount: 2
Fore
SplineSet
196 0 m 1,0,-1
 196 274 l 1,1,-1
 80 274 l 1,2,-1
 80 348 l 1,3,-1
 176 354 l 1,4,-1
 196 354 l 1,5,-1
 196 506 l 1,6,-1
 24 506 l 1,7,-1
 24 650 l 1,8,-1
 540 650 l 1,9,-1
 540 506 l 1,10,-1
 368 506 l 1,11,-1
 368 354 l 1,12,-1
 484 354 l 1,13,-1
 484 274 l 1,14,-1
 368 274 l 1,15,-1
 368 0 l 1,16,-1
 196 0 l 1,0,-1
EndSplineSet
Validated: 1
Substitution2: "'c2sc' Capitals to Small Capitals lookup 17 subtable" uni0166.sc
Substitution2: "'aalt' Access All Alternates lookup 0 subtable" uni0166.sc
EndChar

StartChar: Uogonek
Encoding: 370 370 219
Width: 672
GlyphClass: 2
Flags: W
AnchorPoint: "Anchor-1" 336 672 basechar 0
LayerCount: 2
Fore
SplineSet
360 -228 m 0,0,1
 309 -228 309 -228 273.5 -202.5 c 128,-1,2
 238 -177 238 -177 238 -130 c 0,3,4
 238 -106 238 -106 246 -86 c 128,-1,5
 254 -66 254 -66 264.5 -50.5 c 128,-1,6
 275 -35 275 -35 286 -25 c 128,-1,7
 297 -15 297 -15 302 -10 c 1,8,9
 183 -1 183 -1 125.5 79 c 128,-1,10
 68 159 68 159 68 314 c 2,11,-1
 68 650 l 1,12,-1
 240 650 l 1,13,-1
 240 294 l 2,14,15
 240 207 240 207 263.5 171.5 c 128,-1,16
 287 136 287 136 338 136 c 256,17,18
 389 136 389 136 413.5 171.5 c 128,-1,19
 438 207 438 207 438 294 c 2,20,-1
 438 650 l 1,21,-1
 604 650 l 1,22,-1
 604 314 l 2,23,24
 604 243 604 243 594.5 193 c 128,-1,25
 585 143 585 143 564.5 106 c 128,-1,26
 544 69 544 69 511 43 c 128,-1,27
 478 17 478 17 430 -4 c 0,28,29
 393 -21 393 -21 377.5 -42.5 c 128,-1,30
 362 -64 362 -64 362 -84 c 0,31,32
 362 -102 362 -102 374.5 -110 c 128,-1,33
 387 -118 387 -118 402 -118 c 0,34,35
 411 -118 411 -118 420 -113.5 c 128,-1,36
 429 -109 429 -109 436 -104 c 1,37,-1
 474 -190 l 1,38,39
 453 -207 453 -207 421 -217.5 c 128,-1,40
 389 -228 389 -228 360 -228 c 0,0,1
EndSplineSet
Validated: 1
Substitution2: "'c2sc' Capitals to Small Capitals lookup 17 subtable" Uogonek.sc
Ligature2: "'ccmp' Glyph Composition/Decomposition lookup 11 subtable" U uni0328
Substitution2: "'aalt' Access All Alternates lookup 0 subtable" Uogonek.sc
EndChar

StartChar: Uhorn
Encoding: 431 431 220
Width: 692
GlyphClass: 2
Flags: W
AnchorPoint: "Anchor-4" 336 -22 basechar 0
AnchorPoint: "Anchor-1" 336 672 basechar 0
LayerCount: 2
Fore
SplineSet
338 -12 m 0,0,1
 201 -12 201 -12 134.5 67.5 c 128,-1,2
 68 147 68 147 68 314 c 2,3,-1
 68 650 l 1,4,-1
 240 650 l 1,5,-1
 240 294 l 2,6,7
 240 207 240 207 263.5 171.5 c 128,-1,8
 287 136 287 136 338 136 c 256,9,10
 389 136 389 136 413.5 171.5 c 128,-1,11
 438 207 438 207 438 294 c 2,12,-1
 438 650 l 1,13,-1
 522 650 l 2,14,15
 535 650 535 650 549 652 c 128,-1,16
 563 654 563 654 575 661.5 c 128,-1,17
 587 669 587 669 594.5 682.5 c 128,-1,18
 602 696 602 696 602 720 c 0,19,20
 602 741 602 741 596.5 759 c 128,-1,21
 591 777 591 777 586 788 c 1,22,-1
 712 838 l 1,23,24
 724 821 724 821 734 793 c 128,-1,25
 744 765 744 765 744 732 c 0,26,27
 744 669 744 669 708 635 c 128,-1,28
 672 601 672 601 604 589 c 1,29,-1
 604 314 l 2,30,31
 604 147 604 147 539 67.5 c 128,-1,32
 474 -12 474 -12 338 -12 c 0,0,1
EndSplineSet
Validated: 1
Substitution2: "'c2sc' Capitals to Small Capitals lookup 17 subtable" Uhorn.sc
Substitution2: "'aalt' Access All Alternates lookup 0 subtable" Uhorn.sc
EndChar

StartChar: Eth
Encoding: 208 208 243
Width: 668
Flags: W
LayerCount: 2
Fore
SplineSet
24 294 m 1,0,-1
 24 368 l 1,1,-1
 98 374 l 1,2,-1
 98 650 l 1,3,-1
 290 650 l 2,4,5
 364 650 364 650 425.5 632 c 128,-1,6
 487 614 487 614 531 575 c 128,-1,7
 575 536 575 536 599.5 475 c 128,-1,8
 624 414 624 414 624 328 c 256,9,10
 624 242 624 242 600 180 c 128,-1,11
 576 118 576 118 532.5 78 c 128,-1,12
 489 38 489 38 429.5 19 c 128,-1,13
 370 0 370 0 300 0 c 2,14,-1
 98 0 l 1,15,-1
 98 294 l 1,16,-1
 24 294 l 1,0,-1
270 138 m 1,17,-1
 280 138 l 2,18,19
 315 138 315 138 346 146.5 c 128,-1,20
 377 155 377 155 399.5 176 c 128,-1,21
 422 197 422 197 435 234 c 128,-1,22
 448 271 448 271 448 328 c 256,23,24
 448 385 448 385 435 421 c 128,-1,25
 422 457 422 457 399.5 477 c 128,-1,26
 377 497 377 497 346 504.5 c 128,-1,27
 315 512 315 512 280 512 c 2,28,-1
 270 512 l 1,29,-1
 270 374 l 1,30,-1
 386 374 l 1,31,-1
 386 294 l 1,32,-1
 270 294 l 1,33,-1
 270 138 l 1,17,-1
EndSplineSet
Validated: 1
Substitution2: "'c2sc' Capitals to Small Capitals lookup 17 subtable" Eth.sc
Substitution2: "'aalt' Access All Alternates lookup 0 subtable" Eth.sc
EndChar

StartChar: Thorn
Encoding: 222 222 244
Width: 630
Flags: W
LayerCount: 2
Fore
SplineSet
72 0 m 1,0,-1
 72 650 l 1,1,-1
 244 650 l 1,2,-1
 244 556 l 1,3,-1
 324 556 l 2,4,5
 376 556 376 556 423.5 545.5 c 128,-1,6
 471 535 471 535 506.5 509.5 c 128,-1,7
 542 484 542 484 563 442.5 c 128,-1,8
 584 401 584 401 584 340 c 0,9,10
 584 280 584 280 562.5 237 c 128,-1,11
 541 194 541 194 505 166.5 c 128,-1,12
 469 139 469 139 422 125.5 c 128,-1,13
 375 112 375 112 324 112 c 2,14,-1
 244 112 l 1,15,-1
 244 0 l 1,16,-1
 72 0 l 1,0,-1
244 248 m 1,17,-1
 316 248 l 2,18,19
 367 248 367 248 391.5 272 c 128,-1,20
 416 296 416 296 416 340 c 256,21,22
 416 384 416 384 390 402 c 128,-1,23
 364 420 364 420 316 420 c 2,24,-1
 244 420 l 1,25,-1
 244 248 l 1,17,-1
EndSplineSet
Validated: 1
Substitution2: "'c2sc' Capitals to Small Capitals lookup 17 subtable" Thorn.sc
Substitution2: "'aalt' Access All Alternates lookup 0 subtable" Thorn.sc
EndChar

StartChar: uni018F
Encoding: 399 399 245
Width: 682
GlyphClass: 2
Flags: W
AnchorPoint: "Anchor-4" 362 -22 basechar 0
AnchorPoint: "Anchor-1" 350 672 basechar 0
LayerCount: 2
Fore
SplineSet
340 -12 m 256,0,1
 273 -12 273 -12 219 9 c 128,-1,2
 165 30 165 30 127 72 c 128,-1,3
 89 114 89 114 68.5 176.5 c 128,-1,4
 48 239 48 239 48 322 c 0,5,6
 48 336 48 336 49 350.5 c 128,-1,7
 50 365 50 365 52 380 c 1,8,-1
 465 380 l 1,9,10
 456 455 456 455 420.5 488.5 c 128,-1,11
 385 522 385 522 322 522 c 0,12,13
 277 522 277 522 244.5 503.5 c 128,-1,14
 212 485 212 485 186 462 c 1,15,-1
 108 580 l 1,16,17
 149 616 149 616 206.5 639 c 128,-1,18
 264 662 264 662 344 662 c 0,19,20
 408 662 408 662 462 640.5 c 128,-1,21
 516 619 516 619 555 577 c 128,-1,22
 594 535 594 535 616 472 c 128,-1,23
 638 409 638 409 638 326 c 256,24,25
 638 243 638 243 616.5 179.5 c 128,-1,26
 595 116 595 116 556 73.5 c 128,-1,27
 517 31 517 31 462 9.5 c 128,-1,28
 407 -12 407 -12 340 -12 c 256,0,1
340 128 m 0,29,30
 387 128 387 128 419.5 157.5 c 128,-1,31
 452 187 452 187 463 256 c 1,32,-1
 224 256 l 1,33,34
 230 184 230 184 260 156 c 128,-1,35
 290 128 290 128 340 128 c 0,29,30
EndSplineSet
Validated: 1
Substitution2: "'c2sc' Capitals to Small Capitals lookup 17 subtable" uni018F.sc
Substitution2: "'aalt' Access All Alternates lookup 0 subtable" uni018F.sc
EndChar

StartChar: uni014A
Encoding: 330 330 246
Width: 678
GlyphClass: 2
Flags: W
AnchorPoint: "Anchor-1" 378 672 basechar 0
LayerCount: 2
Fore
SplineSet
414 -12 m 0,0,1
 390 -12 390 -12 362.5 -7.5 c 128,-1,2
 335 -3 335 -3 320 8 c 1,3,-1
 356 156 l 1,4,5
 364 153 364 153 373 150.5 c 128,-1,6
 382 148 382 148 394 148 c 0,7,8
 407 148 407 148 418.5 155 c 128,-1,9
 430 162 430 162 439 181.5 c 128,-1,10
 448 201 448 201 453 236.5 c 128,-1,11
 458 272 458 272 458 330 c 0,12,13
 458 429 458 429 432 471.5 c 128,-1,14
 406 514 406 514 358 514 c 0,15,16
 331 514 331 514 299 496 c 128,-1,17
 267 478 267 478 244 438 c 1,18,-1
 244 0 l 1,19,-1
 72 0 l 1,20,-1
 72 650 l 1,21,-1
 238 650 l 1,22,-1
 238 584 l 1,23,24
 276 625 276 625 319 643.5 c 128,-1,25
 362 662 362 662 411 662 c 0,26,27
 459 662 459 662 499.5 644 c 128,-1,28
 540 626 540 626 570 586.5 c 128,-1,29
 600 547 600 547 617 484 c 128,-1,30
 634 421 634 421 634 330 c 0,31,32
 634 161 634 161 582 74.5 c 128,-1,33
 530 -12 530 -12 414 -12 c 0,0,1
EndSplineSet
Validated: 1
Substitution2: "'c2sc' Capitals to Small Capitals lookup 17 subtable" uni014A.sc
Substitution2: "'salt' Stylistic Alternatives lookup 3 subtable" uni014A.a
AlternateSubs2: "'aalt' Access All Alternates lookup 1 subtable" uni014A.a uni014A.sc
EndChar

StartChar: uni0132
Encoding: 306 306 247
Width: 632
Flags: W
LayerCount: 2
Fore
SplineSet
72 0 m 1,0,-1
 72 650 l 1,1,-1
 244 650 l 1,2,-1
 244 0 l 1,3,-1
 72 0 l 1,0,-1
366 -188 m 0,4,5
 331 -188 331 -188 310 -184 c 128,-1,6
 289 -180 289 -180 272 -174 c 1,7,-1
 302 -48 l 1,8,9
 313 -51 313 -51 321 -52.5 c 128,-1,10
 329 -54 329 -54 338 -54 c 0,11,12
 365 -54 365 -54 376.5 -37.5 c 128,-1,13
 388 -21 388 -21 388 20 c 2,14,-1
 388 650 l 1,15,-1
 560 650 l 1,16,-1
 560 26 l 2,17,18
 560 -16 560 -16 551 -54.5 c 128,-1,19
 542 -93 542 -93 519.5 -123 c 128,-1,20
 497 -153 497 -153 459.5 -170.5 c 128,-1,21
 422 -188 422 -188 366 -188 c 0,4,5
EndSplineSet
Validated: 1
Substitution2: "'c2sc' Capitals to Small Capitals lookup 17 subtable" uni0132.sc
Substitution2: "'aalt' Access All Alternates lookup 0 subtable" uni0132.sc
EndChar

StartChar: aogonek
Encoding: 261 261 269
Width: 536
GlyphClass: 2
Flags: W
AnchorPoint: "Anchor-0" 285 522 basechar 0
LayerCount: 2
Fore
SplineSet
392 -212 m 0,0,1
 345 -212 345 -212 312.5 -188.5 c 128,-1,2
 280 -165 280 -165 280 -118 c 0,3,4
 280 -96 280 -96 287 -77 c 128,-1,5
 294 -58 294 -58 304.5 -43.5 c 128,-1,6
 315 -29 315 -29 325.5 -19 c 128,-1,7
 336 -9 336 -9 344 -4 c 1,8,-1
 330 48 l 1,9,-1
 326 48 l 1,10,11
 296 21 296 21 262.5 4.5 c 128,-1,12
 229 -12 229 -12 188 -12 c 0,13,14
 153 -12 153 -12 125 0.5 c 128,-1,15
 97 13 97 13 77.5 34 c 128,-1,16
 58 55 58 55 48 83 c 128,-1,17
 38 111 38 111 38 142 c 0,18,19
 38 220 38 220 102 264.5 c 128,-1,20
 166 309 166 309 310 324 c 1,21,22
 304 376 304 376 240 376 c 0,23,24
 213 376 213 376 183 365.5 c 128,-1,25
 153 355 153 355 114 334 c 1,26,-1
 54 446 l 1,27,28
 107 478 107 478 161 495 c 128,-1,29
 215 512 215 512 274 512 c 0,30,31
 371 512 371 512 426.5 456.5 c 128,-1,32
 482 401 482 401 482 278 c 2,33,-1
 482 0 l 1,34,35
 431 -12 431 -12 412.5 -34.5 c 128,-1,36
 394 -57 394 -57 394 -78 c 0,37,38
 394 -96 394 -96 406.5 -104 c 128,-1,39
 419 -112 419 -112 434 -112 c 0,40,41
 443 -112 443 -112 452.5 -108.5 c 128,-1,42
 462 -105 462 -105 468 -100 c 1,43,-1
 502 -176 l 1,44,45
 481 -193 481 -193 449.5 -202.5 c 128,-1,46
 418 -212 418 -212 392 -212 c 0,0,1
248 120 m 0,47,48
 269 120 269 120 282.5 129.5 c 128,-1,49
 296 139 296 139 310 154 c 1,50,-1
 310 222 l 1,51,52
 248 213 248 213 225 195 c 128,-1,53
 202 177 202 177 202 156 c 0,54,55
 202 120 202 120 248 120 c 0,47,48
EndSplineSet
Validated: 1
Substitution2: "'ss02' Style Set 2 lookup 39 subtable" aogonek.a
Substitution2: "'smcp' Lowercase to Small Capitals lookup 20 subtable" Aogonek.sc
Ligature2: "'ccmp' Glyph Composition/Decomposition lookup 11 subtable" a uni0328
AlternateSubs2: "'aalt' Access All Alternates lookup 1 subtable" Aogonek.sc aogonek.a
EndChar

StartChar: ae
Encoding: 230 230 270
Width: 786
GlyphClass: 2
Flags: W
AnchorPoint: "Anchor-4" 404 -22 basechar 0
AnchorPoint: "Anchor-0" 410 522 basechar 0
LayerCount: 2
Fore
SplineSet
192 -12 m 0,0,1
 157 -12 157 -12 129 0.5 c 128,-1,2
 101 13 101 13 81.5 34 c 128,-1,3
 62 55 62 55 52 83 c 128,-1,4
 42 111 42 111 42 142 c 0,5,6
 42 220 42 220 105 265 c 128,-1,7
 168 310 168 310 312 325 c 1,8,9
 309 351 309 351 293.5 363.5 c 128,-1,10
 278 376 278 376 244 376 c 0,11,12
 217 376 217 376 187 365.5 c 128,-1,13
 157 355 157 355 118 334 c 1,14,-1
 58 446 l 1,15,16
 111 478 111 478 162.5 495 c 128,-1,17
 214 512 214 512 268 512 c 0,18,19
 312 512 312 512 347 495 c 128,-1,20
 382 478 382 478 406 448 c 1,21,22
 439 480 439 480 472.5 496 c 128,-1,23
 506 512 506 512 548 512 c 0,24,25
 599 512 599 512 637 492.5 c 128,-1,26
 675 473 675 473 700 439.5 c 128,-1,27
 725 406 725 406 737.5 361 c 128,-1,28
 750 316 750 316 750 266 c 0,29,30
 750 243 750 243 747.5 225 c 128,-1,31
 745 207 745 207 743 198 c 1,32,-1
 468 198 l 1,33,34
 479 156 479 156 507.5 139 c 128,-1,35
 536 122 536 122 574 122 c 0,36,37
 600 122 600 122 623.5 131.5 c 128,-1,38
 647 141 647 141 674 156 c 1,39,-1
 732 46 l 1,40,41
 691 17 691 17 641.5 2.5 c 128,-1,42
 592 -12 592 -12 550 -12 c 0,43,44
 497 -12 497 -12 454.5 7 c 128,-1,45
 412 26 412 26 380 60 c 1,46,47
 353 39 353 39 329.5 25.5 c 128,-1,48
 306 12 306 12 284 3.5 c 128,-1,49
 262 -5 262 -5 239.5 -8.5 c 128,-1,50
 217 -12 217 -12 192 -12 c 0,0,1
252 120 m 0,51,52
 274 120 274 120 291.5 128 c 128,-1,53
 309 136 309 136 324 150 c 1,54,55
 315 177 315 177 312 203 c 2,56,-1
 310 222 l 1,57,58
 253 213 253 213 229.5 195.5 c 128,-1,59
 206 178 206 178 206 156 c 0,60,61
 206 120 206 120 252 120 c 0,51,52
468 302 m 1,62,-1
 604 302 l 1,63,64
 604 335 604 335 590.5 358.5 c 128,-1,65
 577 382 577 382 542 382 c 0,66,67
 513 382 513 382 493.5 364 c 128,-1,68
 474 346 474 346 468 302 c 1,62,-1
EndSplineSet
Validated: 1
Substitution2: "'smcp' Lowercase to Small Capitals lookup 20 subtable" AE.sc
Substitution2: "'aalt' Access All Alternates lookup 0 subtable" AE.sc
EndChar

StartChar: uni0180
Encoding: 384 384 273
Width: 582
Flags: W
LayerCount: 2
Fore
SplineSet
336 -12 m 0,0,1
 303 -12 303 -12 271 4.5 c 128,-1,2
 239 21 239 21 210 54 c 1,3,-1
 206 54 l 1,4,-1
 192 0 l 1,5,-1
 58 0 l 1,6,-1
 58 550 l 1,7,-1
 -8 550 l 1,8,-1
 -8 624 l 1,9,-1
 58 629 l 1,10,-1
 58 696 l 1,11,-1
 230 696 l 1,12,-1
 230 630 l 1,13,-1
 394 630 l 1,14,-1
 394 550 l 1,15,-1
 230 550 l 1,16,-1
 230 482 l 1,17,-1
 226 410 l 1,18,19
 252 434 252 434 284 447 c 128,-1,20
 316 460 316 460 349 460 c 0,21,22
 393 460 393 460 429 443.5 c 128,-1,23
 465 427 465 427 490.5 397.5 c 128,-1,24
 516 368 516 368 530 326.5 c 128,-1,25
 544 285 544 285 544 235 c 0,26,27
 544 178 544 178 526.5 132 c 128,-1,28
 509 86 509 86 480 54 c 128,-1,29
 451 22 451 22 413.5 5 c 128,-1,30
 376 -12 376 -12 336 -12 c 0,0,1
294 128 m 0,31,32
 324 128 324 128 346 153 c 128,-1,33
 368 178 368 178 368 232 c 0,34,35
 368 320 368 320 298 320 c 0,36,37
 278 320 278 320 262.5 312 c 128,-1,38
 247 304 247 304 230 284 c 1,39,-1
 230 152 l 1,40,41
 245 138 245 138 261 133 c 128,-1,42
 277 128 277 128 294 128 c 0,31,32
EndSplineSet
Validated: 1
Substitution2: "'smcp' Lowercase to Small Capitals lookup 20 subtable" uni0243.sc
Substitution2: "'aalt' Access All Alternates lookup 0 subtable" uni0243.sc
EndChar

StartChar: dcroat
Encoding: 273 273 283
Width: 580
Flags: W
LayerCount: 2
Fore
SplineSet
240 -12 m 0,0,1
 193 -12 193 -12 155.5 5 c 128,-1,2
 118 22 118 22 91.5 53.5 c 128,-1,3
 65 85 65 85 50.5 129 c 128,-1,4
 36 173 36 173 36 226 c 0,5,6
 36 278 36 278 53.5 321.5 c 128,-1,7
 71 365 71 365 99.5 395.5 c 128,-1,8
 128 426 128 426 165 443 c 128,-1,9
 202 460 202 460 240 460 c 0,10,11
 281 460 281 460 307 446.5 c 128,-1,12
 333 433 333 433 356 410 c 1,13,-1
 350 482 l 1,14,-1
 350 550 l 1,15,-1
 206 550 l 1,16,-1
 206 630 l 1,17,-1
 350 630 l 1,18,-1
 350 696 l 1,19,-1
 522 696 l 1,20,-1
 522 630 l 1,21,-1
 588 630 l 1,22,-1
 588 556 l 1,23,-1
 522 551 l 1,24,-1
 522 0 l 1,25,-1
 378 0 l 1,26,-1
 368 40 l 1,27,-1
 364 40 l 1,28,29
 339 16 339 16 307 2 c 128,-1,30
 275 -12 275 -12 240 -12 c 0,0,1
286 128 m 0,31,32
 306 128 306 128 321 135.5 c 128,-1,33
 336 143 336 143 350 164 c 1,34,-1
 350 296 l 1,35,36
 335 310 335 310 317 315 c 128,-1,37
 299 320 299 320 282 320 c 0,38,39
 255 320 255 320 233.5 298 c 128,-1,40
 212 276 212 276 212 228 c 0,41,42
 212 177 212 177 231.5 152.5 c 128,-1,43
 251 128 251 128 286 128 c 0,31,32
EndSplineSet
Validated: 1
Substitution2: "'smcp' Lowercase to Small Capitals lookup 20 subtable" Dcroat.sc
Substitution2: "'aalt' Access All Alternates lookup 0 subtable" Dcroat.sc
EndChar

StartChar: eogonek
Encoding: 281 281 300
Width: 526
GlyphClass: 2
Flags: W
AnchorPoint: "Anchor-0" 272 522 basechar 0
LayerCount: 2
Fore
SplineSet
364 -212 m 0,0,1
 317 -212 317 -212 285.5 -188.5 c 128,-1,2
 254 -165 254 -165 254 -118 c 0,3,4
 254 -82 254 -82 272 -54.5 c 128,-1,5
 290 -27 290 -27 308 -10 c 1,6,7
 300 -12 300 -12 296.5 -12 c 128,-1,8
 293 -12 293 -12 290 -12 c 0,9,10
 235 -12 235 -12 188 5.5 c 128,-1,11
 141 23 141 23 106.5 56.5 c 128,-1,12
 72 90 72 90 52 139 c 128,-1,13
 32 188 32 188 32 250 c 0,14,15
 32 311 32 311 52.5 359.5 c 128,-1,16
 73 408 73 408 106.5 442 c 128,-1,17
 140 476 140 476 183 494 c 128,-1,18
 226 512 226 512 272 512 c 0,19,20
 327 512 327 512 368 493 c 128,-1,21
 409 474 409 474 436 441 c 128,-1,22
 463 408 463 408 476.5 364 c 128,-1,23
 490 320 490 320 490 270 c 0,24,25
 490 247 490 247 487.5 227 c 128,-1,26
 485 207 485 207 483 198 c 1,27,-1
 198 198 l 1,28,29
 210 153 210 153 241 135.5 c 128,-1,30
 272 118 272 118 314 118 c 0,31,32
 340 118 340 118 364.5 125.5 c 128,-1,33
 389 133 389 133 416 148 c 1,34,-1
 472 46 l 1,35,36
 439 23 439 23 418.5 6.5 c 128,-1,37
 398 -10 398 -10 386 -24 c 128,-1,38
 374 -38 374 -38 370 -51 c 128,-1,39
 366 -64 366 -64 366 -78 c 0,40,41
 366 -95 366 -95 378 -103.5 c 128,-1,42
 390 -112 390 -112 407 -112 c 0,43,44
 416 -112 416 -112 424.5 -108.5 c 128,-1,45
 433 -105 433 -105 440 -100 c 1,46,-1
 474 -176 l 1,47,48
 453 -193 453 -193 421.5 -202.5 c 128,-1,49
 390 -212 390 -212 364 -212 c 0,0,1
196 310 m 1,50,-1
 344 310 l 1,51,52
 344 339 344 339 329.5 360.5 c 128,-1,53
 315 382 315 382 276 382 c 0,54,55
 247 382 247 382 225.5 365 c 128,-1,56
 204 348 204 348 196 310 c 1,50,-1
EndSplineSet
Validated: 1
Substitution2: "'smcp' Lowercase to Small Capitals lookup 20 subtable" Eogonek.sc
Ligature2: "'ccmp' Glyph Composition/Decomposition lookup 11 subtable" e uni0328
Substitution2: "'aalt' Access All Alternates lookup 0 subtable" Eogonek.sc
EndChar

StartChar: hbar
Encoding: 295 295 314
Width: 582
Flags: W
LayerCount: 2
Fore
SplineSet
58 0 m 1,0,-1
 58 550 l 1,1,-1
 -8 550 l 1,2,-1
 -8 624 l 1,3,-1
 58 629 l 1,4,-1
 58 696 l 1,5,-1
 230 696 l 1,6,-1
 230 630 l 1,7,-1
 394 630 l 1,8,-1
 394 550 l 1,9,-1
 230 550 l 1,10,-1
 230 482 l 1,11,-1
 222 396 l 1,12,13
 248 419 248 419 284.5 439.5 c 128,-1,14
 321 460 321 460 372 460 c 0,15,16
 454 460 454 460 491 404.5 c 128,-1,17
 528 349 528 349 528 256 c 2,18,-1
 528 0 l 1,19,-1
 356 0 l 1,20,-1
 356 234 l 2,21,22
 356 282 356 282 344 298 c 128,-1,23
 332 314 332 314 306 314 c 0,24,25
 282 314 282 314 266 304 c 128,-1,26
 250 294 250 294 230 276 c 1,27,-1
 230 0 l 1,28,-1
 58 0 l 1,0,-1
EndSplineSet
Validated: 1
Substitution2: "'smcp' Lowercase to Small Capitals lookup 20 subtable" Hbar.sc
Substitution2: "'aalt' Access All Alternates lookup 0 subtable" Hbar.sc
EndChar

StartChar: iogonek
Encoding: 303 303 324
Width: 288
GlyphClass: 3
Flags: W
LayerCount: 2
Fore
SplineSet
154 -212 m 0,0,1
 107 -212 107 -212 74.5 -188.5 c 128,-1,2
 42 -165 42 -165 42 -118 c 0,3,4
 42 -96 42 -96 49 -77 c 128,-1,5
 56 -58 56 -58 66 -43 c 128,-1,6
 76 -28 76 -28 87.5 -17 c 128,-1,7
 99 -6 99 -6 108 0 c 1,8,-1
 58 0 l 1,9,-1
 58 500 l 1,10,-1
 230 500 l 1,11,-1
 230 0 l 1,12,13
 186 -12 186 -12 171 -34.5 c 128,-1,14
 156 -57 156 -57 156 -78 c 0,15,16
 156 -95 156 -95 168 -103.5 c 128,-1,17
 180 -112 180 -112 197 -112 c 0,18,19
 205 -112 205 -112 213.5 -108.5 c 128,-1,20
 222 -105 222 -105 230 -100 c 1,21,-1
 264 -176 l 1,22,23
 243 -193 243 -193 211.5 -202.5 c 128,-1,24
 180 -212 180 -212 154 -212 c 0,0,1
144 562 m 256,25,26
 102 562 102 562 75 586 c 128,-1,27
 48 610 48 610 48 648 c 256,28,29
 48 686 48 686 75 710 c 128,-1,30
 102 734 102 734 144 734 c 256,31,32
 186 734 186 734 213 710 c 128,-1,33
 240 686 240 686 240 648 c 256,34,35
 240 610 240 610 213 586 c 128,-1,36
 186 562 186 562 144 562 c 256,25,26
EndSplineSet
Validated: 1
LCarets2: 1 0
Substitution2: "Single Substitution lookup 49 subtable" iogonek.d
Substitution2: "'smcp' Lowercase to Small Capitals lookup 20 subtable" Iogonek.sc
Ligature2: "'ccmp' Glyph Composition/Decomposition lookup 11 subtable" i uni0328
Substitution2: "'aalt' Access All Alternates lookup 0 subtable" Iogonek.sc
EndChar

StartChar: iogonek.d
Encoding: 1114115 -1 325
Width: 288
GlyphClass: 2
Flags: W
AnchorPoint: "Anchor-0" 144 522 basechar 0
LayerCount: 2
Fore
SplineSet
154 -212 m 0,0,1
 107 -212 107 -212 74.5 -188.5 c 128,-1,2
 42 -165 42 -165 42 -118 c 0,3,4
 42 -96 42 -96 49 -77 c 128,-1,5
 56 -58 56 -58 66 -43 c 128,-1,6
 76 -28 76 -28 87.5 -17 c 128,-1,7
 99 -6 99 -6 108 0 c 1,8,-1
 58 0 l 1,9,-1
 58 500 l 1,10,-1
 230 500 l 1,11,-1
 230 0 l 1,12,13
 186 -12 186 -12 171 -34.5 c 128,-1,14
 156 -57 156 -57 156 -78 c 0,15,16
 156 -95 156 -95 168 -103.5 c 128,-1,17
 180 -112 180 -112 197 -112 c 0,18,19
 205 -112 205 -112 213.5 -108.5 c 128,-1,20
 222 -105 222 -105 230 -100 c 1,21,-1
 264 -176 l 1,22,23
 243 -193 243 -193 211.5 -202.5 c 128,-1,24
 180 -212 180 -212 154 -212 c 0,0,1
EndSplineSet
Validated: 1
Ligature2: "Ligature Substitution lookup 48 subtable" i uni0328
Substitution2: "'smcp' Lowercase to Small Capitals lookup 20 subtable" Iogonek.sc
Substitution2: "'aalt' Access All Alternates lookup 0 subtable" Iogonek.sc
EndChar

StartChar: dotlessi
Encoding: 305 305 327
Width: 288
GlyphClass: 2
Flags: W
AnchorPoint: "Anchor-7" 190 0 basechar 0
AnchorPoint: "Anchor-4" 144 -22 basechar 0
AnchorPoint: "Anchor-0" 144 522 basechar 0
LayerCount: 2
Fore
SplineSet
58 0 m 1,0,-1
 58 500 l 1,1,-1
 230 500 l 1,2,-1
 230 0 l 1,3,-1
 58 0 l 1,0,-1
EndSplineSet
Validated: 1
EndChar

StartChar: kgreenlandic
Encoding: 312 312 332
Width: 568
Flags: W
LayerCount: 2
Fore
SplineSet
58 0 m 1,0,-1
 58 500 l 1,1,-1
 230 500 l 1,2,-1
 230 322 l 1,3,-1
 234 322 l 1,4,-1
 368 500 l 1,5,-1
 554 500 l 1,6,-1
 380 292 l 1,7,-1
 564 0 l 1,8,-1
 378 0 l 1,9,-1
 278 172 l 1,10,-1
 230 114 l 1,11,-1
 230 0 l 1,12,-1
 58 0 l 1,0,-1
EndSplineSet
Validated: 1
EndChar

StartChar: lslash
Encoding: 322 322 340
Width: 318
Flags: W
LayerCount: 2
Fore
SplineSet
224 -12 m 0,0,1
 180 -12 180 -12 150.5 1.5 c 128,-1,2
 121 15 121 15 103 40 c 128,-1,3
 85 65 85 65 77.5 99.5 c 128,-1,4
 70 134 70 134 70 176 c 2,5,-1
 70 255 l 1,6,-1
 30 232 l 1,7,-1
 -28 338 l 1,8,-1
 70 392 l 1,9,-1
 70 696 l 1,10,-1
 242 696 l 1,11,-1
 242 474 l 1,12,-1
 288 500 l 1,13,-1
 346 394 l 1,14,-1
 242 338 l 1,15,-1
 242 170 l 2,16,17
 242 144 242 144 251.5 135 c 128,-1,18
 261 126 261 126 270 126 c 0,19,20
 275 126 275 126 278.5 126 c 128,-1,21
 282 126 282 126 288 128 c 1,22,-1
 308 2 l 1,23,24
 294 -4 294 -4 273.5 -8 c 128,-1,25
 253 -12 253 -12 224 -12 c 0,0,1
EndSplineSet
Validated: 1
Substitution2: "'ss01' Style Set 1 lookup 36 subtable" lslash.a
Substitution2: "'smcp' Lowercase to Small Capitals lookup 20 subtable" Lslash.sc
AlternateSubs2: "'aalt' Access All Alternates lookup 1 subtable" Lslash.sc lslash.a
EndChar

StartChar: oslash
Encoding: 248 248 370
Width: 560
GlyphClass: 2
Flags: W
AnchorPoint: "Anchor-0" 280 522 basechar 0
LayerCount: 2
Fore
SplineSet
280 -12 m 0,0,1
 209 -12 209 -12 149 25 c 1,2,-1
 108 -26 l 1,3,-1
 46 22 l 1,4,-1
 90 77 l 1,5,6
 63 109 63 109 47.5 152.5 c 128,-1,7
 32 196 32 196 32 250 c 0,8,9
 32 312 32 312 52.5 361 c 128,-1,10
 73 410 73 410 107.5 443.5 c 128,-1,11
 142 477 142 477 187 494.5 c 128,-1,12
 232 512 232 512 280 512 c 0,13,14
 351 512 351 512 410 476 c 1,15,-1
 452 528 l 1,16,-1
 514 480 l 1,17,-1
 469 424 l 1,18,19
 496 392 496 392 512 348 c 128,-1,20
 528 304 528 304 528 250 c 0,21,22
 528 188 528 188 507 139 c 128,-1,23
 486 90 486 90 451.5 56.5 c 128,-1,24
 417 23 417 23 372.5 5.5 c 128,-1,25
 328 -12 328 -12 280 -12 c 0,0,1
198 260 m 0,26,27
 198 247 198 247 198.5 236 c 128,-1,28
 199 225 199 225 200 215 c 1,29,-1
 323 367 l 1,30,31
 306 380 306 380 280 380 c 0,32,33
 241 380 241 380 219.5 347 c 128,-1,34
 198 314 198 314 198 260 c 0,26,27
280 120 m 0,35,36
 319 120 319 120 340.5 153 c 128,-1,37
 362 186 362 186 362 240 c 0,38,39
 362 266 362 266 359 287 c 1,40,-1
 236 134 l 1,41,42
 253 120 253 120 280 120 c 0,35,36
EndSplineSet
Validated: 1
Substitution2: "'smcp' Lowercase to Small Capitals lookup 20 subtable" Oslash.sc
Substitution2: "'aalt' Access All Alternates lookup 0 subtable" Oslash.sc
EndChar

StartChar: oe
Encoding: 339 339 371
Width: 816
GlyphClass: 2
Flags: W
AnchorPoint: "Anchor-0" 420 522 basechar 0
LayerCount: 2
Fore
SplineSet
268 -12 m 0,0,1
 219 -12 219 -12 176 5.5 c 128,-1,2
 133 23 133 23 101 56.5 c 128,-1,3
 69 90 69 90 50.5 139 c 128,-1,4
 32 188 32 188 32 250 c 256,5,6
 32 312 32 312 51 361 c 128,-1,7
 70 410 70 410 103 443.5 c 128,-1,8
 136 477 136 477 179.5 494.5 c 128,-1,9
 223 512 223 512 272 512 c 0,10,11
 323 512 323 512 360 491.5 c 128,-1,12
 397 471 397 471 426 438 c 1,13,14
 458 474 458 474 497 493 c 128,-1,15
 536 512 536 512 578 512 c 0,16,17
 629 512 629 512 667 492.5 c 128,-1,18
 705 473 705 473 730 439.5 c 128,-1,19
 755 406 755 406 767.5 361 c 128,-1,20
 780 316 780 316 780 266 c 0,21,22
 780 243 780 243 777.5 225 c 128,-1,23
 775 207 775 207 773 198 c 1,24,-1
 498 198 l 1,25,26
 509 156 509 156 537.5 139 c 128,-1,27
 566 122 566 122 604 122 c 0,28,29
 630 122 630 122 653.5 131.5 c 128,-1,30
 677 141 677 141 704 156 c 1,31,-1
 762 46 l 1,32,33
 721 17 721 17 671.5 2.5 c 128,-1,34
 622 -12 622 -12 580 -12 c 0,35,36
 539 -12 539 -12 499.5 7 c 128,-1,37
 460 26 460 26 428 62 c 1,38,39
 396 26 396 26 358.5 7 c 128,-1,40
 321 -12 321 -12 268 -12 c 0,0,1
272 126 m 256,41,42
 305 126 305 126 322.5 159.5 c 128,-1,43
 340 193 340 193 340 250 c 256,44,45
 340 307 340 307 322.5 340.5 c 128,-1,46
 305 374 305 374 272 374 c 256,47,48
 239 374 239 374 222.5 340.5 c 128,-1,49
 206 307 206 307 206 250 c 256,50,51
 206 193 206 193 222.5 159.5 c 128,-1,52
 239 126 239 126 272 126 c 256,41,42
498 302 m 1,53,-1
 634 302 l 1,54,55
 634 335 634 335 620.5 358.5 c 128,-1,56
 607 382 607 382 572 382 c 0,57,58
 543 382 543 382 523.5 364 c 128,-1,59
 504 346 504 346 498 302 c 1,53,-1
EndSplineSet
Validated: 1
Substitution2: "'smcp' Lowercase to Small Capitals lookup 20 subtable" OE.sc
Substitution2: "'aalt' Access All Alternates lookup 0 subtable" OE.sc
EndChar

StartChar: ohorn
Encoding: 417 417 372
Width: 560
GlyphClass: 2
Flags: W
AnchorPoint: "Anchor-4" 280 -22 basechar 0
AnchorPoint: "Anchor-0" 280 522 basechar 0
LayerCount: 2
Fore
SplineSet
280 -12 m 256,0,1
 232 -12 232 -12 187 5.5 c 128,-1,2
 142 23 142 23 107.5 56.5 c 128,-1,3
 73 90 73 90 52.5 139 c 128,-1,4
 32 188 32 188 32 250 c 256,5,6
 32 312 32 312 52.5 361 c 128,-1,7
 73 410 73 410 107.5 443.5 c 128,-1,8
 142 477 142 477 187 494.5 c 128,-1,9
 232 512 232 512 280 512 c 0,10,11
 332 512 332 512 378 492 c 1,12,13
 404 500 404 500 421 519 c 128,-1,14
 438 538 438 538 438 580 c 0,15,16
 438 598 438 598 433 613 c 128,-1,17
 428 628 428 628 422 638 c 1,18,-1
 548 692 l 1,19,20
 560 677 560 677 570 649.5 c 128,-1,21
 580 622 580 622 580 592 c 0,22,23
 580 531 580 531 545.5 493 c 128,-1,24
 511 455 511 455 457 438 c 1,25,26
 489 405 489 405 508.5 357.5 c 128,-1,27
 528 310 528 310 528 250 c 0,28,29
 528 188 528 188 507 139 c 128,-1,30
 486 90 486 90 451.5 56.5 c 128,-1,31
 417 23 417 23 372.5 5.5 c 128,-1,32
 328 -12 328 -12 280 -12 c 256,0,1
280 126 m 256,33,34
 319 126 319 126 335.5 159.5 c 128,-1,35
 352 193 352 193 352 250 c 256,36,37
 352 307 352 307 335.5 340.5 c 128,-1,38
 319 374 319 374 280 374 c 256,39,40
 241 374 241 374 224.5 340.5 c 128,-1,41
 208 307 208 307 208 250 c 256,42,43
 208 193 208 193 224.5 159.5 c 128,-1,44
 241 126 241 126 280 126 c 256,33,34
EndSplineSet
Validated: 1
Substitution2: "'smcp' Lowercase to Small Capitals lookup 20 subtable" Ohorn.sc
Substitution2: "'aalt' Access All Alternates lookup 0 subtable" Ohorn.sc
EndChar

StartChar: uni01EB
Encoding: 491 491 378
Width: 560
GlyphClass: 2
Flags: W
AnchorPoint: "Anchor-0" 280 522 basechar 0
LayerCount: 2
Fore
SplineSet
298 -212 m 0,0,1
 251 -212 251 -212 218.5 -188.5 c 128,-1,2
 186 -165 186 -165 186 -118 c 0,3,4
 186 -80 186 -80 204.5 -52.5 c 128,-1,5
 223 -25 223 -25 241 -9 c 1,6,7
 199 -3 199 -3 161 17.5 c 128,-1,8
 123 38 123 38 94.5 71 c 128,-1,9
 66 104 66 104 49 149 c 128,-1,10
 32 194 32 194 32 250 c 0,11,12
 32 312 32 312 52.5 361 c 128,-1,13
 73 410 73 410 107.5 443.5 c 128,-1,14
 142 477 142 477 187 494.5 c 128,-1,15
 232 512 232 512 280 512 c 256,16,17
 328 512 328 512 372.5 494.5 c 128,-1,18
 417 477 417 477 451.5 443.5 c 128,-1,19
 486 410 486 410 507 361 c 128,-1,20
 528 312 528 312 528 250 c 0,21,22
 528 201 528 201 516 162.5 c 128,-1,23
 504 124 504 124 482.5 94 c 128,-1,24
 461 64 461 64 431 41.5 c 128,-1,25
 401 19 401 19 364 2 c 256,26,27
 327 -15 327 -15 313.5 -36.5 c 128,-1,28
 300 -58 300 -58 300 -78 c 0,29,30
 300 -96 300 -96 312.5 -104 c 128,-1,31
 325 -112 325 -112 340 -112 c 0,32,33
 349 -112 349 -112 358 -108.5 c 128,-1,34
 367 -105 367 -105 374 -100 c 1,35,-1
 408 -176 l 1,36,37
 387 -193 387 -193 355.5 -202.5 c 128,-1,38
 324 -212 324 -212 298 -212 c 0,0,1
280 126 m 256,39,40
 319 126 319 126 335.5 159.5 c 128,-1,41
 352 193 352 193 352 250 c 256,42,43
 352 307 352 307 335.5 340.5 c 128,-1,44
 319 374 319 374 280 374 c 256,45,46
 241 374 241 374 224.5 340.5 c 128,-1,47
 208 307 208 307 208 250 c 256,48,49
 208 193 208 193 224.5 159.5 c 128,-1,50
 241 126 241 126 280 126 c 256,39,40
EndSplineSet
Validated: 1
Substitution2: "'smcp' Lowercase to Small Capitals lookup 20 subtable" uni01EA.sc
Ligature2: "'ccmp' Glyph Composition/Decomposition lookup 11 subtable" o uni0328
Substitution2: "'aalt' Access All Alternates lookup 0 subtable" uni01EA.sc
EndChar

StartChar: germandbls
Encoding: 223 223 393
Width: 654
Flags: W
LayerCount: 2
Fore
SplineSet
434 -12 m 0,0,1
 389 -12 389 -12 353.5 -0.5 c 128,-1,2
 318 11 318 11 280 32 c 1,3,-1
 338 148 l 1,4,5
 362 130 362 130 384.5 122 c 128,-1,6
 407 114 407 114 428 114 c 0,7,8
 448 114 448 114 460 123.5 c 128,-1,9
 472 133 472 133 472 150 c 0,10,11
 472 165 472 165 459.5 176.5 c 128,-1,12
 447 188 447 188 428.5 198.5 c 128,-1,13
 410 209 410 209 388 221.5 c 128,-1,14
 366 234 366 234 347.5 250.5 c 128,-1,15
 329 267 329 267 316.5 289.5 c 128,-1,16
 304 312 304 312 304 344 c 0,17,18
 304 371 304 371 314 391 c 128,-1,19
 324 411 324 411 336 429 c 128,-1,20
 348 447 348 447 358 466.5 c 128,-1,21
 368 486 368 486 368 512 c 256,22,23
 368 538 368 538 353.5 555 c 128,-1,24
 339 572 339 572 312 572 c 0,25,26
 269 572 269 572 248.5 540.5 c 128,-1,27
 228 509 228 509 228 458 c 2,28,-1
 228 0 l 1,29,-1
 58 0 l 1,30,-1
 58 476 l 2,31,32
 58 525 58 525 73 567 c 128,-1,33
 88 609 88 609 119.5 640 c 128,-1,34
 151 671 151 671 198.5 688.5 c 128,-1,35
 246 706 246 706 312 706 c 0,36,37
 367 706 367 706 408.5 691 c 128,-1,38
 450 676 450 676 477.5 652 c 128,-1,39
 505 628 505 628 518.5 596.5 c 128,-1,40
 532 565 532 565 532 532 c 0,41,42
 532 497 532 497 520.5 472.5 c 128,-1,43
 509 448 509 448 495.5 430 c 128,-1,44
 482 412 482 412 471 397 c 128,-1,45
 460 382 460 382 460 366 c 0,46,47
 460 352 460 352 472.5 342 c 128,-1,48
 485 332 485 332 503.5 321.5 c 128,-1,49
 522 311 522 311 544 298 c 128,-1,50
 566 285 566 285 584.5 266.5 c 128,-1,51
 603 248 603 248 615.5 221.5 c 128,-1,52
 628 195 628 195 628 158 c 0,53,54
 628 123 628 123 616 92 c 128,-1,55
 604 61 604 61 580 38 c 128,-1,56
 556 15 556 15 519.5 1.5 c 128,-1,57
 483 -12 483 -12 434 -12 c 0,0,1
EndSplineSet
Validated: 1
Substitution2: "'smcp' Lowercase to Small Capitals lookup 20 subtable" uni1E9E.sc
Substitution2: "'aalt' Access All Alternates lookup 0 subtable" uni1E9E.sc
EndChar

StartChar: uni0167
Encoding: 359 359 400
Width: 400
Flags: W
LayerCount: 2
Fore
SplineSet
14 220 m 1,0,-1
 14 294 l 1,1,-1
 80 299 l 1,2,-1
 80 366 l 1,3,-1
 14 366 l 1,4,-1
 14 494 l 1,5,-1
 90 500 l 1,6,-1
 110 630 l 1,7,-1
 252 630 l 1,8,-1
 252 500 l 1,9,-1
 366 500 l 1,10,-1
 366 366 l 1,11,-1
 252 366 l 1,12,-1
 252 300 l 1,13,-1
 366 300 l 1,14,-1
 366 220 l 1,15,-1
 252 220 l 1,16,-1
 252 195 l 2,17,18
 252 153 252 153 270 137.5 c 128,-1,19
 288 122 288 122 312 122 c 0,20,21
 324 122 324 122 335.5 124.5 c 128,-1,22
 347 127 347 127 356 130 c 1,23,-1
 382 6 l 1,24,25
 362 0 362 0 334 -6 c 128,-1,26
 306 -12 306 -12 264 -12 c 0,27,28
 215 -12 215 -12 180.5 2.5 c 128,-1,29
 146 17 146 17 123.5 44 c 128,-1,30
 101 71 101 71 90.5 108.5 c 128,-1,31
 80 146 80 146 80 192 c 2,32,-1
 80 220 l 1,33,-1
 14 220 l 1,0,-1
EndSplineSet
Validated: 1
Substitution2: "'smcp' Lowercase to Small Capitals lookup 20 subtable" uni0166.sc
Substitution2: "'aalt' Access All Alternates lookup 0 subtable" uni0166.sc
EndChar

StartChar: uogonek
Encoding: 371 371 417
Width: 578
GlyphClass: 2
Flags: W
AnchorPoint: "Anchor-0" 278 502 basechar 0
LayerCount: 2
Fore
SplineSet
430 -212 m 0,0,1
 383 -212 383 -212 350.5 -188.5 c 128,-1,2
 318 -165 318 -165 318 -118 c 0,3,4
 318 -96 318 -96 325 -77 c 128,-1,5
 332 -58 332 -58 342.5 -43.5 c 128,-1,6
 353 -29 353 -29 363.5 -19 c 128,-1,7
 374 -9 374 -9 382 -4 c 1,8,-1
 368 66 l 1,9,-1
 364 66 l 1,10,11
 334 30 334 30 297.5 9 c 128,-1,12
 261 -12 261 -12 210 -12 c 0,13,14
 169 -12 169 -12 139.5 2.5 c 128,-1,15
 110 17 110 17 91 43.5 c 128,-1,16
 72 70 72 70 63 107.5 c 128,-1,17
 54 145 54 145 54 192 c 2,18,-1
 54 500 l 1,19,-1
 226 500 l 1,20,-1
 226 214 l 2,21,22
 226 166 226 166 238 150 c 128,-1,23
 250 134 250 134 276 134 c 0,24,25
 300 134 300 134 315.5 144 c 128,-1,26
 331 154 331 154 348 178 c 1,27,-1
 348 500 l 1,28,-1
 520 500 l 1,29,-1
 520 0 l 1,30,31
 469 -12 469 -12 450.5 -34.5 c 128,-1,32
 432 -57 432 -57 432 -78 c 0,33,34
 432 -95 432 -95 444.5 -103.5 c 128,-1,35
 457 -112 457 -112 472 -112 c 0,36,37
 481 -112 481 -112 490.5 -108.5 c 128,-1,38
 500 -105 500 -105 506 -100 c 1,39,-1
 540 -176 l 1,40,41
 519 -193 519 -193 487.5 -202.5 c 128,-1,42
 456 -212 456 -212 430 -212 c 0,0,1
EndSplineSet
Validated: 1
Substitution2: "'smcp' Lowercase to Small Capitals lookup 20 subtable" Uogonek.sc
Ligature2: "'ccmp' Glyph Composition/Decomposition lookup 11 subtable" u uni0328
Substitution2: "'aalt' Access All Alternates lookup 0 subtable" Uogonek.sc
EndChar

StartChar: uhorn
Encoding: 432 432 418
Width: 578
GlyphClass: 2
Flags: W
AnchorPoint: "Anchor-4" 304 -22 basechar 0
AnchorPoint: "Anchor-0" 286 522 basechar 0
LayerCount: 2
Fore
SplineSet
210 -12 m 0,0,1
 169 -12 169 -12 139.5 2.5 c 128,-1,2
 110 17 110 17 91 43.5 c 128,-1,3
 72 70 72 70 63 107.5 c 128,-1,4
 54 145 54 145 54 192 c 2,5,-1
 54 500 l 1,6,-1
 226 500 l 1,7,-1
 226 214 l 2,8,9
 226 166 226 166 238 150 c 128,-1,10
 250 134 250 134 276 134 c 0,11,12
 300 134 300 134 315.5 144 c 128,-1,13
 331 154 331 154 348 178 c 1,14,-1
 348 500 l 1,15,-1
 404 500 l 2,16,17
 417 500 417 500 431 502.5 c 128,-1,18
 445 505 445 505 457 514.5 c 128,-1,19
 469 524 469 524 476.5 542 c 128,-1,20
 484 560 484 560 484 590 c 0,21,22
 484 608 484 608 478.5 623 c 128,-1,23
 473 638 473 638 468 648 c 1,24,-1
 594 702 l 1,25,26
 606 687 606 687 616 659.5 c 128,-1,27
 626 632 626 632 626 602 c 0,28,29
 626 541 626 541 595.5 502.5 c 128,-1,30
 565 464 565 464 520 449 c 1,31,-1
 520 0 l 1,32,-1
 380 0 l 1,33,-1
 368 66 l 1,34,-1
 364 66 l 1,35,36
 334 30 334 30 297.5 9 c 128,-1,37
 261 -12 261 -12 210 -12 c 0,0,1
EndSplineSet
Validated: 1
Substitution2: "'smcp' Lowercase to Small Capitals lookup 20 subtable" Uhorn.sc
Substitution2: "'aalt' Access All Alternates lookup 0 subtable" Uhorn.sc
EndChar

StartChar: eth
Encoding: 240 240 441
Width: 566
Flags: W
LayerCount: 2
Fore
SplineSet
274 -12 m 0,0,1
 226 -12 226 -12 183 5 c 128,-1,2
 140 22 140 22 108 53.5 c 128,-1,3
 76 85 76 85 57 129.5 c 128,-1,4
 38 174 38 174 38 230 c 0,5,6
 38 285 38 285 55.5 327.5 c 128,-1,7
 73 370 73 370 101.5 399 c 128,-1,8
 130 428 130 428 166 443 c 128,-1,9
 202 458 202 458 240 458 c 0,10,11
 264 458 264 458 288.5 451 c 128,-1,12
 313 444 313 444 332 427 c 1,13,14
 307 488 307 488 258 536 c 1,15,-1
 116 465 l 1,16,-1
 72 539 l 1,17,-1
 183 595 l 1,18,19
 165 606 165 606 145 617.5 c 128,-1,20
 125 629 125 629 103 640 c 1,21,-1
 177 744 l 1,22,23
 212 726 212 726 247 705.5 c 128,-1,24
 282 685 282 685 315 661 c 1,25,-1
 458 733 l 1,26,-1
 502 658 l 1,27,-1
 386 600 l 1,28,29
 446 540 446 540 483 459.5 c 128,-1,30
 520 379 520 379 520 270 c 0,31,32
 520 209 520 209 503 157.5 c 128,-1,33
 486 106 486 106 454.5 68.5 c 128,-1,34
 423 31 423 31 377.5 9.5 c 128,-1,35
 332 -12 332 -12 274 -12 c 0,0,1
280 126 m 0,36,37
 296 126 296 126 311 133 c 128,-1,38
 326 140 326 140 336.5 156 c 128,-1,39
 347 172 347 172 353.5 197.5 c 128,-1,40
 360 223 360 223 360 260 c 0,41,42
 360 271 360 271 360 280.5 c 128,-1,43
 360 290 360 290 359 299 c 1,44,45
 341 317 341 317 320.5 324.5 c 128,-1,46
 300 332 300 332 277 332 c 0,47,48
 242 332 242 332 218 309 c 128,-1,49
 194 286 194 286 194 230 c 0,50,51
 194 177 194 177 219.5 151.5 c 128,-1,52
 245 126 245 126 280 126 c 0,36,37
EndSplineSet
Validated: 1
Substitution2: "'smcp' Lowercase to Small Capitals lookup 20 subtable" Eth.sc
Substitution2: "'aalt' Access All Alternates lookup 0 subtable" Eth.sc
EndChar

StartChar: thorn
Encoding: 254 254 442
Width: 580
GlyphClass: 2
Flags: W
AnchorPoint: "Anchor-4" 297 -22 basechar 0
AnchorPoint: "Anchor-0" 146 730 basechar 0
LayerCount: 2
Fore
SplineSet
58 -176 m 1,0,-1
 58 696 l 1,1,-1
 230 696 l 1,2,-1
 230 533 l 1,3,-1
 226 468 l 1,4,5
 249 489 249 489 278.5 500.5 c 128,-1,6
 308 512 308 512 340 512 c 0,7,8
 386 512 386 512 424 494 c 128,-1,9
 462 476 462 476 488.5 443 c 128,-1,10
 515 410 515 410 529.5 363 c 128,-1,11
 544 316 544 316 544 258 c 0,12,13
 544 193 544 193 526.5 143 c 128,-1,14
 509 93 509 93 480 58.5 c 128,-1,15
 451 24 451 24 413.5 6 c 128,-1,16
 376 -12 376 -12 336 -12 c 0,17,18
 300 -12 300 -12 274.5 -0.5 c 128,-1,19
 249 11 249 11 226 32 c 1,20,-1
 230 -38 l 1,21,-1
 230 -176 l 1,22,-1
 58 -176 l 1,0,-1
294 128 m 0,23,24
 324 128 324 128 346 156 c 128,-1,25
 368 184 368 184 368 256 c 0,26,27
 368 318 368 318 350.5 345 c 128,-1,28
 333 372 333 372 298 372 c 0,29,30
 278 372 278 372 262.5 364 c 128,-1,31
 247 356 247 356 230 336 c 1,32,-1
 230 152 l 1,33,34
 245 138 245 138 261 133 c 128,-1,35
 277 128 277 128 294 128 c 0,23,24
EndSplineSet
Validated: 1
Substitution2: "'smcp' Lowercase to Small Capitals lookup 20 subtable" Thorn.sc
Substitution2: "'aalt' Access All Alternates lookup 0 subtable" Thorn.sc
EndChar

StartChar: uni014B
Encoding: 331 331 443
Width: 582
GlyphClass: 2
Flags: W
AnchorPoint: "Anchor-0" 314 522 basechar 0
LayerCount: 2
Fore
SplineSet
334 -188 m 0,0,1
 299 -188 299 -188 278 -184 c 128,-1,2
 257 -180 257 -180 240 -174 c 1,3,-1
 270 -48 l 1,4,5
 281 -51 281 -51 289 -52.5 c 128,-1,6
 297 -54 297 -54 306 -54 c 0,7,8
 333 -54 333 -54 344.5 -37.5 c 128,-1,9
 356 -21 356 -21 356 20 c 2,10,-1
 356 286 l 2,11,12
 356 334 356 334 344 350 c 128,-1,13
 332 366 332 366 306 366 c 0,14,15
 282 366 282 366 266 356 c 128,-1,16
 250 346 250 346 230 328 c 1,17,-1
 230 0 l 1,18,-1
 58 0 l 1,19,-1
 58 500 l 1,20,-1
 198 500 l 1,21,-1
 210 440 l 1,22,-1
 214 440 l 1,23,24
 244 469 244 469 282.5 490.5 c 128,-1,25
 321 512 321 512 372 512 c 0,26,27
 454 512 454 512 491 456.5 c 128,-1,28
 528 401 528 401 528 308 c 2,29,-1
 528 26 l 2,30,31
 528 -16 528 -16 519 -54.5 c 128,-1,32
 510 -93 510 -93 487.5 -123 c 128,-1,33
 465 -153 465 -153 427.5 -170.5 c 128,-1,34
 390 -188 390 -188 334 -188 c 0,0,1
EndSplineSet
Validated: 1
Substitution2: "'smcp' Lowercase to Small Capitals lookup 20 subtable" uni014A.sc
Substitution2: "'aalt' Access All Alternates lookup 0 subtable" uni014A.sc
EndChar

StartChar: uni0237
Encoding: 567 567 444
Width: 290
GlyphClass: 2
Flags: W
AnchorPoint: "Anchor-0" 146 522 basechar 0
LayerCount: 2
Fore
SplineSet
38 -188 m 0,0,1
 3 -188 3 -188 -18 -184 c 128,-1,2
 -39 -180 -39 -180 -56 -174 c 1,3,-1
 -26 -48 l 1,4,5
 -15 -51 -15 -51 -7 -52.5 c 128,-1,6
 1 -54 1 -54 10 -54 c 0,7,8
 37 -54 37 -54 48.5 -37.5 c 128,-1,9
 60 -21 60 -21 60 20 c 2,10,-1
 60 500 l 1,11,-1
 232 500 l 1,12,-1
 232 26 l 2,13,14
 232 -16 232 -16 223 -54.5 c 128,-1,15
 214 -93 214 -93 191.5 -123 c 128,-1,16
 169 -153 169 -153 131.5 -170.5 c 128,-1,17
 94 -188 94 -188 38 -188 c 0,0,1
EndSplineSet
Validated: 1
EndChar

StartChar: uni0133
Encoding: 307 307 445
Width: 578
Flags: W
LayerCount: 2
Fore
SplineSet
58 0 m 1,0,-1
 58 500 l 1,1,-1
 230 500 l 1,2,-1
 230 0 l 1,3,-1
 58 0 l 1,0,-1
144 562 m 256,4,5
 102 562 102 562 75 586 c 128,-1,6
 48 610 48 610 48 648 c 256,7,8
 48 686 48 686 75 710 c 128,-1,9
 102 734 102 734 144 734 c 256,10,11
 186 734 186 734 213 710 c 128,-1,12
 240 686 240 686 240 648 c 256,13,14
 240 610 240 610 213 586 c 128,-1,15
 186 562 186 562 144 562 c 256,4,5
326 -188 m 0,16,17
 291 -188 291 -188 270 -184 c 128,-1,18
 249 -180 249 -180 232 -174 c 1,19,-1
 262 -48 l 1,20,21
 273 -51 273 -51 281 -52.5 c 128,-1,22
 289 -54 289 -54 298 -54 c 0,23,24
 325 -54 325 -54 336.5 -37.5 c 128,-1,25
 348 -21 348 -21 348 20 c 2,26,-1
 348 500 l 1,27,-1
 520 500 l 1,28,-1
 520 26 l 2,29,30
 520 -16 520 -16 511 -54.5 c 128,-1,31
 502 -93 502 -93 479.5 -123 c 128,-1,32
 457 -153 457 -153 419.5 -170.5 c 128,-1,33
 382 -188 382 -188 326 -188 c 0,16,17
434 562 m 256,34,35
 392 562 392 562 365 586 c 128,-1,36
 338 610 338 610 338 648 c 256,37,38
 338 686 338 686 365 710 c 128,-1,39
 392 734 392 734 434 734 c 256,40,41
 476 734 476 734 503 710 c 128,-1,42
 530 686 530 686 530 648 c 256,43,44
 530 610 530 610 503 586 c 128,-1,45
 476 562 476 562 434 562 c 256,34,35
EndSplineSet
Validated: 1
Substitution2: "'smcp' Lowercase to Small Capitals lookup 20 subtable" uni0132.sc
Substitution2: "'aalt' Access All Alternates lookup 0 subtable" uni0132.sc
EndChar

StartChar: uni0250
Encoding: 592 592 446
Width: 542
GlyphClass: 2
Flags: W
AnchorPoint: "Anchor-7" 360 0 basechar 0
AnchorPoint: "Anchor-4" 288 -22 basechar 0
AnchorPoint: "Anchor-0" 285 522 basechar 0
LayerCount: 2
Fore
SplineSet
280 -12 m 0,0,1
 173 -12 173 -12 112.5 45.5 c 128,-1,2
 52 103 52 103 52 226 c 2,3,-1
 52 500 l 1,4,-1
 192 500 l 1,5,-1
 204 442 l 1,6,-1
 208 442 l 1,7,8
 235 474 235 474 272.5 493 c 128,-1,9
 310 512 310 512 360 512 c 0,10,11
 393 512 393 512 418.5 501 c 128,-1,12
 444 490 444 490 461 471 c 128,-1,13
 478 452 478 452 487 426.5 c 128,-1,14
 496 401 496 401 496 372 c 0,15,16
 496 292 496 292 432 241 c 128,-1,17
 368 190 368 190 224 174 c 1,18,19
 228 147 228 147 248 135.5 c 128,-1,20
 268 124 268 124 306 124 c 0,21,22
 334 124 334 124 362.5 134.5 c 128,-1,23
 391 145 391 145 430 166 c 1,24,-1
 490 54 l 1,25,26
 439 22 439 22 387 5 c 128,-1,27
 335 -12 335 -12 280 -12 c 0,0,1
224 278 m 1,28,29
 286 287 286 287 309 305 c 128,-1,30
 332 323 332 323 332 344 c 0,31,32
 332 361 332 361 321 370.5 c 128,-1,33
 310 380 310 380 292 380 c 0,34,35
 271 380 271 380 254.5 368 c 128,-1,36
 238 356 238 356 224 336 c 1,37,-1
 224 278 l 1,28,29
EndSplineSet
Validated: 1
EndChar

StartChar: uni0252
Encoding: 594 594 447
Width: 580
GlyphClass: 2
Flags: W
AnchorPoint: "Anchor-4" 296 -22 basechar 0
AnchorPoint: "Anchor-0" 306 522 basechar 0
LayerCount: 2
Fore
SplineSet
336 -12 m 0,0,1
 304 -12 304 -12 271.5 2.5 c 128,-1,2
 239 17 239 17 210 50 c 1,3,-1
 206 50 l 1,4,-1
 192 0 l 1,5,-1
 58 0 l 1,6,-1
 58 500 l 1,7,-1
 198 500 l 1,8,-1
 210 454 l 1,9,-1
 214 454 l 1,10,11
 242 480 242 480 277 496 c 128,-1,12
 312 512 312 512 350 512 c 0,13,14
 394 512 394 512 430 494 c 128,-1,15
 466 476 466 476 491.5 443 c 128,-1,16
 517 410 517 410 530.5 363 c 128,-1,17
 544 316 544 316 544 258 c 0,18,19
 544 193 544 193 526.5 143 c 128,-1,20
 509 93 509 93 480 58.5 c 128,-1,21
 451 24 451 24 413.5 6 c 128,-1,22
 376 -12 376 -12 336 -12 c 0,0,1
294 128 m 0,23,24
 324 128 324 128 346 156 c 128,-1,25
 368 184 368 184 368 256 c 0,26,27
 368 318 368 318 350.5 345 c 128,-1,28
 333 372 333 372 298 372 c 0,29,30
 278 372 278 372 262.5 364 c 128,-1,31
 247 356 247 356 230 336 c 1,32,-1
 230 152 l 1,33,34
 245 138 245 138 261 133 c 128,-1,35
 277 128 277 128 294 128 c 0,23,24
EndSplineSet
Validated: 1
EndChar

StartChar: uni0253
Encoding: 595 595 448
Width: 580
GlyphClass: 2
Flags: W
AnchorPoint: "Anchor-4" 297 -22 basechar 0
LayerCount: 2
Fore
SplineSet
336 -12 m 0,0,1
 303 -12 303 -12 271 4.5 c 128,-1,2
 239 21 239 21 210 54 c 1,3,-1
 206 54 l 1,4,-1
 192 0 l 1,5,-1
 58 0 l 1,6,-1
 58 486 l 2,7,8
 58 530 58 530 69.5 570 c 128,-1,9
 81 610 81 610 106.5 641 c 128,-1,10
 132 672 132 672 173.5 690 c 128,-1,11
 215 708 215 708 276 708 c 0,12,13
 311 708 311 708 338 702 c 128,-1,14
 365 696 365 696 382 690 c 1,15,-1
 352 564 l 1,16,17
 340 569 340 569 327 571.5 c 128,-1,18
 314 574 314 574 302 574 c 0,19,20
 269 574 269 574 251 556.5 c 128,-1,21
 233 539 233 539 228 492 c 2,22,-1
 226 442 l 1,23,24
 252 466 252 466 284 479 c 128,-1,25
 316 492 316 492 349 492 c 0,26,27
 393 492 393 492 429 474.5 c 128,-1,28
 465 457 465 457 490.5 425.5 c 128,-1,29
 516 394 516 394 530 349 c 128,-1,30
 544 304 544 304 544 249 c 0,31,32
 544 186 544 186 526.5 137.5 c 128,-1,33
 509 89 509 89 480 56 c 128,-1,34
 451 23 451 23 413.5 5.5 c 128,-1,35
 376 -12 376 -12 336 -12 c 0,0,1
294 128 m 0,36,37
 309 128 309 128 322.5 134 c 128,-1,38
 336 140 336 140 346 153.5 c 128,-1,39
 356 167 356 167 362 190 c 128,-1,40
 368 213 368 213 368 246 c 0,41,42
 368 303 368 303 350.5 327.5 c 128,-1,43
 333 352 333 352 298 352 c 0,44,45
 278 352 278 352 262.5 344 c 128,-1,46
 247 336 247 336 230 316 c 1,47,-1
 230 152 l 1,48,49
 245 138 245 138 261 133 c 128,-1,50
 277 128 277 128 294 128 c 0,36,37
EndSplineSet
Validated: 1
EndChar

StartChar: uni0254
Encoding: 596 596 449
Width: 472
Flags: W
LayerCount: 2
Fore
SplineSet
188 -12 m 0,0,1
 149 -12 149 -12 104.5 0.5 c 128,-1,2
 60 13 60 13 22 46 c 1,3,-1
 88 158 l 1,4,5
 106 144 106 144 126.5 135 c 128,-1,6
 147 126 147 126 168 126 c 0,7,8
 209 126 209 126 236.5 159.5 c 128,-1,9
 264 193 264 193 264 250 c 256,10,11
 264 307 264 307 238.5 340.5 c 128,-1,12
 213 374 213 374 172 374 c 0,13,14
 151 374 151 374 137 369 c 128,-1,15
 123 364 123 364 106 350 c 1,16,-1
 26 460 l 1,17,18
 55 483 55 483 98 497.5 c 128,-1,19
 141 512 141 512 192 512 c 0,20,21
 242 512 242 512 287 494.5 c 128,-1,22
 332 477 332 477 366 444 c 128,-1,23
 400 411 400 411 420 362 c 128,-1,24
 440 313 440 313 440 250 c 0,25,26
 440 188 440 188 420.5 139 c 128,-1,27
 401 90 401 90 366.5 56.5 c 128,-1,28
 332 23 332 23 286 5.5 c 128,-1,29
 240 -12 240 -12 188 -12 c 0,0,1
EndSplineSet
Validated: 1
EndChar

StartChar: uni0255
Encoding: 597 597 450
Width: 472
GlyphClass: 2
Flags: W
AnchorPoint: "Anchor-0" 290 522 basechar 0
LayerCount: 2
Fore
SplineSet
298 118 m 0,0,1
 319 118 319 118 330.5 129 c 128,-1,2
 342 140 342 140 342 154 c 0,3,4
 342 165 342 165 334.5 174.5 c 128,-1,5
 327 184 327 184 310 184 c 0,6,7
 278 184 278 184 242 139 c 1,8,9
 266 118 266 118 298 118 c 0,0,1
142 -74 m 1,10,-1
 10 -16 l 1,11,12
 23 19 23 19 37.5 49 c 128,-1,13
 52 79 52 79 68 105 c 1,14,15
 51 135 51 135 41.5 171 c 128,-1,16
 32 207 32 207 32 250 c 0,17,18
 32 312 32 312 54 361 c 128,-1,19
 76 410 76 410 113 443.5 c 128,-1,20
 150 477 150 477 198.5 494.5 c 128,-1,21
 247 512 247 512 300 512 c 0,22,23
 345 512 345 512 381 498 c 128,-1,24
 417 484 417 484 446 460 c 1,25,-1
 372 358 l 1,26,27
 355 372 355 372 339.5 377 c 128,-1,28
 324 382 324 382 310 382 c 0,29,30
 257 382 257 382 227.5 347 c 128,-1,31
 198 312 198 312 198 252 c 1,32,33
 262 296 262 296 324 296 c 0,34,35
 391 296 391 296 429.5 258 c 128,-1,36
 468 220 468 220 468 154 c 0,37,38
 468 119 468 119 456 89 c 128,-1,39
 444 59 444 59 421.5 36.5 c 128,-1,40
 399 14 399 14 366 1 c 128,-1,41
 333 -12 333 -12 292 -12 c 0,42,43
 226 -12 226 -12 172 12 c 1,44,45
 164 -8 164 -8 156.5 -29.5 c 128,-1,46
 149 -51 149 -51 142 -74 c 1,10,-1
EndSplineSet
Validated: 1
EndChar

StartChar: uni0256
Encoding: 598 598 451
Width: 580
Flags: W
LayerCount: 2
Fore
SplineSet
534 -188 m 0,0,1
 488 -188 488 -188 454.5 -174.5 c 128,-1,2
 421 -161 421 -161 399 -139 c 128,-1,3
 377 -117 377 -117 366.5 -89 c 128,-1,4
 356 -61 356 -61 356 -32 c 2,5,-1
 356 38 l 1,6,7
 332 15 332 15 302 1.5 c 128,-1,8
 272 -12 272 -12 240 -12 c 0,9,10
 193 -12 193 -12 155.5 6 c 128,-1,11
 118 24 118 24 91.5 58 c 128,-1,12
 65 92 65 92 50.5 140.5 c 128,-1,13
 36 189 36 189 36 250 c 256,14,15
 36 311 36 311 53.5 360 c 128,-1,16
 71 409 71 409 99.5 442.5 c 128,-1,17
 128 476 128 476 165 494 c 128,-1,18
 202 512 202 512 240 512 c 0,19,20
 281 512 281 512 307 498.5 c 128,-1,21
 333 485 333 485 356 462 c 1,22,-1
 350 534 l 1,23,-1
 350 708 l 1,24,-1
 522 708 l 1,25,-1
 522 10 l 2,26,27
 522 -25 522 -25 531 -39.5 c 128,-1,28
 540 -54 540 -54 562 -54 c 0,29,30
 573 -54 573 -54 588 -48 c 1,31,-1
 618 -174 l 1,32,33
 603 -180 603 -180 584 -184 c 128,-1,34
 565 -188 565 -188 534 -188 c 0,0,1
286 128 m 0,35,36
 306 128 306 128 321 135.5 c 128,-1,37
 336 143 336 143 350 164 c 1,38,-1
 350 348 l 1,39,40
 335 362 335 362 317 367 c 128,-1,41
 299 372 299 372 282 372 c 0,42,43
 255 372 255 372 233.5 345 c 128,-1,44
 212 318 212 318 212 252 c 0,45,46
 212 184 212 184 231.5 156 c 128,-1,47
 251 128 251 128 286 128 c 0,35,36
EndSplineSet
Validated: 1
EndChar

StartChar: uni0257
Encoding: 599 599 452
Width: 580
GlyphClass: 2
Flags: W
AnchorPoint: "Anchor-4" 316 -22 basechar 0
LayerCount: 2
Fore
SplineSet
240 -12 m 0,0,1
 193 -12 193 -12 155.5 6 c 128,-1,2
 118 24 118 24 91.5 58 c 128,-1,3
 65 92 65 92 50.5 140.5 c 128,-1,4
 36 189 36 189 36 250 c 256,5,6
 36 311 36 311 53.5 360 c 128,-1,7
 71 409 71 409 99.5 442.5 c 128,-1,8
 128 476 128 476 165 494 c 128,-1,9
 202 512 202 512 240 512 c 0,10,11
 281 512 281 512 307 498.5 c 128,-1,12
 333 485 333 485 356 462 c 1,13,-1
 356 524 l 2,14,15
 356 560 356 560 365.5 593.5 c 128,-1,16
 375 627 375 627 397.5 652.5 c 128,-1,17
 420 678 420 678 455.5 693 c 128,-1,18
 491 708 491 708 544 708 c 0,19,20
 571 708 571 708 587.5 705.5 c 128,-1,21
 604 703 604 703 618 698 c 1,22,-1
 588 572 l 1,23,24
 583 574 583 574 580 574 c 128,-1,25
 577 574 577 574 572 574 c 0,26,27
 545 574 545 574 533.5 559.5 c 128,-1,28
 522 545 522 545 522 510 c 2,29,-1
 522 0 l 1,30,-1
 382 0 l 1,31,-1
 370 46 l 1,32,-1
 366 46 l 1,33,34
 340 20 340 20 306.5 4 c 128,-1,35
 273 -12 273 -12 240 -12 c 0,0,1
286 128 m 0,36,37
 306 128 306 128 321 135.5 c 128,-1,38
 336 143 336 143 350 164 c 1,39,-1
 350 348 l 1,40,41
 335 362 335 362 317 367 c 128,-1,42
 299 372 299 372 282 372 c 0,43,44
 255 372 255 372 233.5 345 c 128,-1,45
 212 318 212 318 212 252 c 0,46,47
 212 184 212 184 231.5 156 c 128,-1,48
 251 128 251 128 286 128 c 0,36,37
EndSplineSet
Validated: 1
EndChar

StartChar: uni0258
Encoding: 600 600 453
Width: 526
GlyphClass: 2
Flags: W
AnchorPoint: "Anchor-7" 266 0 basechar 0
AnchorPoint: "Anchor-4" 268 -22 basechar 0
AnchorPoint: "Anchor-0" 266 522 basechar 0
LayerCount: 2
Fore
SplineSet
240 -12 m 0,0,1
 219 -12 219 -12 195 -8.5 c 128,-1,2
 171 -5 171 -5 146.5 2.5 c 128,-1,3
 122 10 122 10 98 21 c 128,-1,4
 74 32 74 32 54 46 c 1,5,-1
 110 148 l 1,6,7
 164 118 164 118 216 118 c 0,8,9
 258 118 258 118 287 135.5 c 128,-1,10
 316 153 316 153 328 198 c 1,11,-1
 43 198 l 1,12,13
 41 207 41 207 38.5 227 c 128,-1,14
 36 247 36 247 36 270 c 0,15,16
 36 320 36 320 51 364 c 128,-1,17
 66 408 66 408 94.5 441 c 128,-1,18
 123 474 123 474 165.5 493 c 128,-1,19
 208 512 208 512 264 512 c 0,20,21
 310 512 310 512 351.5 494 c 128,-1,22
 393 476 393 476 424.5 442 c 128,-1,23
 456 408 456 408 475 359.5 c 128,-1,24
 494 311 494 311 494 250 c 0,25,26
 494 188 494 188 475 139 c 128,-1,27
 456 90 456 90 422 56.5 c 128,-1,28
 388 23 388 23 341.5 5.5 c 128,-1,29
 295 -12 295 -12 240 -12 c 0,0,1
182 310 m 1,30,-1
 330 310 l 1,31,32
 324 348 324 348 305.5 365 c 128,-1,33
 287 382 287 382 258 382 c 0,34,35
 219 382 219 382 200.5 360.5 c 128,-1,36
 182 339 182 339 182 310 c 1,30,-1
EndSplineSet
Validated: 1
EndChar

StartChar: uni0251
Encoding: 593 593 454
Width: 536
GlyphClass: 2
Flags: W
LayerCount: 2
Fore
SplineSet
248 120 m 0,0,1
 269 120 269 120 282.5 129.5 c 128,-1,2
 296 139 296 139 310 154 c 1,3,-1
 310 222 l 1,4,5
 248 213 248 213 225 195 c 128,-1,6
 202 177 202 177 202 156 c 0,7,8
 202 120 202 120 248 120 c 0,0,1
188 -12 m 0,9,10
 153 -12 153 -12 125 0.5 c 128,-1,11
 97 13 97 13 77.5 34 c 128,-1,12
 58 55 58 55 48 83 c 128,-1,13
 38 111 38 111 38 142 c 0,14,15
 38 220 38 220 102 264.5 c 128,-1,16
 166 309 166 309 310 324 c 1,17,18
 304 376 304 376 240 376 c 0,19,20
 213 376 213 376 183 365.5 c 128,-1,21
 153 355 153 355 114 334 c 1,22,-1
 54 446 l 1,23,24
 107 478 107 478 161 495 c 128,-1,25
 215 512 215 512 274 512 c 0,26,27
 371 512 371 512 426.5 456.5 c 128,-1,28
 482 401 482 401 482 278 c 2,29,-1
 482 266 l 1,30,-1
 482 170 l 2,31,32
 482 144 482 144 491.5 135 c 128,-1,33
 501 126 501 126 510 126 c 0,34,35
 515 126 515 126 518.5 126 c 128,-1,36
 522 126 522 126 528 128 c 1,37,-1
 548 2 l 1,38,39
 534 -4 534 -4 513.5 -8 c 128,-1,40
 493 -12 493 -12 464 -12 c 0,41,42
 412 -12 412 -12 382.5 1.5 c 128,-1,43
 353 15 353 15 335 40 c 0,44,45
 332.01612577 44.1442697637 332.01612577 44.1442697637 329.320791068 48 c 2,46,-1
 326 48 l 1,47,48
 296 21 296 21 262.5 4.5 c 128,-1,49
 229 -12 229 -12 188 -12 c 0,9,10
EndSplineSet
Validated: 1
EndChar

StartChar: uni0259
Encoding: 601 601 456
Width: 526
GlyphClass: 2
Flags: W
AnchorPoint: "Anchor-7" 258 0 basechar 0
AnchorPoint: "Anchor-4" 258 -22 basechar 0
AnchorPoint: "Anchor-0" 260 522 basechar 0
LayerCount: 2
Fore
SplineSet
254 -12 m 0,0,1
 198 -12 198 -12 157 7 c 128,-1,2
 116 26 116 26 89 59 c 128,-1,3
 62 92 62 92 49 136 c 128,-1,4
 36 180 36 180 36 230 c 0,5,6
 36 253 36 253 38.5 273 c 128,-1,7
 41 293 41 293 43 302 c 1,8,-1
 328 302 l 1,9,10
 317 347 317 347 291 364.5 c 128,-1,11
 265 382 265 382 226 382 c 0,12,13
 175 382 175 382 124 352 c 1,14,-1
 68 462 l 1,15,16
 111 491 111 491 161 501.5 c 128,-1,17
 211 512 211 512 256 512 c 0,18,19
 306 512 306 512 349.5 494 c 128,-1,20
 393 476 393 476 425 442 c 128,-1,21
 457 408 457 408 475.5 359.5 c 128,-1,22
 494 311 494 311 494 250 c 256,23,24
 494 189 494 189 474 140.5 c 128,-1,25
 454 92 454 92 421 58 c 128,-1,26
 388 24 388 24 344.5 6 c 128,-1,27
 301 -12 301 -12 254 -12 c 0,0,1
250 118 m 0,28,29
 279 118 279 118 300.5 133.5 c 128,-1,30
 322 149 322 149 330 190 c 1,31,-1
 182 190 l 1,32,33
 182 161 182 161 196.5 139.5 c 128,-1,34
 211 118 211 118 250 118 c 0,28,29
EndSplineSet
Validated: 1
Substitution2: "'sups' Superscript lookup 26 subtable" uni0259.sups
Substitution2: "'smcp' Lowercase to Small Capitals lookup 20 subtable" uni018F.sc
AlternateSubs2: "'aalt' Access All Alternates lookup 1 subtable" uni018F.sc uni0259.sups
EndChar

StartChar: uni025A
Encoding: 602 602 457
Width: 730
GlyphClass: 2
Flags: W
AnchorPoint: "Anchor-0" 250 522 basechar 0
LayerCount: 2
Fore
SplineSet
264 -12 m 0,0,1
 205 -12 205 -12 162.5 7.5 c 128,-1,2
 120 27 120 27 93 60 c 128,-1,3
 66 93 66 93 52 135.5 c 128,-1,4
 38 178 38 178 36 224 c 1,5,-1
 311 344 l 1,6,7
 285 382 285 382 225 382 c 0,8,9
 175 382 175 382 124 352 c 1,10,-1
 68 462 l 1,11,12
 112 491 112 491 161 501.5 c 128,-1,13
 210 512 210 512 249 512 c 0,14,15
 321 512 321 512 372 483.5 c 128,-1,16
 423 455 423 455 453 405 c 1,17,-1
 552 448 l 1,18,-1
 632 418 l 1,19,20
 632 362 632 362 642 341 c 128,-1,21
 652 320 652 320 676 320 c 0,22,23
 689 320 689 320 699 323 c 128,-1,24
 709 326 709 326 717 330 c 1,25,-1
 750 250 l 1,26,27
 733 239 733 239 713 231.5 c 128,-1,28
 693 224 693 224 670 224 c 0,29,30
 651 224 651 224 632 228 c 128,-1,31
 613 232 613 232 595.5 242.5 c 128,-1,32
 578 253 578 253 563.5 272 c 128,-1,33
 549 291 549 291 540 322 c 1,34,-1
 489 300 l 1,35,36
 491 285 491 285 492.5 270 c 128,-1,37
 494 255 494 255 494 239 c 0,38,39
 494 187 494 187 477 141 c 128,-1,40
 460 95 460 95 430 61 c 128,-1,41
 400 27 400 27 357.5 7.5 c 128,-1,42
 315 -12 315 -12 264 -12 c 0,0,1
258 116 m 0,43,44
 291 116 291 116 313.5 145 c 128,-1,45
 336 174 336 174 336 223 c 2,46,-1
 336 232 l 1,47,-1
 188 166 l 1,48,49
 194 142 194 142 213 129 c 128,-1,50
 232 116 232 116 258 116 c 0,43,44
EndSplineSet
Validated: 1
EndChar

StartChar: uni025B
Encoding: 603 603 458
Width: 470
GlyphClass: 2
Flags: W
AnchorPoint: "Anchor-4" 256 -22 basechar 0
AnchorPoint: "Anchor-0" 268 522 basechar 0
LayerCount: 2
Fore
SplineSet
276 -12 m 0,0,1
 233 -12 233 -12 191.5 -2.5 c 128,-1,2
 150 7 150 7 117 26.5 c 128,-1,3
 84 46 84 46 64 75.5 c 128,-1,4
 44 105 44 105 44 144 c 0,5,6
 44 194 44 194 71.5 222 c 128,-1,7
 99 250 99 250 147 262 c 1,8,-1
 147 266 l 1,9,10
 104 278 104 278 85 307.5 c 128,-1,11
 66 337 66 337 66 366 c 0,12,13
 66 405 66 405 83.5 432.5 c 128,-1,14
 101 460 101 460 130 477.5 c 128,-1,15
 159 495 159 495 197.5 503.5 c 128,-1,16
 236 512 236 512 278 512 c 0,17,18
 366 512 366 512 442 468 c 1,19,-1
 380 358 l 1,20,21
 356 370 356 370 335 376 c 128,-1,22
 314 382 314 382 288 382 c 0,23,24
 261 382 261 382 247.5 370.5 c 128,-1,25
 234 359 234 359 234 342 c 0,26,27
 234 324 234 324 247 317 c 128,-1,28
 260 310 260 310 286 310 c 2,29,-1
 359 310 l 1,30,-1
 359 198 l 1,31,-1
 270 198 l 2,32,33
 239 198 239 198 225.5 190.5 c 128,-1,34
 212 183 212 183 212 162 c 256,35,36
 212 141 212 141 235 129.5 c 128,-1,37
 258 118 258 118 293 118 c 0,38,39
 311 118 311 118 335.5 124 c 128,-1,40
 360 130 360 130 386 144 c 1,41,-1
 452 36 l 1,42,43
 405 7 405 7 363.5 -2.5 c 128,-1,44
 322 -12 322 -12 276 -12 c 0,0,1
EndSplineSet
Validated: 1
EndChar

StartChar: uni025C
Encoding: 604 604 459
Width: 484
GlyphClass: 2
Flags: W
AnchorPoint: "Anchor-4" 236 -22 basechar 0
AnchorPoint: "Anchor-0" 236 522 basechar 0
LayerCount: 2
Fore
SplineSet
218 -12 m 0,0,1
 170 -12 170 -12 126 -2.5 c 128,-1,2
 82 7 82 7 32 36 c 1,3,-1
 98 144 l 1,4,5
 124 130 124 130 148.5 124 c 128,-1,6
 173 118 173 118 191 118 c 0,7,8
 226 118 226 118 249 129.5 c 128,-1,9
 272 141 272 141 272 162 c 256,10,11
 272 183 272 183 258.5 190.5 c 128,-1,12
 245 198 245 198 214 198 c 2,13,-1
 125 198 l 1,14,-1
 125 310 l 1,15,-1
 198 310 l 2,16,17
 224 310 224 310 237 317 c 128,-1,18
 250 324 250 324 250 342 c 0,19,20
 250 359 250 359 236.5 370.5 c 128,-1,21
 223 382 223 382 196 382 c 0,22,23
 170 382 170 382 149 376 c 128,-1,24
 128 370 128 370 104 358 c 1,25,-1
 42 468 l 1,26,27
 123 512 123 512 216 512 c 0,28,29
 256 512 256 512 292.5 503.5 c 128,-1,30
 329 495 329 495 357 477.5 c 128,-1,31
 385 460 385 460 401.5 432.5 c 128,-1,32
 418 405 418 405 418 366 c 0,33,34
 418 337 418 337 399 307.5 c 128,-1,35
 380 278 380 278 337 266 c 1,36,-1
 337 262 l 1,37,38
 385 250 385 250 412.5 222 c 128,-1,39
 440 194 440 194 440 144 c 0,40,41
 440 105 440 105 420.5 75.5 c 128,-1,42
 401 46 401 46 369.5 26.5 c 128,-1,43
 338 7 338 7 298.5 -2.5 c 128,-1,44
 259 -12 259 -12 218 -12 c 0,0,1
EndSplineSet
Validated: 1
EndChar

StartChar: uni025E
Encoding: 606 606 460
Width: 574
GlyphClass: 2
Flags: W
AnchorPoint: "Anchor-4" 294 -22 basechar 0
AnchorPoint: "Anchor-0" 284 522 basechar 0
LayerCount: 2
Fore
SplineSet
274 -12 m 0,0,1
 231 -12 231 -12 190 -2.5 c 128,-1,2
 149 7 149 7 116.5 26.5 c 128,-1,3
 84 46 84 46 64 75.5 c 128,-1,4
 44 105 44 105 44 144 c 0,5,6
 44 194 44 194 71.5 222 c 128,-1,7
 99 250 99 250 147 262 c 1,8,-1
 147 266 l 1,9,10
 104 278 104 278 85 307.5 c 128,-1,11
 66 337 66 337 66 366 c 0,12,13
 66 405 66 405 83 432.5 c 128,-1,14
 100 460 100 460 129 477.5 c 128,-1,15
 158 495 158 495 196 503.5 c 128,-1,16
 234 512 234 512 276 512 c 0,17,18
 328 512 328 512 376 496 c 128,-1,19
 424 480 424 480 461.5 447 c 128,-1,20
 499 414 499 414 521.5 365 c 128,-1,21
 544 316 544 316 544 250 c 256,22,23
 544 184 544 184 522.5 135 c 128,-1,24
 501 86 501 86 464.5 53 c 128,-1,25
 428 20 428 20 378.5 4 c 128,-1,26
 329 -12 329 -12 274 -12 c 0,0,1
274 118 m 0,27,28
 321 118 321 118 344.5 148 c 128,-1,29
 368 178 368 178 368 250 c 256,30,31
 368 322 368 322 346 352 c 128,-1,32
 324 382 324 382 280 382 c 0,33,34
 260 382 260 382 247 370.5 c 128,-1,35
 234 359 234 359 234 342 c 0,36,37
 234 324 234 324 245 317 c 128,-1,38
 256 310 256 310 276 310 c 2,39,-1
 309 310 l 1,40,-1
 309 198 l 1,41,-1
 260 198 l 2,42,43
 234 198 234 198 223 190.5 c 128,-1,44
 212 183 212 183 212 162 c 256,45,46
 212 141 212 141 229.5 129.5 c 128,-1,47
 247 118 247 118 274 118 c 0,27,28
EndSplineSet
Validated: 1
EndChar

StartChar: uni025F
Encoding: 607 607 461
Width: 340
GlyphClass: 2
Flags: W
AnchorPoint: "Anchor-0" 170 522 basechar 0
LayerCount: 2
Fore
SplineSet
62 -188 m 0,0,1
 27 -188 27 -188 6 -184 c 128,-1,2
 -15 -180 -15 -180 -32 -174 c 1,3,-1
 -2 -48 l 1,4,5
 9 -51 9 -51 17 -52.5 c 128,-1,6
 25 -54 25 -54 34 -54 c 0,7,8
 61 -54 61 -54 72.5 -37.5 c 128,-1,9
 84 -21 84 -21 84 20 c 2,10,-1
 84 220 l 1,11,-1
 14 220 l 1,12,-1
 14 294 l 1,13,-1
 84 300 l 1,14,-1
 84 500 l 1,15,-1
 256 500 l 1,16,-1
 256 300 l 1,17,-1
 322 300 l 1,18,-1
 322 220 l 1,19,-1
 256 220 l 1,20,-1
 256 26 l 2,21,22
 256 -16 256 -16 247 -54.5 c 128,-1,23
 238 -93 238 -93 215.5 -123 c 128,-1,24
 193 -153 193 -153 155.5 -170.5 c 128,-1,25
 118 -188 118 -188 62 -188 c 0,0,1
EndSplineSet
Validated: 1
EndChar

StartChar: uni0260
Encoding: 608 608 462
Width: 592
GlyphClass: 2
Flags: W
AnchorPoint: "Anchor-0" 306 522 basechar 0
LayerCount: 2
Fore
SplineSet
262 -186 m 0,0,1
 242 -186 242 -186 218.5 -182.5 c 128,-1,2
 195 -179 195 -179 170 -172 c 128,-1,3
 145 -165 145 -165 119.5 -154.5 c 128,-1,4
 94 -144 94 -144 72 -130 c 1,5,-1
 128 -18 l 1,6,7
 163 -36 163 -36 198 -44 c 128,-1,8
 233 -52 233 -52 262 -52 c 0,9,10
 312 -52 312 -52 331.5 -34 c 128,-1,11
 351 -16 351 -16 356 10 c 2,12,-1
 360 60 l 1,13,14
 337 39 337 39 307.5 27.5 c 128,-1,15
 278 16 278 16 246 16 c 0,16,17
 199 16 199 16 161.5 34.5 c 128,-1,18
 124 53 124 53 97.5 85.5 c 128,-1,19
 71 118 71 118 56.5 162.5 c 128,-1,20
 42 207 42 207 42 260 c 0,21,22
 42 317 42 317 60 363.5 c 128,-1,23
 78 410 78 410 107.5 443 c 128,-1,24
 137 476 137 476 174.5 494 c 128,-1,25
 212 512 212 512 250 512 c 0,26,27
 286 512 286 512 311.5 498.5 c 128,-1,28
 337 485 337 485 360 462 c 1,29,-1
 360 492 l 2,30,31
 360 521 360 521 369.5 551.5 c 128,-1,32
 379 582 379 582 401.5 606.5 c 128,-1,33
 424 631 424 631 460 646.5 c 128,-1,34
 496 662 496 662 550 662 c 0,35,36
 577 662 577 662 593.5 659.5 c 128,-1,37
 610 657 610 657 624 652 c 1,38,-1
 594 526 l 1,39,40
 590 528 590 528 586 528 c 128,-1,41
 582 528 582 528 578 528 c 0,42,43
 551 528 551 528 539.5 512.5 c 128,-1,44
 528 497 528 497 528 464 c 2,45,-1
 528 16 l 2,46,47
 528 -84 528 -84 459 -135 c 128,-1,48
 390 -186 390 -186 262 -186 c 0,0,1
292 154 m 0,49,50
 312 154 312 154 326.5 161.5 c 128,-1,51
 341 169 341 169 356 192 c 1,52,-1
 356 348 l 1,53,54
 341 362 341 362 323 367 c 128,-1,55
 305 372 305 372 288 372 c 0,56,57
 259 372 259 372 237.5 345.5 c 128,-1,58
 216 319 216 319 216 262 c 0,59,60
 216 208 216 208 236.5 181 c 128,-1,61
 257 154 257 154 292 154 c 0,49,50
EndSplineSet
Validated: 1
Substitution2: "'smcp' Lowercase to Small Capitals lookup 20 subtable" uni0193.sc
Substitution2: "'aalt' Access All Alternates lookup 0 subtable" uni0193.sc
EndChar

StartChar: uni0261
Encoding: 609 609 463
Width: 546
GlyphClass: 2
Flags: W
LayerCount: 2
Fore
SplineSet
240 -206 m 4,0,1
 197 -206 197 -206 159 -199.5 c 132,-1,2
 121 -193 121 -193 92.5 -178 c 132,-1,3
 64 -163 64 -163 47 -139.5 c 132,-1,4
 30 -116 30 -116 30 -82 c 4,5,6
 30 -23 30 -23 100 14 c 5,7,-1
 100 18 l 5,8,9
 80 32 80 32 67 52 c 132,-1,10
 54 72 54 72 54 104 c 4,11,12
 54 130 54 130 69 155 c 132,-1,13
 84 180 84 180 110 198 c 5,14,-1
 110 202 l 5,15,16
 83 220 83 220 62.5 253 c 132,-1,17
 42 286 42 286 42 330 c 4,18,19
 42 376 42 376 60 410.5 c 132,-1,20
 78 445 78 445 108 467.5 c 132,-1,21
 138 490 138 490 176.5 501 c 132,-1,22
 215 512 215 512 256 512 c 4,23,24
 300 512 300 512 336 500 c 5,25,-1
 522 500 l 5,26,-1
 522 376 l 5,27,-1
 450 376 l 5,28,29
 453 367 453 367 455.5 353 c 132,-1,30
 458 339 458 339 458 324 c 4,31,32
 458 280 458 280 442 248.5 c 132,-1,33
 426 217 426 217 399 197 c 132,-1,34
 372 177 372 177 335 167.5 c 132,-1,35
 298 158 298 158 256 158 c 4,36,37
 231 158 231 158 200 165 c 5,38,39
 192 158 192 158 190 152.5 c 132,-1,40
 188 147 188 147 188 136 c 4,41,42
 188 119 188 119 204 112.5 c 132,-1,43
 220 106 220 106 258 106 c 6,44,-1
 333 106 l 6,45,46
 427 106 427 106 478.5 75.5 c 132,-1,47
 530 45 530 45 530 -24 c 4,48,49
 530 -65 530 -65 509.5 -98.5 c 132,-1,50
 489 -132 489 -132 451.5 -156 c 132,-1,51
 414 -180 414 -180 360.5 -193 c 132,-1,52
 307 -206 307 -206 240 -206 c 4,0,1
256 260 m 260,53,54
 280 260 280 260 295 277 c 132,-1,55
 310 294 310 294 310 330 c 4,56,57
 310 365 310 365 295 381.5 c 132,-1,58
 280 398 280 398 256 398 c 260,59,60
 232 398 232 398 217 381.5 c 132,-1,61
 202 365 202 365 202 330 c 4,62,63
 202 294 202 294 217 277 c 132,-1,64
 232 260 232 260 256 260 c 260,53,54
268 -100 m 4,65,66
 310 -100 310 -100 338 -87.5 c 132,-1,67
 366 -75 366 -75 366 -54 c 4,68,69
 366 -34 366 -34 348.5 -29 c 132,-1,70
 331 -24 331 -24 299 -24 c 6,71,-1
 260 -24 l 6,72,73
 230 -24 230 -24 214.5 -22.5 c 132,-1,74
 199 -21 199 -21 188 -18 c 5,75,76
 179 -27 179 -27 174.5 -35 c 132,-1,77
 170 -43 170 -43 170 -54 c 4,78,79
 170 -78 170 -78 197 -89 c 132,-1,80
 224 -100 224 -100 268 -100 c 4,65,66
EndSplineSet
Validated: 1
EndChar

StartChar: uni0262
Encoding: 610 610 464
Width: 524
GlyphClass: 2
Flags: W
AnchorPoint: "Anchor-4" 328 -22 basechar 0
AnchorPoint: "Anchor-1" 324 522 basechar 0
LayerCount: 2
Fore
SplineSet
291 -12 m 0,0,1
 242 -12 242 -12 195.5 3 c 128,-1,2
 149 18 149 18 112.5 50 c 128,-1,3
 76 82 76 82 54 130.5 c 128,-1,4
 32 179 32 179 32 247 c 0,5,6
 32 311 32 311 54.5 360.5 c 128,-1,7
 77 410 77 410 114 443.5 c 128,-1,8
 151 477 151 477 198 494.5 c 128,-1,9
 245 512 245 512 293 512 c 0,10,11
 325 512 325 512 350.5 507.5 c 128,-1,12
 376 503 376 503 397.5 495 c 128,-1,13
 419 487 419 487 437 476 c 128,-1,14
 455 465 455 465 472 452 c 1,15,-1
 396 350 l 1,16,17
 373 364 373 364 355 373 c 128,-1,18
 337 382 337 382 305 382 c 0,19,20
 287 382 287 382 269.5 374.5 c 128,-1,21
 252 367 252 367 238 351 c 128,-1,22
 224 335 224 335 215 309 c 128,-1,23
 206 283 206 283 206 247 c 0,24,25
 206 184 206 184 233 151 c 128,-1,26
 260 118 260 118 304 118 c 0,27,28
 327 118 327 118 340 126 c 1,29,-1
 340 198 l 1,30,-1
 266 198 l 1,31,-1
 266 310 l 1,32,-1
 486 310 l 1,33,-1
 486 55 l 1,34,35
 454 26 454 26 402.5 7 c 128,-1,36
 351 -12 351 -12 291 -12 c 0,0,1
EndSplineSet
Validated: 1
EndChar

StartChar: uni0263
Encoding: 611 611 465
Width: 544
GlyphClass: 2
Flags: W
AnchorPoint: "Anchor-4" 274 -22 basechar 0
AnchorPoint: "Anchor-0" 274 522 basechar 0
LayerCount: 2
Fore
SplineSet
276 -206 m 256,0,1
 199 -206 199 -206 152.5 -163.5 c 128,-1,2
 106 -121 106 -121 106 -50 c 0,3,4
 106 -31 106 -31 110 -13.5 c 128,-1,5
 114 4 114 4 121.5 21.5 c 128,-1,6
 129 39 129 39 139.5 58.5 c 128,-1,7
 150 78 150 78 164 101 c 1,8,-1
 12 500 l 1,9,-1
 184 500 l 1,10,-1
 238 312 l 2,11,12
 247 280 247 280 256 255 c 128,-1,13
 265 230 265 230 274 195 c 1,14,-1
 278 195 l 1,15,16
 287 230 287 230 296 255 c 128,-1,17
 305 280 305 280 314 312 c 2,18,-1
 368 500 l 1,19,-1
 532 500 l 1,20,-1
 387 104 l 1,21,22
 416 56 416 56 431 22.5 c 128,-1,23
 446 -11 446 -11 446 -50 c 0,24,25
 446 -121 446 -121 399.5 -163.5 c 128,-1,26
 353 -206 353 -206 276 -206 c 256,0,1
276 -100 m 256,27,28
 290 -100 290 -100 299 -90 c 128,-1,29
 308 -80 308 -80 308 -62 c 0,30,31
 308 -43 308 -43 301 -22.5 c 128,-1,32
 294 -2 294 -2 277 30 c 1,33,-1
 272 30 l 1,34,35
 257 -2 257 -2 250.5 -22.5 c 128,-1,36
 244 -43 244 -43 244 -62 c 0,37,38
 244 -80 244 -80 253 -90 c 128,-1,39
 262 -100 262 -100 276 -100 c 256,27,28
EndSplineSet
Validated: 1
EndChar

StartChar: uni0264
Encoding: 612 612 466
Width: 592
Flags: W
LayerCount: 2
Fore
SplineSet
296 -12 m 256,0,1
 250 -12 250 -12 212 0 c 128,-1,2
 174 12 174 12 147 35.5 c 128,-1,3
 120 59 120 59 105 94 c 128,-1,4
 90 129 90 129 90 175 c 0,5,6
 90 215 90 215 114 259 c 128,-1,7
 138 303 138 303 180 342 c 1,8,9
 165 360 165 360 146.5 367 c 128,-1,10
 128 374 128 374 110 374 c 0,11,12
 81 374 81 374 64 360 c 1,13,-1
 16 484 l 1,14,15
 34 498 34 498 68 505 c 128,-1,16
 102 512 102 512 134 512 c 0,17,18
 175 512 175 512 217.5 495 c 128,-1,19
 260 478 260 478 296 436 c 1,20,21
 332 478 332 478 374.5 495 c 128,-1,22
 417 512 417 512 458 512 c 0,23,24
 490 512 490 512 524 505 c 128,-1,25
 558 498 558 498 576 484 c 1,26,-1
 528 360 l 1,27,28
 520 366 520 366 507.5 370 c 128,-1,29
 495 374 495 374 482 374 c 0,30,31
 463 374 463 374 445 367 c 128,-1,32
 427 360 427 360 412 342 c 1,33,34
 454 303 454 303 478 259 c 128,-1,35
 502 215 502 215 502 175 c 0,36,37
 502 129 502 129 487 94 c 128,-1,38
 472 59 472 59 445 35.5 c 128,-1,39
 418 12 418 12 380 0 c 128,-1,40
 342 -12 342 -12 296 -12 c 256,0,1
296 126 m 256,41,42
 318 126 318 126 330 140 c 128,-1,43
 342 154 342 154 342 180 c 0,44,45
 342 200 342 200 330 223 c 128,-1,46
 318 246 318 246 296 266 c 1,47,48
 274 246 274 246 262 223 c 128,-1,49
 250 200 250 200 250 180 c 0,50,51
 250 154 250 154 262 140 c 128,-1,52
 274 126 274 126 296 126 c 256,41,42
EndSplineSet
Validated: 1
EndChar

StartChar: uni0265
Encoding: 613 613 467
Width: 582
GlyphClass: 2
Flags: W
AnchorPoint: "Anchor-4" 308 -22 basechar 0
AnchorPoint: "Anchor-0" 290 522 basechar 0
LayerCount: 2
Fore
SplineSet
352 -176 m 1,0,-1
 352 -34 l 1,1,-1
 360 56 l 1,2,3
 334 29 334 29 297.5 8.5 c 128,-1,4
 261 -12 261 -12 210 -12 c 0,5,6
 169 -12 169 -12 139.5 2.5 c 128,-1,7
 110 17 110 17 91 43.5 c 128,-1,8
 72 70 72 70 63 107.5 c 128,-1,9
 54 145 54 145 54 192 c 2,10,-1
 54 500 l 1,11,-1
 226 500 l 1,12,-1
 226 214 l 2,13,14
 226 166 226 166 238 150 c 128,-1,15
 250 134 250 134 276 134 c 0,16,17
 300 134 300 134 317.5 144 c 128,-1,18
 335 154 335 154 352 178 c 1,19,-1
 352 500 l 1,20,-1
 524 500 l 1,21,-1
 524 -176 l 1,22,-1
 352 -176 l 1,0,-1
EndSplineSet
Validated: 1
EndChar

StartChar: uni0266
Encoding: 614 614 468
Width: 582
GlyphClass: 2
Flags: W
AnchorPoint: "Anchor-4" 296 -22 basechar 0
LayerCount: 2
Fore
SplineSet
58 0 m 1,0,-1
 58 486 l 2,1,2
 58 530 58 530 69.5 570 c 128,-1,3
 81 610 81 610 106.5 641 c 128,-1,4
 132 672 132 672 173.5 690 c 128,-1,5
 215 708 215 708 276 708 c 0,6,7
 311 708 311 708 338 702 c 128,-1,8
 365 696 365 696 382 690 c 1,9,-1
 352 564 l 1,10,11
 340 569 340 569 327 571.5 c 128,-1,12
 314 574 314 574 302 574 c 0,13,14
 269 574 269 574 251 556.5 c 128,-1,15
 233 539 233 539 228 492 c 2,16,-1
 222 428 l 1,17,18
 248 451 248 451 284.5 471.5 c 128,-1,19
 321 492 321 492 372 492 c 0,20,21
 454 492 454 492 491 436.5 c 128,-1,22
 528 381 528 381 528 288 c 2,23,-1
 528 0 l 1,24,-1
 356 0 l 1,25,-1
 356 266 l 2,26,27
 356 314 356 314 344 330 c 128,-1,28
 332 346 332 346 306 346 c 0,29,30
 282 346 282 346 266 336 c 128,-1,31
 250 326 250 326 230 308 c 1,32,-1
 230 0 l 1,33,-1
 58 0 l 1,0,-1
EndSplineSet
Validated: 1
EndChar

StartChar: uni0267
Encoding: 615 615 469
Width: 582
Flags: W
LayerCount: 2
Fore
SplineSet
334 -188 m 0,0,1
 299 -188 299 -188 278 -184 c 128,-1,2
 257 -180 257 -180 240 -174 c 1,3,-1
 270 -48 l 1,4,5
 281 -51 281 -51 289 -52.5 c 128,-1,6
 297 -54 297 -54 306 -54 c 0,7,8
 333 -54 333 -54 344.5 -37.5 c 128,-1,9
 356 -21 356 -21 356 20 c 2,10,-1
 356 266 l 2,11,12
 356 314 356 314 344 330 c 128,-1,13
 332 346 332 346 306 346 c 0,14,15
 282 346 282 346 266 336 c 128,-1,16
 250 326 250 326 230 308 c 1,17,-1
 230 0 l 1,18,-1
 58 0 l 1,19,-1
 58 486 l 2,20,21
 58 530 58 530 69.5 570 c 128,-1,22
 81 610 81 610 106.5 641 c 128,-1,23
 132 672 132 672 173.5 690 c 128,-1,24
 215 708 215 708 276 708 c 0,25,26
 311 708 311 708 338 702 c 128,-1,27
 365 696 365 696 382 690 c 1,28,-1
 352 564 l 1,29,30
 340 569 340 569 327 571.5 c 128,-1,31
 314 574 314 574 302 574 c 0,32,33
 269 574 269 574 251 556.5 c 128,-1,34
 233 539 233 539 228 492 c 2,35,-1
 222 428 l 1,36,37
 248 451 248 451 284.5 471.5 c 128,-1,38
 321 492 321 492 372 492 c 0,39,40
 454 492 454 492 491 436.5 c 128,-1,41
 528 381 528 381 528 288 c 2,42,-1
 528 26 l 2,43,44
 528 -16 528 -16 519 -54.5 c 128,-1,45
 510 -93 510 -93 487.5 -123 c 128,-1,46
 465 -153 465 -153 427.5 -170.5 c 128,-1,47
 390 -188 390 -188 334 -188 c 0,0,1
EndSplineSet
Validated: 1
EndChar

StartChar: uni029C
Encoding: 668 668 470
Width: 590
Flags: W
LayerCount: 2
Fore
SplineSet
60 0 m 1,0,-1
 60 500 l 1,1,-1
 232 500 l 1,2,-1
 232 328 l 1,3,-1
 362 328 l 1,4,-1
 362 500 l 1,5,-1
 534 500 l 1,6,-1
 534 0 l 1,7,-1
 362 0 l 1,8,-1
 362 178 l 1,9,-1
 232 178 l 1,10,-1
 232 0 l 1,11,-1
 60 0 l 1,0,-1
EndSplineSet
Validated: 1
EndChar

StartChar: uni0268
Encoding: 616 616 471
Width: 340
Flags: W
LayerCount: 2
Fore
SplineSet
14 220 m 1,0,-1
 14 294 l 1,1,-1
 84 300 l 1,2,-1
 84 500 l 1,3,-1
 256 500 l 1,4,-1
 256 300 l 1,5,-1
 322 300 l 1,6,-1
 322 220 l 1,7,-1
 256 220 l 1,8,-1
 256 0 l 1,9,-1
 84 0 l 1,10,-1
 84 220 l 1,11,-1
 14 220 l 1,0,-1
170 562 m 256,12,13
 128 562 128 562 101 586 c 128,-1,14
 74 610 74 610 74 648 c 256,15,16
 74 686 74 686 101 710 c 128,-1,17
 128 734 128 734 170 734 c 256,18,19
 212 734 212 734 239 710 c 128,-1,20
 266 686 266 686 266 648 c 256,21,22
 266 610 266 610 239 586 c 128,-1,23
 212 562 212 562 170 562 c 256,12,13
EndSplineSet
Validated: 1
EndChar

StartChar: uni026A
Encoding: 618 618 472
Width: 416
GlyphClass: 2
Flags: W
AnchorPoint: "Anchor-8" 190 0 basechar 0
AnchorPoint: "Anchor-4" 208 -22 basechar 0
AnchorPoint: "Anchor-0" 208 522 basechar 0
LayerCount: 2
Fore
SplineSet
54 0 m 1,0,-1
 54 134 l 1,1,-1
 122 134 l 1,2,-1
 122 366 l 1,3,-1
 54 366 l 1,4,-1
 54 500 l 1,5,-1
 362 500 l 1,6,-1
 362 366 l 1,7,-1
 294 366 l 1,8,-1
 294 134 l 1,9,-1
 362 134 l 1,10,-1
 362 0 l 1,11,-1
 54 0 l 1,0,-1
EndSplineSet
Validated: 1
EndChar

StartChar: uni029D
Encoding: 669 669 473
Width: 390
Flags: W
LayerCount: 2
Fore
SplineSet
328 -250 m 1,0,1
 302 -184 302 -184 271 -133 c 1,2,3
 246 -159 246 -159 210.5 -173.5 c 128,-1,4
 175 -188 175 -188 128 -188 c 0,5,6
 89 -188 89 -188 58 -175.5 c 128,-1,7
 27 -163 27 -163 6 -141.5 c 128,-1,8
 -15 -120 -15 -120 -26.5 -90.5 c 128,-1,9
 -38 -61 -38 -61 -38 -26 c 0,10,11
 -38 40 -38 40 5 80 c 128,-1,12
 48 120 48 120 124 120 c 0,13,14
 143 120 143 120 160 116 c 1,15,-1
 160 500 l 1,16,-1
 332 500 l 1,17,-1
 332 26 l 2,18,19
 332 21 332 21 332 17 c 128,-1,20
 332 13 332 13 331 8 c 1,21,22
 368 -30 368 -30 401 -79.5 c 128,-1,23
 434 -129 434 -129 460 -192 c 1,24,-1
 328 -250 l 1,0,1
122 -58 m 0,25,26
 160 -58 160 -58 160 -6 c 1,27,28
 137 8 137 8 122 8 c 256,29,30
 107 8 107 8 97.5 0 c 128,-1,31
 88 -8 88 -8 88 -22 c 256,32,33
 88 -36 88 -36 96 -47 c 128,-1,34
 104 -58 104 -58 122 -58 c 0,25,26
246 562 m 256,35,36
 204 562 204 562 177 586 c 128,-1,37
 150 610 150 610 150 648 c 256,38,39
 150 686 150 686 177 710 c 128,-1,40
 204 734 204 734 246 734 c 256,41,42
 288 734 288 734 315 710 c 128,-1,43
 342 686 342 686 342 648 c 256,44,45
 342 610 342 610 315 586 c 128,-1,46
 288 562 288 562 246 562 c 256,35,36
EndSplineSet
Validated: 1
EndChar

StartChar: uni026C
Encoding: 620 620 474
Width: 406
Flags: W
LayerCount: 2
Fore
SplineSet
143 282 m 2,0,1
 102 282 102 282 72.5 290.5 c 128,-1,2
 43 299 43 299 24.5 314 c 128,-1,3
 6 329 6 329 -3 349 c 128,-1,4
 -12 369 -12 369 -12 392 c 0,5,6
 -12 438 -12 438 19 468 c 128,-1,7
 50 498 50 498 98 498 c 0,8,9
 128 498 128 498 150 484 c 1,10,-1
 150 696 l 1,11,-1
 322 696 l 1,12,-1
 322 362 l 1,13,-1
 388 362 l 1,14,-1
 388 282 l 1,15,-1
 322 282 l 1,16,-1
 322 170 l 2,17,18
 322 144 322 144 331.5 135 c 128,-1,19
 341 126 341 126 350 126 c 0,20,21
 355 126 355 126 358.5 126 c 128,-1,22
 362 126 362 126 368 128 c 1,23,-1
 388 2 l 1,24,25
 374 -4 374 -4 353.5 -8 c 128,-1,26
 333 -12 333 -12 304 -12 c 0,27,28
 260 -12 260 -12 230.5 1.5 c 128,-1,29
 201 15 201 15 183 40 c 128,-1,30
 165 65 165 65 157.5 99.5 c 128,-1,31
 150 134 150 134 150 176 c 2,32,-1
 150 282 l 1,33,-1
 143 282 l 2,0,1
150 362 m 1,34,35
 150 369 150 369 148 379 c 128,-1,36
 146 389 146 389 141 398 c 128,-1,37
 136 407 136 407 127 413.5 c 128,-1,38
 118 420 118 420 104 420 c 256,39,40
 90 420 90 420 83 412.5 c 128,-1,41
 76 405 76 405 76 393 c 0,42,43
 76 380 76 380 88.5 371 c 128,-1,44
 101 362 101 362 127 362 c 2,45,-1
 150 362 l 1,34,35
EndSplineSet
Validated: 1
EndChar

StartChar: uni026D
Encoding: 621 621 475
Width: 298
Flags: W
LayerCount: 2
Fore
SplineSet
242 -188 m 0,0,1
 189 -188 189 -188 153.5 -171 c 128,-1,2
 118 -154 118 -154 97 -126 c 128,-1,3
 76 -98 76 -98 67 -61 c 128,-1,4
 58 -24 58 -24 58 16 c 2,5,-1
 58 696 l 1,6,-1
 230 696 l 1,7,-1
 230 10 l 2,8,9
 230 -25 230 -25 239 -39.5 c 128,-1,10
 248 -54 248 -54 270 -54 c 0,11,12
 281 -54 281 -54 296 -48 c 1,13,-1
 326 -174 l 1,14,15
 311 -180 311 -180 292 -184 c 128,-1,16
 273 -188 273 -188 242 -188 c 0,0,1
EndSplineSet
Validated: 1
EndChar

StartChar: uni026E
Encoding: 622 622 476
Width: 664
Flags: W
LayerCount: 2
Fore
SplineSet
406 -188 m 0,0,1
 334 -188 334 -188 283 -164.5 c 128,-1,2
 232 -141 232 -141 196 -106 c 1,3,-1
 272 0 l 1,4,5
 296 -21 296 -21 324 -35.5 c 128,-1,6
 352 -50 352 -50 384 -50 c 0,7,8
 423 -50 423 -50 446.5 -27 c 128,-1,9
 470 -4 470 -4 470 40 c 0,10,11
 470 78 470 78 447 98 c 128,-1,12
 424 118 424 118 388 118 c 0,13,14
 368 118 368 118 358.5 116 c 128,-1,15
 349 114 349 114 332 108 c 1,16,-1
 278 188 l 1,17,-1
 414 366 l 1,18,-1
 230 366 l 1,19,-1
 230 0 l 1,20,-1
 58 0 l 1,21,-1
 58 696 l 1,22,-1
 230 696 l 1,23,-1
 230 500 l 1,24,-1
 618 500 l 1,25,-1
 618 408 l 1,26,-1
 484 235 l 1,27,28
 561 222 561 222 601.5 170.5 c 128,-1,29
 642 119 642 119 642 44 c 0,30,31
 642 -12 642 -12 623.5 -55 c 128,-1,32
 605 -98 605 -98 572.5 -127.5 c 128,-1,33
 540 -157 540 -157 497 -172.5 c 128,-1,34
 454 -188 454 -188 406 -188 c 0,0,1
EndSplineSet
Validated: 1
EndChar

StartChar: uni029F
Encoding: 671 671 477
Width: 440
GlyphClass: 2
Flags: W
AnchorPoint: "Anchor-4" 252 -22 basechar 0
AnchorPoint: "Anchor-1" 148 564 basechar 0
LayerCount: 2
Fore
SplineSet
58 0 m 1,0,-1
 58 500 l 1,1,-1
 230 500 l 1,2,-1
 230 134 l 1,3,-1
 414 134 l 1,4,-1
 414 0 l 1,5,-1
 58 0 l 1,0,-1
EndSplineSet
Validated: 1
EndChar

StartChar: uni026F
Encoding: 623 623 478
Width: 868
GlyphClass: 2
Flags: W
AnchorPoint: "Anchor-4" 444 -22 basechar 0
AnchorPoint: "Anchor-0" 446 522 basechar 0
LayerCount: 2
Fore
SplineSet
216 -12 m 0,0,1
 133 -12 133 -12 95.5 43.5 c 128,-1,2
 58 99 58 99 58 192 c 2,3,-1
 58 500 l 1,4,-1
 230 500 l 1,5,-1
 230 214 l 2,6,7
 230 166 230 166 242 150 c 128,-1,8
 254 134 254 134 280 134 c 0,9,10
 312 134 312 134 350 172 c 1,11,-1
 350 500 l 1,12,-1
 522 500 l 1,13,-1
 522 214 l 2,14,15
 522 166 522 166 534 150 c 128,-1,16
 546 134 546 134 572 134 c 0,17,18
 604 134 604 134 642 172 c 1,19,-1
 642 500 l 1,20,-1
 814 500 l 1,21,-1
 814 0 l 1,22,-1
 674 0 l 1,23,-1
 662 61 l 1,24,-1
 658 61 l 1,25,26
 628 32 628 32 593.5 10 c 128,-1,27
 559 -12 559 -12 508 -12 c 256,28,29
 457 -12 457 -12 423.5 8.5 c 128,-1,30
 390 29 390 29 370 68 c 1,31,32
 339 36 339 36 303 12 c 128,-1,33
 267 -12 267 -12 216 -12 c 0,0,1
EndSplineSet
Validated: 1
EndChar

StartChar: uni0270
Encoding: 624 624 479
Width: 868
GlyphClass: 2
Flags: W
AnchorPoint: "Anchor-4" 444 -22 basechar 0
AnchorPoint: "Anchor-0" 446 522 basechar 0
LayerCount: 2
Fore
SplineSet
642 -176 m 1,0,-1
 642 -33 l 1,1,-1
 650 56 l 1,2,3
 617 23 617 23 585 5.5 c 128,-1,4
 553 -12 553 -12 508 -12 c 0,5,6
 457 -12 457 -12 423.5 8.5 c 128,-1,7
 390 29 390 29 370 68 c 1,8,9
 339 36 339 36 303 12 c 128,-1,10
 267 -12 267 -12 216 -12 c 0,11,12
 133 -12 133 -12 95.5 43.5 c 128,-1,13
 58 99 58 99 58 192 c 2,14,-1
 58 500 l 1,15,-1
 230 500 l 1,16,-1
 230 214 l 2,17,18
 230 166 230 166 242 150 c 128,-1,19
 254 134 254 134 280 134 c 0,20,21
 312 134 312 134 350 172 c 1,22,-1
 350 500 l 1,23,-1
 522 500 l 1,24,-1
 522 214 l 2,25,26
 522 166 522 166 534 150 c 128,-1,27
 546 134 546 134 572 134 c 0,28,29
 604 134 604 134 642 172 c 1,30,-1
 642 500 l 1,31,-1
 814 500 l 1,32,-1
 814 -176 l 1,33,-1
 642 -176 l 1,0,-1
EndSplineSet
Validated: 1
EndChar

StartChar: uni0271
Encoding: 625 625 480
Width: 868
GlyphClass: 2
Flags: W
AnchorPoint: "Anchor-0" 446 522 basechar 0
LayerCount: 2
Fore
SplineSet
630 -188 m 0,0,1
 600 -188 600 -188 580.5 -184 c 128,-1,2
 561 -180 561 -180 546 -174 c 1,3,-1
 576 -48 l 1,4,5
 591 -54 591 -54 602 -54 c 0,6,7
 625 -54 625 -54 633.5 -37.5 c 128,-1,8
 642 -21 642 -21 642 20 c 2,9,-1
 642 286 l 2,10,11
 642 334 642 334 630 350 c 128,-1,12
 618 366 618 366 592 366 c 0,13,14
 560 366 560 366 522 328 c 1,15,-1
 522 0 l 1,16,-1
 350 0 l 1,17,-1
 350 286 l 2,18,19
 350 334 350 334 338 350 c 128,-1,20
 326 366 326 366 300 366 c 0,21,22
 268 366 268 366 230 328 c 1,23,-1
 230 0 l 1,24,-1
 58 0 l 1,25,-1
 58 500 l 1,26,-1
 198 500 l 1,27,-1
 210 439 l 1,28,-1
 214 439 l 1,29,30
 244 468 244 468 278.5 490 c 128,-1,31
 313 512 313 512 364 512 c 256,32,33
 415 512 415 512 448.5 491.5 c 128,-1,34
 482 471 482 471 502 432 c 1,35,36
 533 464 533 464 569 488 c 128,-1,37
 605 512 605 512 656 512 c 0,38,39
 738 512 738 512 776 456.5 c 128,-1,40
 814 401 814 401 814 308 c 2,41,-1
 814 26 l 2,42,43
 814 -16 814 -16 805 -54.5 c 128,-1,44
 796 -93 796 -93 775 -123 c 128,-1,45
 754 -153 754 -153 718.5 -170.5 c 128,-1,46
 683 -188 683 -188 630 -188 c 0,0,1
EndSplineSet
Validated: 1
EndChar

StartChar: uni0272
Encoding: 626 626 481
Width: 582
GlyphClass: 2
Flags: W
AnchorPoint: "Anchor-0" 314 522 basechar 0
LayerCount: 2
Fore
SplineSet
46 -188 m 0,0,1
 15 -188 15 -188 -4 -184 c 128,-1,2
 -23 -180 -23 -180 -38 -174 c 1,3,-1
 -8 -48 l 1,4,5
 7 -54 7 -54 18 -54 c 0,6,7
 40 -54 40 -54 49 -39.5 c 128,-1,8
 58 -25 58 -25 58 10 c 2,9,-1
 58 500 l 1,10,-1
 198 500 l 1,11,-1
 210 440 l 1,12,-1
 214 440 l 1,13,14
 244 469 244 469 282.5 490.5 c 128,-1,15
 321 512 321 512 372 512 c 0,16,17
 454 512 454 512 491 456.5 c 128,-1,18
 528 401 528 401 528 308 c 2,19,-1
 528 0 l 1,20,-1
 356 0 l 1,21,-1
 356 286 l 2,22,23
 356 334 356 334 344 350 c 128,-1,24
 332 366 332 366 306 366 c 0,25,26
 282 366 282 366 266 356 c 128,-1,27
 250 346 250 346 230 328 c 1,28,-1
 230 16 l 2,29,30
 230 -24 230 -24 221 -61 c 128,-1,31
 212 -98 212 -98 191 -126 c 128,-1,32
 170 -154 170 -154 134.5 -171 c 128,-1,33
 99 -188 99 -188 46 -188 c 0,0,1
EndSplineSet
Validated: 1
EndChar

StartChar: uni0273
Encoding: 627 627 482
Width: 582
GlyphClass: 2
Flags: W
AnchorPoint: "Anchor-0" 314 522 basechar 0
LayerCount: 2
Fore
SplineSet
540 -188 m 0,0,1
 487 -188 487 -188 451.5 -171 c 128,-1,2
 416 -154 416 -154 395 -126 c 128,-1,3
 374 -98 374 -98 365 -61 c 128,-1,4
 356 -24 356 -24 356 16 c 2,5,-1
 356 286 l 2,6,7
 356 334 356 334 344 350 c 128,-1,8
 332 366 332 366 306 366 c 0,9,10
 282 366 282 366 266 356 c 128,-1,11
 250 346 250 346 230 328 c 1,12,-1
 230 0 l 1,13,-1
 58 0 l 1,14,-1
 58 500 l 1,15,-1
 198 500 l 1,16,-1
 210 440 l 1,17,-1
 214 440 l 1,18,19
 244 469 244 469 282.5 490.5 c 128,-1,20
 321 512 321 512 372 512 c 0,21,22
 454 512 454 512 491 456.5 c 128,-1,23
 528 401 528 401 528 308 c 2,24,-1
 528 10 l 2,25,26
 528 -25 528 -25 537 -39.5 c 128,-1,27
 546 -54 546 -54 568 -54 c 0,28,29
 579 -54 579 -54 594 -48 c 1,30,-1
 624 -174 l 1,31,32
 609 -180 609 -180 590 -184 c 128,-1,33
 571 -188 571 -188 540 -188 c 0,0,1
EndSplineSet
Validated: 1
EndChar

StartChar: uni0274
Encoding: 628 628 483
Width: 568
GlyphClass: 2
Flags: W
AnchorPoint: "Anchor-0" 290 522 basechar 0
LayerCount: 2
Fore
SplineSet
58 0 m 1,0,-1
 58 500 l 1,1,-1
 216 500 l 1,2,-1
 314 316 l 2,3,4
 325 294 325 294 338 264 c 128,-1,5
 351 234 351 234 361 212 c 1,6,-1
 364 212 l 1,7,8
 359 257 359 257 354.5 303.5 c 128,-1,9
 350 350 350 350 350 387 c 2,10,-1
 350 500 l 1,11,-1
 510 500 l 1,12,-1
 510 0 l 1,13,-1
 352 0 l 1,14,-1
 253 184 l 2,15,16
 242 205 242 205 229.5 235 c 128,-1,17
 217 265 217 265 207 288 c 1,18,-1
 203 288 l 1,19,20
 208 242 208 242 213 196 c 128,-1,21
 218 150 218 150 218 113 c 2,22,-1
 218 0 l 1,23,-1
 58 0 l 1,0,-1
EndSplineSet
Validated: 1
EndChar

StartChar: uni0275
Encoding: 629 629 484
Width: 560
GlyphClass: 2
Flags: W
AnchorPoint: "Anchor-0" 280 522 basechar 0
LayerCount: 2
Fore
SplineSet
280 -12 m 256,0,1
 231 -12 231 -12 186.5 4.5 c 128,-1,2
 142 21 142 21 107.5 54 c 128,-1,3
 73 87 73 87 52.5 136 c 128,-1,4
 32 185 32 185 32 250 c 0,5,6
 32 314 32 314 52.5 363 c 128,-1,7
 73 412 73 412 107.5 445 c 128,-1,8
 142 478 142 478 186.5 495 c 128,-1,9
 231 512 231 512 280 512 c 256,10,11
 329 512 329 512 373.5 495 c 128,-1,12
 418 478 418 478 452.5 445 c 128,-1,13
 487 412 487 412 507.5 363 c 128,-1,14
 528 314 528 314 528 250 c 0,15,16
 528 185 528 185 507.5 136 c 128,-1,17
 487 87 487 87 452.5 54 c 128,-1,18
 418 21 418 21 373.5 4.5 c 128,-1,19
 329 -12 329 -12 280 -12 c 256,0,1
280 385 m 256,20,21
 215 385 215 385 198 310 c 1,22,-1
 362 310 l 1,23,24
 345 385 345 385 280 385 c 256,20,21
280 116 m 256,25,26
 349 116 349 116 364 198 c 1,27,-1
 196 198 l 1,28,29
 211 116 211 116 280 116 c 256,25,26
EndSplineSet
Validated: 1
EndChar

StartChar: uni0276
Encoding: 630 630 485
Width: 736
GlyphClass: 2
Flags: W
AnchorPoint: "Anchor-4" 438 -22 basechar 0
AnchorPoint: "Anchor-0" 422 522 basechar 0
LayerCount: 2
Fore
SplineSet
292 -12 m 0,0,1
 244 -12 244 -12 197.5 3.5 c 128,-1,2
 151 19 151 19 114 51 c 128,-1,3
 77 83 77 83 54.5 132 c 128,-1,4
 32 181 32 181 32 249 c 0,5,6
 32 315 32 315 54.5 364.5 c 128,-1,7
 77 414 77 414 114 447 c 128,-1,8
 151 480 151 480 197.5 496 c 128,-1,9
 244 512 244 512 292 512 c 0,10,11
 308 512 308 512 321.5 511.5 c 128,-1,12
 335 511 335 511 348.5 509.5 c 128,-1,13
 362 508 362 508 377 506 c 128,-1,14
 392 504 392 504 412 500 c 1,15,-1
 698 500 l 1,16,-1
 698 376 l 1,17,-1
 502 376 l 1,18,-1
 502 310 l 1,19,-1
 670 310 l 1,20,-1
 670 198 l 1,21,-1
 502 198 l 1,22,-1
 502 122 l 1,23,-1
 708 122 l 1,24,-1
 708 0 l 1,25,-1
 412 0 l 1,26,27
 376 -8 376 -8 350 -10 c 128,-1,28
 324 -12 324 -12 292 -12 c 0,0,1
301 123 m 256,29,30
 318 123 318 123 334 127 c 1,31,-1
 334 371 l 1,32,33
 318 375 318 375 301 375 c 256,34,35
 284 375 284 375 267.5 368.5 c 128,-1,36
 251 362 251 362 237.5 347 c 128,-1,37
 224 332 224 332 216 308 c 128,-1,38
 208 284 208 284 208 249 c 0,39,40
 208 211 208 211 216 186.5 c 128,-1,41
 224 162 224 162 237.5 148 c 128,-1,42
 251 134 251 134 267.5 128.5 c 128,-1,43
 284 123 284 123 301 123 c 256,29,30
EndSplineSet
Validated: 1
EndChar

StartChar: uni0278
Encoding: 632 632 486
Width: 760
Flags: W
LayerCount: 2
Fore
SplineSet
208 250 m 256,0,1
 208 187 208 187 232.5 155.5 c 128,-1,2
 257 124 257 124 302 120 c 1,3,-1
 302 380 l 1,4,5
 257 376 257 376 232.5 344.5 c 128,-1,6
 208 313 208 313 208 250 c 256,0,1
552 250 m 256,7,8
 552 313 552 313 527.5 344.5 c 128,-1,9
 503 376 503 376 458 380 c 1,10,-1
 458 120 l 1,11,12
 503 124 503 124 527.5 155.5 c 128,-1,13
 552 187 552 187 552 250 c 256,7,8
302 -176 m 1,14,-1
 302 -7 l 1,15,16
 249 -4 249 -4 200.5 14 c 128,-1,17
 152 32 152 32 114.5 64.5 c 128,-1,18
 77 97 77 97 54.5 143.5 c 128,-1,19
 32 190 32 190 32 250 c 256,20,21
 32 310 32 310 54.5 356.5 c 128,-1,22
 77 403 77 403 114.5 435.5 c 128,-1,23
 152 468 152 468 200.5 486 c 128,-1,24
 249 504 249 504 302 507 c 1,25,-1
 302 696 l 1,26,-1
 458 696 l 1,27,-1
 458 507 l 1,28,29
 511 504 511 504 559.5 486 c 128,-1,30
 608 468 608 468 645.5 435.5 c 128,-1,31
 683 403 683 403 705.5 356.5 c 128,-1,32
 728 310 728 310 728 250 c 256,33,34
 728 190 728 190 705.5 143.5 c 128,-1,35
 683 97 683 97 645.5 64.5 c 128,-1,36
 608 32 608 32 559.5 14 c 128,-1,37
 511 -4 511 -4 458 -7 c 1,38,-1
 458 -176 l 1,39,-1
 302 -176 l 1,14,-1
EndSplineSet
Validated: 1
EndChar

StartChar: uni0279
Encoding: 633 633 487
Width: 418
GlyphClass: 2
Flags: W
AnchorPoint: "Anchor-4" 86 -22 basechar 0
AnchorPoint: "Anchor-0" 200 522 basechar 0
LayerCount: 2
Fore
SplineSet
62 -12 m 0,0,1
 39 -12 39 -12 25 -9.5 c 128,-1,2
 11 -7 11 -7 0 -2 c 1,3,-1
 28 146 l 1,4,5
 42 143 42 143 54.5 140.5 c 128,-1,6
 67 138 67 138 84 138 c 0,7,8
 111 138 111 138 140.5 156.5 c 128,-1,9
 170 175 170 175 188 222 c 1,10,-1
 188 500 l 1,11,-1
 360 500 l 1,12,-1
 360 0 l 1,13,-1
 220 0 l 1,14,-1
 208 86 l 1,15,-1
 204 86 l 1,16,17
 176 35 176 35 137.5 11.5 c 128,-1,18
 99 -12 99 -12 62 -12 c 0,0,1
EndSplineSet
Validated: 1
EndChar

StartChar: uni027A
Encoding: 634 634 488
Width: 418
GlyphClass: 2
Flags: W
AnchorPoint: "Anchor-4" 86 -22 basechar 0
AnchorPoint: "Anchor-0" 200 522 basechar 0
LayerCount: 2
Fore
SplineSet
62 -12 m 0,0,1
 39 -12 39 -12 25 -9.5 c 128,-1,2
 11 -7 11 -7 0 -2 c 1,3,-1
 28 146 l 1,4,5
 42 143 42 143 54.5 140.5 c 128,-1,6
 67 138 67 138 84 138 c 0,7,8
 111 138 111 138 140.5 156.5 c 128,-1,9
 170 175 170 175 188 222 c 1,10,-1
 188 696 l 1,11,-1
 360 696 l 1,12,-1
 360 0 l 1,13,-1
 220 0 l 1,14,-1
 208 86 l 1,15,-1
 204 86 l 1,16,17
 176 35 176 35 137.5 11.5 c 128,-1,18
 99 -12 99 -12 62 -12 c 0,0,1
EndSplineSet
Validated: 1
EndChar

StartChar: uni027B
Encoding: 635 635 489
Width: 418
GlyphClass: 2
Flags: W
AnchorPoint: "Anchor-4" 86 -22 basechar 0
AnchorPoint: "Anchor-0" 200 522 basechar 0
LayerCount: 2
Fore
SplineSet
372 -188 m 0,0,1
 325 -188 325 -188 293.5 -173 c 128,-1,2
 262 -158 262 -158 243 -133.5 c 128,-1,3
 224 -109 224 -109 216 -77 c 128,-1,4
 208 -45 208 -45 208 -10 c 2,5,-1
 208 86 l 1,6,-1
 204 86 l 1,7,8
 176 35 176 35 137.5 11.5 c 128,-1,9
 99 -12 99 -12 62 -12 c 0,10,11
 39 -12 39 -12 25 -9.5 c 128,-1,12
 11 -7 11 -7 0 -2 c 1,13,-1
 28 146 l 1,14,15
 42 143 42 143 54.5 140.5 c 128,-1,16
 67 138 67 138 84 138 c 0,17,18
 111 138 111 138 140.5 156.5 c 128,-1,19
 170 175 170 175 188 222 c 1,20,-1
 188 500 l 1,21,-1
 360 500 l 1,22,-1
 360 10 l 2,23,24
 360 -25 360 -25 369 -39.5 c 128,-1,25
 378 -54 378 -54 400 -54 c 0,26,27
 411 -54 411 -54 426 -48 c 1,28,-1
 456 -174 l 1,29,30
 441 -180 441 -180 422 -184 c 128,-1,31
 403 -188 403 -188 372 -188 c 0,0,1
EndSplineSet
Validated: 1
EndChar

StartChar: uni027D
Encoding: 637 637 490
Width: 418
GlyphClass: 2
Flags: W
AnchorPoint: "Anchor-4" 144 -22 basechar 0
AnchorPoint: "Anchor-0" 258 522 basechar 0
LayerCount: 2
Fore
SplineSet
242 -188 m 0,0,1
 189 -188 189 -188 153.5 -171 c 128,-1,2
 118 -154 118 -154 97 -126 c 128,-1,3
 76 -98 76 -98 67 -61 c 128,-1,4
 58 -24 58 -24 58 16 c 2,5,-1
 58 500 l 1,6,-1
 198 500 l 1,7,-1
 210 414 l 1,8,-1
 214 414 l 1,9,10
 242 465 242 465 280.5 488.5 c 128,-1,11
 319 512 319 512 356 512 c 0,12,13
 379 512 379 512 393 509.5 c 128,-1,14
 407 507 407 507 418 502 c 1,15,-1
 390 354 l 1,16,17
 376 357 376 357 363.5 359.5 c 128,-1,18
 351 362 351 362 334 362 c 0,19,20
 307 362 307 362 277.5 343.5 c 128,-1,21
 248 325 248 325 230 278 c 1,22,-1
 230 10 l 2,23,24
 230 -25 230 -25 239 -39.5 c 128,-1,25
 248 -54 248 -54 270 -54 c 0,26,27
 281 -54 281 -54 296 -48 c 1,28,-1
 326 -174 l 1,29,30
 311 -180 311 -180 292 -184 c 128,-1,31
 273 -188 273 -188 242 -188 c 0,0,1
EndSplineSet
Validated: 1
EndChar

StartChar: uni027E
Encoding: 638 638 491
Width: 398
Flags: W
LayerCount: 2
Fore
SplineSet
58 0 m 1,0,-1
 58 300 l 2,1,2
 58 342 58 342 69.5 380.5 c 128,-1,3
 81 419 81 419 107 448 c 128,-1,4
 133 477 133 477 174.5 494.5 c 128,-1,5
 216 512 216 512 276 512 c 0,6,7
 317 512 317 512 347.5 508 c 128,-1,8
 378 504 378 504 398 498 c 1,9,-1
 372 354 l 1,10,11
 361 357 361 357 352.5 359 c 128,-1,12
 344 361 344 361 336.5 362 c 128,-1,13
 329 363 329 363 321 363.5 c 128,-1,14
 313 364 313 364 302 364 c 256,15,16
 291 364 291 364 278.5 359 c 128,-1,17
 266 354 266 354 255.5 342.5 c 128,-1,18
 245 331 245 331 237.5 311.5 c 128,-1,19
 230 292 230 292 230 262 c 2,20,-1
 230 0 l 1,21,-1
 58 0 l 1,0,-1
EndSplineSet
Validated: 1
EndChar

StartChar: uni0280
Encoding: 640 640 492
Width: 546
GlyphClass: 2
Flags: W
AnchorPoint: "Anchor-4" 292 -22 basechar 0
AnchorPoint: "Anchor-1" 272 522 basechar 0
LayerCount: 2
Fore
SplineSet
58 0 m 1,0,-1
 58 500 l 1,1,-1
 275 500 l 2,2,3
 319 500 319 500 357.5 491.5 c 128,-1,4
 396 483 396 483 425 463 c 128,-1,5
 454 443 454 443 471 410 c 128,-1,6
 488 377 488 377 488 328 c 0,7,8
 488 280 488 280 468.5 246 c 128,-1,9
 449 212 449 212 417 191 c 1,10,-1
 538 0 l 1,11,-1
 347 0 l 1,12,-1
 268 150 l 1,13,-1
 230 150 l 1,14,-1
 230 0 l 1,15,-1
 58 0 l 1,0,-1
230 265 m 1,16,-1
 255 265 l 2,17,18
 288 265 288 265 303.5 281.5 c 128,-1,19
 319 298 319 298 319 323 c 0,20,21
 319 375 319 375 255 375 c 2,22,-1
 230 375 l 1,23,-1
 230 265 l 1,16,-1
EndSplineSet
Validated: 1
EndChar

StartChar: uni0281
Encoding: 641 641 493
Width: 546
Flags: W
LayerCount: 2
Fore
SplineSet
271 0 m 2,0,1
 227 0 227 0 188.5 8.5 c 128,-1,2
 150 17 150 17 121 37 c 128,-1,3
 92 57 92 57 75 90 c 128,-1,4
 58 123 58 123 58 172 c 0,5,6
 58 220 58 220 77.5 254 c 128,-1,7
 97 288 97 288 129 309 c 1,8,-1
 8 500 l 1,9,-1
 199 500 l 1,10,-1
 278 350 l 1,11,-1
 316 350 l 1,12,-1
 316 500 l 1,13,-1
 488 500 l 1,14,-1
 488 0 l 1,15,-1
 271 0 l 2,0,1
291 125 m 2,16,-1
 316 125 l 1,17,-1
 316 235 l 1,18,-1
 291 235 l 2,19,20
 258 235 258 235 242.5 218.5 c 128,-1,21
 227 202 227 202 227 177 c 0,22,23
 227 125 227 125 291 125 c 2,16,-1
EndSplineSet
Validated: 1
EndChar

StartChar: uni0282
Encoding: 642 642 494
Width: 452
GlyphClass: 2
Flags: W
AnchorPoint: "Anchor-0" 242 522 basechar 0
LayerCount: 2
Fore
SplineSet
212 -12 m 0,0,1
 191 -12 191 -12 170 -9 c 1,2,3
 177 -58 177 -58 220 -58 c 0,4,5
 229 -58 229 -58 237 -56.5 c 128,-1,6
 245 -55 245 -55 256 -52 c 1,7,-1
 286 -174 l 1,8,9
 269 -180 269 -180 248 -184 c 128,-1,10
 227 -188 227 -188 192 -188 c 0,11,12
 142 -188 142 -188 108.5 -170.5 c 128,-1,13
 75 -153 75 -153 55 -123 c 128,-1,14
 35 -93 35 -93 26.5 -54.5 c 128,-1,15
 18 -16 18 -16 18 26 c 2,16,-1
 18 54 l 1,17,-1
 94 160 l 1,18,19
 129 134 129 134 159.5 124 c 128,-1,20
 190 114 190 114 216 114 c 0,21,22
 243 114 243 114 254.5 121.5 c 128,-1,23
 266 129 266 129 266 144 c 0,24,25
 266 154 266 154 258 161.5 c 128,-1,26
 250 169 250 169 236.5 175.5 c 128,-1,27
 223 182 223 182 206 188 c 128,-1,28
 189 194 189 194 170 202 c 0,29,30
 148 211 148 211 125.5 223.5 c 128,-1,31
 103 236 103 236 85 254 c 128,-1,32
 67 272 67 272 55.5 295.5 c 128,-1,33
 44 319 44 319 44 350 c 0,34,35
 44 387 44 387 58.5 417 c 128,-1,36
 73 447 73 447 99 468 c 128,-1,37
 125 489 125 489 161.5 500.5 c 128,-1,38
 198 512 198 512 242 512 c 0,39,40
 304 512 304 512 348.5 491.5 c 128,-1,41
 393 471 393 471 426 446 c 1,42,-1
 350 344 l 1,43,44
 323 364 323 364 297 375 c 128,-1,45
 271 386 271 386 248 386 c 0,46,47
 204 386 204 386 204 358 c 0,48,49
 204 348 204 348 211.5 341 c 128,-1,50
 219 334 219 334 232 328 c 128,-1,51
 245 322 245 322 262 316.5 c 128,-1,52
 279 311 279 311 298 304 c 0,53,54
 320 296 320 296 343 284 c 128,-1,55
 366 272 366 272 384.5 254.5 c 128,-1,56
 403 237 403 237 414.5 212.5 c 128,-1,57
 426 188 426 188 426 154 c 0,58,59
 426 119 426 119 412 88.5 c 128,-1,60
 398 58 398 58 371 35.5 c 128,-1,61
 344 13 344 13 304 0.5 c 128,-1,62
 264 -12 264 -12 212 -12 c 0,0,1
EndSplineSet
Validated: 1
EndChar

StartChar: uni0283
Encoding: 643 643 495
Width: 290
Flags: W
LayerCount: 2
Fore
SplineSet
38 -188 m 0,0,1
 3 -188 3 -188 -18 -184 c 128,-1,2
 -39 -180 -39 -180 -56 -174 c 1,3,-1
 -26 -48 l 1,4,5
 -15 -51 -15 -51 -7 -52.5 c 128,-1,6
 1 -54 1 -54 10 -54 c 0,7,8
 37 -54 37 -54 48.5 -37.5 c 128,-1,9
 60 -21 60 -21 60 20 c 2,10,-1
 60 494 l 2,11,12
 60 536 60 536 69.5 574.5 c 128,-1,13
 79 613 79 613 102.5 643 c 128,-1,14
 126 673 126 673 165.5 690.5 c 128,-1,15
 205 708 205 708 264 708 c 0,16,17
 295 708 295 708 314 704 c 128,-1,18
 333 700 333 700 348 694 c 1,19,-1
 318 568 l 1,20,21
 303 574 303 574 292 574 c 0,22,23
 260 574 260 574 246 557.5 c 128,-1,24
 232 541 232 541 232 500 c 2,25,-1
 232 26 l 2,26,27
 232 -16 232 -16 223 -54.5 c 128,-1,28
 214 -93 214 -93 191.5 -123 c 128,-1,29
 169 -153 169 -153 131.5 -170.5 c 128,-1,30
 94 -188 94 -188 38 -188 c 0,0,1
EndSplineSet
Validated: 1
EndChar

StartChar: uni0284
Encoding: 644 644 496
Width: 340
Flags: W
LayerCount: 2
Fore
SplineSet
62 -188 m 0,0,1
 27 -188 27 -188 6 -184 c 128,-1,2
 -15 -180 -15 -180 -32 -174 c 1,3,-1
 -2 -48 l 1,4,5
 9 -51 9 -51 17 -52.5 c 128,-1,6
 25 -54 25 -54 34 -54 c 0,7,8
 61 -54 61 -54 72.5 -37.5 c 128,-1,9
 84 -21 84 -21 84 20 c 2,10,-1
 84 220 l 1,11,-1
 14 220 l 1,12,-1
 14 294 l 1,13,-1
 84 300 l 1,14,-1
 84 494 l 2,15,16
 84 536 84 536 93.5 574.5 c 128,-1,17
 103 613 103 613 126.5 643 c 128,-1,18
 150 673 150 673 189.5 690.5 c 128,-1,19
 229 708 229 708 288 708 c 0,20,21
 319 708 319 708 338 704 c 128,-1,22
 357 700 357 700 372 694 c 1,23,-1
 342 568 l 1,24,25
 327 574 327 574 316 574 c 0,26,27
 284 574 284 574 270 557.5 c 128,-1,28
 256 541 256 541 256 500 c 2,29,-1
 256 300 l 1,30,-1
 322 300 l 1,31,-1
 322 220 l 1,32,-1
 256 220 l 1,33,-1
 256 26 l 2,34,35
 256 -16 256 -16 247 -54.5 c 128,-1,36
 238 -93 238 -93 215.5 -123 c 128,-1,37
 193 -153 193 -153 155.5 -170.5 c 128,-1,38
 118 -188 118 -188 62 -188 c 0,0,1
EndSplineSet
Validated: 1
EndChar

StartChar: uni0288
Encoding: 648 648 497
Width: 400
GlyphClass: 2
Flags: W
AnchorPoint: "Anchor-0" 176 664 basechar 0
LayerCount: 2
Fore
SplineSet
264 -188 m 0,0,1
 215 -188 215 -188 180.5 -173.5 c 128,-1,2
 146 -159 146 -159 123.5 -132 c 128,-1,3
 101 -105 101 -105 90.5 -67.5 c 128,-1,4
 80 -30 80 -30 80 16 c 2,5,-1
 80 366 l 1,6,-1
 14 366 l 1,7,-1
 14 494 l 1,8,-1
 90 500 l 1,9,-1
 110 630 l 1,10,-1
 252 630 l 1,11,-1
 252 500 l 1,12,-1
 366 500 l 1,13,-1
 366 366 l 1,14,-1
 252 366 l 1,15,-1
 252 19 l 2,16,17
 252 -23 252 -23 270 -38.5 c 128,-1,18
 288 -54 288 -54 312 -54 c 0,19,20
 324 -54 324 -54 335.5 -51.5 c 128,-1,21
 347 -49 347 -49 356 -46 c 1,22,-1
 382 -170 l 1,23,24
 362 -176 362 -176 334 -182 c 128,-1,25
 306 -188 306 -188 264 -188 c 0,0,1
EndSplineSet
Validated: 1
EndChar

StartChar: uni0289
Encoding: 649 649 498
Width: 634
GlyphClass: 2
Flags: W
AnchorPoint: "Anchor-0" 320 522 basechar 0
LayerCount: 2
Fore
SplineSet
14 270 m 1,0,-1
 14 344 l 1,1,-1
 84 350 l 1,2,-1
 84 500 l 1,3,-1
 256 500 l 1,4,-1
 256 350 l 1,5,-1
 378 350 l 1,6,-1
 378 500 l 1,7,-1
 550 500 l 1,8,-1
 550 350 l 1,9,-1
 616 350 l 1,10,-1
 616 270 l 1,11,-1
 550 270 l 1,12,-1
 550 0 l 1,13,-1
 410 0 l 1,14,-1
 398 66 l 1,15,-1
 394 66 l 1,16,17
 364 30 364 30 327.5 9 c 128,-1,18
 291 -12 291 -12 240 -12 c 0,19,20
 199 -12 199 -12 169.5 2.5 c 128,-1,21
 140 17 140 17 121 43.5 c 128,-1,22
 102 70 102 70 93 107.5 c 128,-1,23
 84 145 84 145 84 192 c 2,24,-1
 84 270 l 1,25,-1
 14 270 l 1,0,-1
306 134 m 0,26,27
 330 134 330 134 345.5 144 c 128,-1,28
 361 154 361 154 378 178 c 1,29,-1
 378 270 l 1,30,-1
 256 270 l 1,31,-1
 256 214 l 2,32,33
 256 166 256 166 268 150 c 128,-1,34
 280 134 280 134 306 134 c 0,26,27
EndSplineSet
Validated: 1
EndChar

StartChar: uni028A
Encoding: 650 650 499
Width: 564
GlyphClass: 2
Flags: W
AnchorPoint: "Anchor-4" 282 -22 basechar 0
AnchorPoint: "Anchor-0" 282 522 basechar 0
LayerCount: 2
Fore
SplineSet
282 -12 m 256,0,1
 223 -12 223 -12 177.5 6.5 c 128,-1,2
 132 25 132 25 100.5 54.5 c 128,-1,3
 69 84 69 84 52.5 121.5 c 128,-1,4
 36 159 36 159 36 198 c 0,5,6
 36 252 36 252 56 294.5 c 128,-1,7
 76 337 76 337 102 363 c 1,8,-1
 102 366 l 1,9,-1
 26 366 l 1,10,-1
 26 500 l 1,11,-1
 251 500 l 1,12,-1
 251 389 l 1,13,14
 239 371 239 371 231 354.5 c 128,-1,15
 223 338 223 338 218 320 c 128,-1,16
 213 302 213 302 210.5 281.5 c 128,-1,17
 208 261 208 261 208 235 c 0,18,19
 208 187 208 187 225.5 156.5 c 128,-1,20
 243 126 243 126 282 126 c 256,21,22
 321 126 321 126 338.5 156.5 c 128,-1,23
 356 187 356 187 356 235 c 0,24,25
 356 261 356 261 353.5 281.5 c 128,-1,26
 351 302 351 302 346 320 c 128,-1,27
 341 338 341 338 333 354.5 c 128,-1,28
 325 371 325 371 313 389 c 1,29,-1
 313 500 l 1,30,-1
 538 500 l 1,31,-1
 538 366 l 1,32,-1
 462 366 l 1,33,-1
 462 363 l 1,34,35
 488 337 488 337 508 294.5 c 128,-1,36
 528 252 528 252 528 198 c 0,37,38
 528 159 528 159 511.5 121.5 c 128,-1,39
 495 84 495 84 463.5 54.5 c 128,-1,40
 432 25 432 25 386.5 6.5 c 128,-1,41
 341 -12 341 -12 282 -12 c 256,0,1
EndSplineSet
Validated: 1
EndChar

StartChar: uni028B
Encoding: 651 651 500
Width: 560
GlyphClass: 2
Flags: W
AnchorPoint: "Anchor-4" 288 -22 basechar 0
AnchorPoint: "Anchor-0" 288 522 basechar 0
LayerCount: 2
Fore
SplineSet
278 -12 m 0,0,1
 172 -12 172 -12 113 47.5 c 128,-1,2
 54 107 54 107 54 222 c 2,3,-1
 54 500 l 1,4,-1
 226 500 l 1,5,-1
 226 223 l 2,6,7
 226 126 226 126 286 126 c 0,8,9
 318 126 318 126 335 165 c 128,-1,10
 352 204 352 204 352 278 c 0,11,12
 352 332 352 332 342.5 356 c 128,-1,13
 333 380 333 380 310 380 c 0,14,15
 305 380 305 380 301.5 379.5 c 128,-1,16
 298 379 298 379 294 378 c 1,17,-1
 276 504 l 1,18,19
 290 509 290 509 306.5 510.5 c 128,-1,20
 323 512 323 512 348 512 c 0,21,22
 385 512 385 512 418 500 c 128,-1,23
 451 488 451 488 475.5 462.5 c 128,-1,24
 500 437 500 437 514 398 c 128,-1,25
 528 359 528 359 528 304 c 0,26,27
 528 232 528 232 512.5 173.5 c 128,-1,28
 497 115 497 115 465.5 74 c 128,-1,29
 434 33 434 33 387 10.5 c 128,-1,30
 340 -12 340 -12 278 -12 c 0,0,1
EndSplineSet
Validated: 1
EndChar

StartChar: uni028C
Encoding: 652 652 501
Width: 544
GlyphClass: 2
Flags: W
AnchorPoint: "Anchor-4" 274 -22 basechar 0
AnchorPoint: "Anchor-0" 274 522 basechar 0
LayerCount: 2
Fore
SplineSet
12 0 m 1,0,-1
 170 500 l 1,1,-1
 368 500 l 1,2,-1
 532 0 l 1,3,-1
 360 0 l 1,4,-1
 306 218 l 2,5,6
 288 293 288 293 270 374 c 1,7,-1
 266 374 l 1,8,9
 248 293 248 293 230 218 c 2,10,-1
 176 0 l 1,11,-1
 12 0 l 1,0,-1
EndSplineSet
Validated: 1
EndChar

StartChar: uni028D
Encoding: 653 653 502
Width: 798
GlyphClass: 2
Flags: W
AnchorPoint: "Anchor-4" 400 -22 basechar 0
AnchorPoint: "Anchor-0" 400 522 basechar 0
LayerCount: 2
Fore
SplineSet
24 0 m 1,0,-1
 138 500 l 1,1,-1
 338 500 l 1,2,-1
 374 326 l 2,3,4
 380 291 380 291 386 256 c 128,-1,5
 392 221 392 221 398 179 c 1,6,-1
 402 179 l 1,7,8
 408 221 408 221 413 256 c 128,-1,9
 418 291 418 291 424 326 c 2,10,-1
 458 500 l 1,11,-1
 654 500 l 1,12,-1
 774 0 l 1,13,-1
 604 0 l 1,14,-1
 566 210 l 2,15,16
 560 248 560 248 556 285.5 c 128,-1,17
 552 323 552 323 546 362 c 1,18,-1
 542 362 l 1,19,20
 536 323 536 323 529.5 284.5 c 128,-1,21
 523 246 523 246 514 210 c 2,22,-1
 468 0 l 1,23,-1
 322 0 l 1,24,-1
 274 210 l 2,25,26
 265 248 265 248 258.5 285.5 c 128,-1,27
 252 323 252 323 244 362 c 1,28,-1
 240 362 l 1,29,30
 234 323 234 323 230 285.5 c 128,-1,31
 226 248 226 248 220 210 c 2,32,-1
 182 0 l 1,33,-1
 24 0 l 1,0,-1
EndSplineSet
Validated: 1
EndChar

StartChar: uni028E
Encoding: 654 654 503
Width: 542
GlyphClass: 2
Flags: W
AnchorPoint: "Anchor-4" 272 -22 basechar 0
AnchorPoint: "Anchor-0" 276 522 basechar 0
LayerCount: 2
Fore
SplineSet
12 0 m 1,0,-1
 188 512 l 2,1,2
 207 563 207 563 228 600 c 128,-1,3
 249 637 249 637 276 661 c 128,-1,4
 303 685 303 685 337 696.5 c 128,-1,5
 371 708 371 708 418 708 c 0,6,7
 444 708 444 708 460.5 705.5 c 128,-1,8
 477 703 477 703 494 698 c 1,9,-1
 464 568 l 1,10,11
 457 570 457 570 448.5 572 c 128,-1,12
 440 574 440 574 432 574 c 0,13,14
 397 574 397 574 379.5 560.5 c 128,-1,15
 362 547 362 547 354 524 c 2,16,-1
 340 482 l 1,17,-1
 530 0 l 1,18,-1
 358 0 l 1,19,-1
 298 192 l 2,20,21
 287 227 287 227 279 261.5 c 128,-1,22
 271 296 271 296 262 334 c 1,23,-1
 258 334 l 1,24,25
 250 298 250 298 242.5 263 c 128,-1,26
 235 228 235 228 226 192 c 2,27,-1
 176 0 l 1,28,-1
 12 0 l 1,0,-1
EndSplineSet
Validated: 1
EndChar

StartChar: uni028F
Encoding: 655 655 504
Width: 486
GlyphClass: 2
Flags: W
AnchorPoint: "Anchor-4" 242 -22 basechar 0
AnchorPoint: "Anchor-0" 240 522 basechar 0
LayerCount: 2
Fore
SplineSet
158 0 m 1,0,-1
 158 144 l 1,1,-1
 -10 500 l 1,2,-1
 170 500 l 1,3,-1
 204 404 l 2,4,5
 213 373 213 373 222.5 344.5 c 128,-1,6
 232 316 232 316 242 284 c 1,7,-1
 246 284 l 1,8,9
 256 316 256 316 265.5 344.5 c 128,-1,10
 275 373 275 373 286 404 c 2,11,-1
 318 500 l 1,12,-1
 496 500 l 1,13,-1
 330 144 l 1,14,-1
 330 0 l 1,15,-1
 158 0 l 1,0,-1
EndSplineSet
Validated: 1
EndChar

StartChar: uni0290
Encoding: 656 656 505
Width: 474
GlyphClass: 2
Flags: W
AnchorPoint: "Anchor-0" 252 522 basechar 0
LayerCount: 2
Fore
SplineSet
452 -188 m 0,0,1
 400 -188 400 -188 365 -171.5 c 128,-1,2
 330 -155 330 -155 308.5 -128.5 c 128,-1,3
 287 -102 287 -102 277.5 -69 c 128,-1,4
 268 -36 268 -36 268 -4 c 2,5,-1
 268 0 l 1,6,-1
 40 0 l 1,7,-1
 40 92 l 1,8,-1
 230 366 l 1,9,-1
 62 366 l 1,10,-1
 62 500 l 1,11,-1
 444 500 l 1,12,-1
 444 408 l 1,13,-1
 254 134 l 1,14,-1
 440 134 l 1,15,-1
 440 10 l 2,16,17
 440 -25 440 -25 449 -39.5 c 128,-1,18
 458 -54 458 -54 480 -54 c 0,19,20
 491 -54 491 -54 506 -48 c 1,21,-1
 536 -174 l 1,22,23
 521 -180 521 -180 502 -184 c 128,-1,24
 483 -188 483 -188 452 -188 c 0,0,1
EndSplineSet
Validated: 1
EndChar

StartChar: uni0291
Encoding: 657 657 506
Width: 524
GlyphClass: 2
Flags: W
AnchorPoint: "Anchor-0" 252 522 basechar 0
LayerCount: 2
Fore
SplineSet
306 -82 m 1,0,-1
 227 -66 l 1,1,2
 234 -32 234 -32 242 0 c 1,3,-1
 40 0 l 1,4,-1
 40 92 l 1,5,-1
 230 366 l 1,6,-1
 62 366 l 1,7,-1
 62 500 l 1,8,-1
 432 500 l 1,9,-1
 432 408 l 1,10,-1
 242 134 l 1,11,12
 253 132 253 132 263.5 131.5 c 128,-1,13
 274 131 274 131 285 130 c 1,14,15
 313 194 313 194 348 232 c 128,-1,16
 383 270 383 270 428 270 c 0,17,18
 479 270 479 270 508.5 241.5 c 128,-1,19
 538 213 538 213 538 154 c 0,20,21
 538 122 538 122 527.5 94 c 128,-1,22
 517 66 517 66 494.5 45 c 128,-1,23
 472 24 472 24 437 12 c 128,-1,24
 402 0 402 0 353 0 c 2,25,-1
 324 0 l 1,26,27
 319 -19 319 -19 315 -39 c 128,-1,28
 311 -59 311 -59 306 -82 c 1,0,-1
399 124 m 2,29,30
 425 124 425 124 437.5 134.5 c 128,-1,31
 450 145 450 145 450 159 c 0,32,33
 450 182 450 182 424 182 c 0,34,35
 396 182 396 182 367 124 c 1,36,-1
 399 124 l 2,29,30
EndSplineSet
Validated: 1
EndChar

StartChar: uni0292
Encoding: 658 658 507
Width: 474
GlyphClass: 2
Flags: W
AnchorPoint: "Anchor-0" 210 527 basechar 0
LayerCount: 2
Fore
SplineSet
216 -188 m 0,0,1
 144 -188 144 -188 93 -164.5 c 128,-1,2
 42 -141 42 -141 6 -106 c 1,3,-1
 82 0 l 1,4,5
 106 -21 106 -21 134 -35.5 c 128,-1,6
 162 -50 162 -50 194 -50 c 0,7,8
 233 -50 233 -50 256.5 -27 c 128,-1,9
 280 -4 280 -4 280 40 c 0,10,11
 280 78 280 78 257 98 c 128,-1,12
 234 118 234 118 198 118 c 0,13,14
 178 118 178 118 168.5 116 c 128,-1,15
 159 114 159 114 142 108 c 1,16,-1
 88 188 l 1,17,-1
 224 366 l 1,18,-1
 36 366 l 1,19,-1
 36 500 l 1,20,-1
 428 500 l 1,21,-1
 428 408 l 1,22,-1
 294 235 l 1,23,24
 371 222 371 222 411.5 170.5 c 128,-1,25
 452 119 452 119 452 44 c 0,26,27
 452 -12 452 -12 433.5 -55 c 128,-1,28
 415 -98 415 -98 382.5 -127.5 c 128,-1,29
 350 -157 350 -157 307 -172.5 c 128,-1,30
 264 -188 264 -188 216 -188 c 0,0,1
EndSplineSet
Validated: 1
EndChar

StartChar: uni0294
Encoding: 660 660 508
Width: 460
Flags: W
LayerCount: 2
Fore
SplineSet
122 0 m 1,0,-1
 122 314 l 1,1,2
 164 342 164 342 193 365 c 128,-1,3
 222 388 222 388 239.5 408.5 c 128,-1,4
 257 429 257 429 264.5 448.5 c 128,-1,5
 272 468 272 468 272 490 c 0,6,7
 272 530 272 530 250 550 c 128,-1,8
 228 570 228 570 192 570 c 0,9,10
 159 570 159 570 129.5 553 c 128,-1,11
 100 536 100 536 76 510 c 1,12,-1
 -8 618 l 1,13,14
 30 657 30 657 83.5 682.5 c 128,-1,15
 137 708 137 708 212 708 c 0,16,17
 258 708 258 708 300.5 695 c 128,-1,18
 343 682 343 682 374.5 656 c 128,-1,19
 406 630 406 630 425 590.5 c 128,-1,20
 444 551 444 551 444 498 c 0,21,22
 444 457 444 457 433 424 c 128,-1,23
 422 391 422 391 402 362 c 128,-1,24
 382 333 382 333 354.5 306 c 128,-1,25
 327 279 327 279 294 252 c 1,26,-1
 294 0 l 1,27,-1
 122 0 l 1,0,-1
EndSplineSet
Validated: 1
EndChar

StartChar: uni0295
Encoding: 661 661 509
Width: 530
Flags: W
LayerCount: 2
Fore
SplineSet
196 0 m 1,0,-1
 196 252 l 1,1,2
 163 279 163 279 135.5 306 c 128,-1,3
 108 333 108 333 88 362 c 128,-1,4
 68 391 68 391 57 424 c 128,-1,5
 46 457 46 457 46 498 c 0,6,7
 46 551 46 551 65.5 590.5 c 128,-1,8
 85 630 85 630 118.5 656 c 128,-1,9
 152 682 152 682 196 695 c 128,-1,10
 240 708 240 708 288 708 c 0,11,12
 359 708 359 708 410.5 682.5 c 128,-1,13
 462 657 462 657 498 618 c 1,14,-1
 414 510 l 1,15,16
 392 536 392 536 365 553 c 128,-1,17
 338 570 338 570 308 570 c 0,18,19
 267 570 267 570 242.5 550 c 128,-1,20
 218 530 218 530 218 490 c 0,21,22
 218 468 218 468 225.5 448.5 c 128,-1,23
 233 429 233 429 250.5 408.5 c 128,-1,24
 268 388 268 388 297 365 c 128,-1,25
 326 342 326 342 368 314 c 1,26,-1
 368 0 l 1,27,-1
 196 0 l 1,0,-1
EndSplineSet
Validated: 1
EndChar

StartChar: uni02A1
Encoding: 673 673 510
Width: 490
Flags: W
LayerCount: 2
Fore
SplineSet
138 0 m 1,0,-1
 138 180 l 1,1,-1
 12 180 l 1,2,-1
 12 308 l 1,3,-1
 88 314 l 1,4,-1
 158 314 l 1,5,6
 232 371 232 371 260 412.5 c 128,-1,7
 288 454 288 454 288 490 c 0,8,9
 288 530 288 530 266 550 c 128,-1,10
 244 570 244 570 208 570 c 0,11,12
 175 570 175 570 145.5 553 c 128,-1,13
 116 536 116 536 92 510 c 1,14,-1
 8 618 l 1,15,16
 46 657 46 657 99.5 682.5 c 128,-1,17
 153 708 153 708 228 708 c 0,18,19
 274 708 274 708 316.5 695 c 128,-1,20
 359 682 359 682 390.5 656 c 128,-1,21
 422 630 422 630 441 590.5 c 128,-1,22
 460 551 460 551 460 498 c 0,23,24
 460 446 460 446 428 402 c 128,-1,25
 396 358 396 358 350 314 c 1,26,-1
 474 314 l 1,27,-1
 474 180 l 1,28,-1
 310 180 l 1,29,-1
 310 0 l 1,30,-1
 138 0 l 1,0,-1
EndSplineSet
Validated: 1
EndChar

StartChar: uni02A2
Encoding: 674 674 511
Width: 490
Flags: W
LayerCount: 2
Fore
SplineSet
180 0 m 1,0,-1
 180 180 l 1,1,-1
 16 180 l 1,2,-1
 16 314 l 1,3,-1
 140 314 l 1,4,5
 117 336 117 336 97 357.5 c 128,-1,6
 77 379 77 379 62 401.5 c 128,-1,7
 47 424 47 424 38.5 448 c 128,-1,8
 30 472 30 472 30 498 c 0,9,10
 30 551 30 551 49.5 590.5 c 128,-1,11
 69 630 69 630 102.5 656 c 128,-1,12
 136 682 136 682 180 695 c 128,-1,13
 224 708 224 708 272 708 c 0,14,15
 343 708 343 708 394.5 682.5 c 128,-1,16
 446 657 446 657 482 618 c 1,17,-1
 398 510 l 1,18,19
 376 536 376 536 349 553 c 128,-1,20
 322 570 322 570 292 570 c 0,21,22
 251 570 251 570 226.5 550 c 128,-1,23
 202 530 202 530 202 490 c 0,24,25
 202 454 202 454 230 412.5 c 128,-1,26
 258 371 258 371 332 314 c 1,27,-1
 402 314 l 1,28,-1
 478 308 l 1,29,-1
 478 180 l 1,30,-1
 352 180 l 1,31,-1
 352 0 l 1,32,-1
 180 0 l 1,0,-1
EndSplineSet
Validated: 1
EndChar

StartChar: uni01C2
Encoding: 450 450 512
Width: 346
Flags: W
LayerCount: 2
Fore
SplineSet
6 330 m 1,0,-1
 6 404 l 1,1,-1
 82 410 l 1,2,-1
 120 410 l 1,3,-1
 120 750 l 1,4,-1
 230 750 l 1,5,-1
 230 410 l 1,6,-1
 338 410 l 1,7,-1
 338 330 l 1,8,-1
 230 330 l 1,9,-1
 230 204 l 1,10,-1
 338 204 l 1,11,-1
 338 124 l 1,12,-1
 230 124 l 1,13,-1
 230 -250 l 1,14,-1
 120 -250 l 1,15,-1
 120 124 l 1,16,-1
 6 124 l 1,17,-1
 6 198 l 1,18,-1
 82 204 l 1,19,-1
 120 204 l 1,20,-1
 120 330 l 1,21,-1
 6 330 l 1,0,-1
EndSplineSet
Validated: 1
EndChar

StartChar: uni0298
Encoding: 664 664 513
Width: 568
Flags: W
LayerCount: 2
Fore
SplineSet
284 -12 m 0,0,1
 231 -12 231 -12 187 11 c 128,-1,2
 143 34 143 34 111.5 79 c 128,-1,3
 80 124 80 124 62 192 c 128,-1,4
 44 260 44 260 44 350 c 0,5,6
 44 442 44 442 62 509.5 c 128,-1,7
 80 577 80 577 111.5 621 c 128,-1,8
 143 665 143 665 187 686.5 c 128,-1,9
 231 708 231 708 284 708 c 0,10,11
 336 708 336 708 380.5 686.5 c 128,-1,12
 425 665 425 665 456.5 621 c 128,-1,13
 488 577 488 577 506 509.5 c 128,-1,14
 524 442 524 442 524 350 c 0,15,16
 524 260 524 260 506 192 c 128,-1,17
 488 124 488 124 456.5 79 c 128,-1,18
 425 34 425 34 380.5 11 c 128,-1,19
 336 -12 336 -12 284 -12 c 0,0,1
284 126 m 256,20,21
 299 126 299 126 314 136 c 128,-1,22
 329 146 329 146 341 171.5 c 128,-1,23
 353 197 353 197 360.5 240.5 c 128,-1,24
 368 284 368 284 368 350 c 0,25,26
 368 415 368 415 360.5 457.5 c 128,-1,27
 353 500 353 500 341 525 c 128,-1,28
 329 550 329 550 314 560 c 128,-1,29
 299 570 299 570 284 570 c 256,30,31
 269 570 269 570 254 560 c 128,-1,32
 239 550 239 550 227 525 c 128,-1,33
 215 500 215 500 207.5 457.5 c 128,-1,34
 200 415 200 415 200 350 c 0,35,36
 200 284 200 284 207.5 240.5 c 128,-1,37
 215 197 215 197 227 171.5 c 128,-1,38
 239 146 239 146 254 136 c 128,-1,39
 269 126 269 126 284 126 c 256,20,21
284 282 m 256,40,41
 255 282 255 282 234.5 302 c 128,-1,42
 214 322 214 322 214 351 c 256,43,44
 214 380 214 380 234.5 400 c 128,-1,45
 255 420 255 420 284 420 c 256,46,47
 313 420 313 420 333.5 400 c 128,-1,48
 354 380 354 380 354 351 c 256,49,50
 354 322 354 322 333.5 302 c 128,-1,51
 313 282 313 282 284 282 c 256,40,41
EndSplineSet
Validated: 1
EndChar

StartChar: f_f
Encoding: 64256 64256 514
Width: 688
GlyphClass: 3
Flags: W
LayerCount: 2
Fore
SplineSet
416 0 m 1,0,-1
 416 366 l 1,1,-1
 260 366 l 1,2,-1
 260 0 l 1,3,-1
 88 0 l 1,4,-1
 88 366 l 1,5,-1
 22 366 l 1,6,-1
 22 494 l 1,7,-1
 88 499 l 1,8,-1
 88 506 l 2,9,10
 88 544 88 544 98.5 579 c 128,-1,11
 109 614 109 614 133 640.5 c 128,-1,12
 157 667 157 667 195.5 682.5 c 128,-1,13
 234 698 234 698 290 698 c 0,14,15
 325 698 325 698 353 692.5 c 128,-1,16
 381 687 381 687 398 680 c 1,17,-1
 368 554 l 1,18,19
 357 559 357 559 345 561.5 c 128,-1,20
 333 564 333 564 312 564 c 256,21,22
 291 564 291 564 275.5 551 c 128,-1,23
 260 538 260 538 260 508 c 2,24,-1
 260 500 l 1,25,-1
 416 500 l 1,26,-1
 416 506 l 2,27,28
 416 546 416 546 426 582.5 c 128,-1,29
 436 619 436 619 459.5 647 c 128,-1,30
 483 675 483 675 520.5 691.5 c 128,-1,31
 558 708 558 708 614 708 c 0,32,33
 649 708 649 708 676 702 c 128,-1,34
 703 696 703 696 720 690 c 1,35,-1
 690 564 l 1,36,37
 678 569 678 569 665 571.5 c 128,-1,38
 652 574 652 574 640 574 c 0,39,40
 616 574 616 574 602 560.5 c 128,-1,41
 588 547 588 547 588 512 c 2,42,-1
 588 500 l 1,43,-1
 672 500 l 1,44,-1
 672 366 l 1,45,-1
 588 366 l 1,46,-1
 588 0 l 1,47,-1
 416 0 l 1,0,-1
EndSplineSet
Validated: 1
Ligature2: "'liga' Standard Ligatures lookup 47 subtable" f f
EndChar

StartChar: f_t
Encoding: 1114116 -1 517
Width: 724
GlyphClass: 3
Flags: W
LayerCount: 2
Fore
SplineSet
88 0 m 1,0,-1
 88 366 l 1,1,-1
 22 366 l 1,2,-1
 22 494 l 1,3,-1
 88 499 l 1,4,-1
 88 506 l 2,5,6
 88 546 88 546 98 582.5 c 128,-1,7
 108 619 108 619 131.5 647 c 128,-1,8
 155 675 155 675 192.5 691.5 c 128,-1,9
 230 708 230 708 286 708 c 0,10,11
 321 708 321 708 348 702 c 128,-1,12
 375 696 375 696 392 690 c 1,13,-1
 362 564 l 1,14,15
 350 569 350 569 337 571.5 c 128,-1,16
 324 574 324 574 312 574 c 0,17,18
 288 574 288 574 274 560.5 c 128,-1,19
 260 547 260 547 260 512 c 2,20,-1
 260 500 l 1,21,-1
 414 500 l 1,22,-1
 434 630 l 1,23,-1
 576 630 l 1,24,-1
 576 500 l 1,25,-1
 690 500 l 1,26,-1
 690 366 l 1,27,-1
 576 366 l 1,28,-1
 576 195 l 2,29,30
 576 153 576 153 594 137.5 c 128,-1,31
 612 122 612 122 636 122 c 0,32,33
 648 122 648 122 659.5 124.5 c 128,-1,34
 671 127 671 127 680 130 c 1,35,-1
 706 6 l 1,36,37
 686 0 686 0 658 -6 c 128,-1,38
 630 -12 630 -12 588 -12 c 0,39,40
 539 -12 539 -12 504.5 2.5 c 128,-1,41
 470 17 470 17 447.5 44 c 128,-1,42
 425 71 425 71 414.5 108.5 c 128,-1,43
 404 146 404 146 404 192 c 2,44,-1
 404 366 l 1,45,-1
 260 366 l 1,46,-1
 260 0 l 1,47,-1
 88 0 l 1,0,-1
EndSplineSet
Validated: 1
Ligature2: "'liga' Standard Ligatures lookup 47 subtable" f t
EndChar

StartChar: f_f_t
Encoding: 1114117 -1 518
Width: 1052
GlyphClass: 3
Flags: W
LayerCount: 2
Fore
SplineSet
88 0 m 1,0,-1
 88 366 l 1,1,-1
 22 366 l 1,2,-1
 22 494 l 1,3,-1
 88 499 l 1,4,-1
 88 506 l 2,5,6
 88 544 88 544 98.5 579 c 128,-1,7
 109 614 109 614 133 640.5 c 128,-1,8
 157 667 157 667 195.5 682.5 c 128,-1,9
 234 698 234 698 290 698 c 0,10,11
 325 698 325 698 353 692.5 c 128,-1,12
 381 687 381 687 398 680 c 1,13,-1
 368 554 l 1,14,15
 357 559 357 559 345 561.5 c 128,-1,16
 333 564 333 564 312 564 c 256,17,18
 291 564 291 564 275.5 551 c 128,-1,19
 260 538 260 538 260 508 c 2,20,-1
 260 500 l 1,21,-1
 416 500 l 1,22,-1
 416 506 l 2,23,24
 416 546 416 546 426 582.5 c 128,-1,25
 436 619 436 619 459.5 647 c 128,-1,26
 483 675 483 675 520.5 691.5 c 128,-1,27
 558 708 558 708 614 708 c 0,28,29
 649 708 649 708 676 702 c 128,-1,30
 703 696 703 696 720 690 c 1,31,-1
 690 564 l 1,32,33
 678 569 678 569 665 571.5 c 128,-1,34
 652 574 652 574 640 574 c 0,35,36
 616 574 616 574 602 560.5 c 128,-1,37
 588 547 588 547 588 512 c 2,38,-1
 588 500 l 1,39,-1
 742 500 l 1,40,-1
 762 630 l 1,41,-1
 904 630 l 1,42,-1
 904 500 l 1,43,-1
 1018 500 l 1,44,-1
 1018 366 l 1,45,-1
 904 366 l 1,46,-1
 904 195 l 2,47,48
 904 153 904 153 922 137.5 c 128,-1,49
 940 122 940 122 964 122 c 0,50,51
 976 122 976 122 987.5 124.5 c 128,-1,52
 999 127 999 127 1008 130 c 1,53,-1
 1034 6 l 1,54,55
 1014 0 1014 0 986 -6 c 128,-1,56
 958 -12 958 -12 916 -12 c 0,57,58
 867 -12 867 -12 832.5 2.5 c 128,-1,59
 798 17 798 17 775.5 44 c 128,-1,60
 753 71 753 71 742.5 108.5 c 128,-1,61
 732 146 732 146 732 192 c 2,62,-1
 732 366 l 1,63,-1
 588 366 l 1,64,-1
 588 0 l 1,65,-1
 416 0 l 1,66,-1
 416 366 l 1,67,-1
 260 366 l 1,68,-1
 260 0 l 1,69,-1
 88 0 l 1,0,-1
EndSplineSet
Validated: 1
Ligature2: "'liga' Standard Ligatures lookup 47 subtable" f f t
EndChar

StartChar: I.a
Encoding: 1114118 -1 519
Width: 316
GlyphClass: 2
Flags: W
LayerCount: 2
Fore
SplineSet
72 0 m 1,0,-1
 72 650 l 1,1,-1
 244 650 l 1,2,-1
 244 0 l 1,3,-1
 72 0 l 1,0,-1
EndSplineSet
Validated: 1
EndChar

StartChar: Iogonek.a
Encoding: 1114129 -1 530
Width: 316
GlyphClass: 2
Flags: W
AnchorPoint: "Anchor-1" 160 672 basechar 0
LayerCount: 2
Fore
SplineSet
164 -228 m 0,0,1
 113 -228 113 -228 77.5 -202.5 c 128,-1,2
 42 -177 42 -177 42 -130 c 0,3,4
 42 -105 42 -105 50 -84.5 c 128,-1,5
 58 -64 58 -64 70 -47.5 c 128,-1,6
 82 -31 82 -31 95 -19 c 128,-1,7
 108 -7 108 -7 119 0 c 1,8,-1
 72 0 l 1,9,-1
 72 650 l 1,10,-1
 244 650 l 1,11,-1
 244 0 l 1,12,13
 200 -14 200 -14 183 -37 c 128,-1,14
 166 -60 166 -60 166 -84 c 0,15,16
 166 -102 166 -102 178.5 -110 c 128,-1,17
 191 -118 191 -118 205 -118 c 0,18,19
 215 -118 215 -118 224.5 -113.5 c 128,-1,20
 234 -109 234 -109 240 -104 c 1,21,-1
 278 -190 l 1,22,23
 257 -207 257 -207 225 -217.5 c 128,-1,24
 193 -228 193 -228 164 -228 c 0,0,1
EndSplineSet
Validated: 1
EndChar

StartChar: uni014A.a
Encoding: 1114131 -1 532
Width: 672
Flags: W
LayerCount: 2
Fore
SplineSet
410 -188 m 0,0,1
 375 -188 375 -188 354 -184 c 128,-1,2
 333 -180 333 -180 316 -174 c 1,3,-1
 346 -48 l 1,4,5
 357 -51 357 -51 365 -52.5 c 128,-1,6
 373 -54 373 -54 382 -54 c 0,7,8
 409 -54 409 -54 420.5 -37.5 c 128,-1,9
 432 -21 432 -21 432 0 c 1,10,-1
 424 0 l 1,11,-1
 280 291 l 1,12,-1
 218 436 l 1,13,-1
 214 436 l 1,14,15
 220 380 220 380 228 314 c 128,-1,16
 236 248 236 248 236 188 c 2,17,-1
 236 0 l 1,18,-1
 72 0 l 1,19,-1
 72 650 l 1,20,-1
 248 650 l 1,21,-1
 392 360 l 1,22,-1
 454 214 l 1,23,-1
 458 214 l 1,24,25
 455 240 455 240 451 271 c 128,-1,26
 447 302 447 302 444 334.5 c 128,-1,27
 441 367 441 367 438.5 399.5 c 128,-1,28
 436 432 436 432 436 462 c 2,29,-1
 436 650 l 1,30,-1
 600 650 l 1,31,-1
 600 26 l 2,32,33
 600 -16 600 -16 590.5 -54.5 c 128,-1,34
 581 -93 581 -93 558.5 -123 c 128,-1,35
 536 -153 536 -153 499.5 -170.5 c 128,-1,36
 463 -188 463 -188 410 -188 c 0,0,1
EndSplineSet
Validated: 1
EndChar

StartChar: aogonek.a
Encoding: 1114154 -1 555
Width: 580
GlyphClass: 2
Flags: W
AnchorPoint: "Anchor-0" 306 522 basechar 0
LayerCount: 2
Fore
SplineSet
432 -212 m 0,0,1
 385 -212 385 -212 352.5 -188.5 c 128,-1,2
 320 -165 320 -165 320 -118 c 0,3,4
 320 -96 320 -96 327 -77 c 128,-1,5
 334 -58 334 -58 344.5 -43.5 c 128,-1,6
 355 -29 355 -29 365.5 -19 c 128,-1,7
 376 -9 376 -9 384 -4 c 1,8,-1
 370 46 l 1,9,-1
 366 46 l 1,10,11
 340 20 340 20 306.5 4 c 128,-1,12
 273 -12 273 -12 240 -12 c 0,13,14
 193 -12 193 -12 155.5 6 c 128,-1,15
 118 24 118 24 91.5 58 c 128,-1,16
 65 92 65 92 50.5 140.5 c 128,-1,17
 36 189 36 189 36 250 c 256,18,19
 36 311 36 311 54 360 c 128,-1,20
 72 409 72 409 101.5 442.5 c 128,-1,21
 131 476 131 476 168.5 494 c 128,-1,22
 206 512 206 512 244 512 c 0,23,24
 280 512 280 512 310.5 497.5 c 128,-1,25
 341 483 341 483 370 450 c 1,26,-1
 374 450 l 1,27,-1
 388 500 l 1,28,-1
 522 500 l 1,29,-1
 522 0 l 1,30,31
 471 -12 471 -12 452.5 -34.5 c 128,-1,32
 434 -57 434 -57 434 -78 c 0,33,34
 434 -95 434 -95 446 -103.5 c 128,-1,35
 458 -112 458 -112 474 -112 c 0,36,37
 483 -112 483 -112 492.5 -108.5 c 128,-1,38
 502 -105 502 -105 508 -100 c 1,39,-1
 542 -176 l 1,40,41
 521 -193 521 -193 489.5 -202.5 c 128,-1,42
 458 -212 458 -212 432 -212 c 0,0,1
286 128 m 0,43,44
 306 128 306 128 321 135.5 c 128,-1,45
 336 143 336 143 350 164 c 1,46,-1
 350 348 l 1,47,48
 335 362 335 362 317 367 c 128,-1,49
 299 372 299 372 282 372 c 0,50,51
 255 372 255 372 233.5 345 c 128,-1,52
 212 318 212 318 212 252 c 0,53,54
 212 184 212 184 231.5 156 c 128,-1,55
 251 128 251 128 286 128 c 0,43,44
EndSplineSet
Validated: 1
EndChar

StartChar: l.a
Encoding: 1114164 -1 565
Width: 288
GlyphClass: 2
Flags: W
AnchorPoint: "Anchor-4" 143 -22 basechar 0
AnchorPoint: "Anchor-0" 143 730 basechar 0
LayerCount: 2
Fore
SplineSet
58 0 m 1,0,-1
 58 696 l 1,1,-1
 230 696 l 1,2,-1
 230 0 l 1,3,-1
 58 0 l 1,0,-1
EndSplineSet
Validated: 1
EndChar

StartChar: lslash.a
Encoding: 1114172 -1 573
Width: 316
Flags: W
LayerCount: 2
Fore
SplineSet
30 232 m 1,0,-1
 -28 338 l 1,1,-1
 70 392 l 1,2,-1
 70 696 l 1,3,-1
 242 696 l 1,4,-1
 242 474 l 1,5,-1
 288 500 l 1,6,-1
 346 394 l 1,7,-1
 242 338 l 1,8,-1
 242 0 l 1,9,-1
 70 0 l 1,10,-1
 70 255 l 1,11,-1
 30 232 l 1,0,-1
EndSplineSet
Validated: 1
EndChar

StartChar: Gamma
Encoding: 915 915 577
Width: 530
Flags: W
LayerCount: 2
Fore
SplineSet
72 0 m 1,0,-1
 72 650 l 1,1,-1
 496 650 l 1,2,-1
 496 506 l 1,3,-1
 244 506 l 1,4,-1
 244 0 l 1,5,-1
 72 0 l 1,0,-1
EndSplineSet
Validated: 1
Substitution2: "'c2sc' Capitals to Small Capitals lookup 17 subtable" Gamma.sc
Substitution2: "'aalt' Access All Alternates lookup 0 subtable" Gamma.sc
EndChar

StartChar: uni0394
Encoding: 916 916 578
Width: 660
Flags: W
LayerCount: 2
Fore
SplineSet
36 0 m 1,0,-1
 36 104 l 1,1,-1
 226 650 l 1,2,-1
 434 650 l 1,3,-1
 624 104 l 1,4,-1
 624 0 l 1,5,-1
 36 0 l 1,0,-1
220 144 m 1,6,-1
 436 144 l 1,7,-1
 380 334 l 1,8,-1
 328 522 l 1,9,-1
 324 522 l 1,10,-1
 274 334 l 1,11,-1
 220 144 l 1,6,-1
EndSplineSet
Validated: 1
Substitution2: "'c2sc' Capitals to Small Capitals lookup 17 subtable" uni0394.sc
Substitution2: "'aalt' Access All Alternates lookup 0 subtable" uni0394.sc
EndChar

StartChar: Theta
Encoding: 920 920 582
Width: 692
Flags: W
LayerCount: 2
Fore
SplineSet
254 258 m 1,0,-1
 254 408 l 1,1,-1
 438 408 l 1,2,-1
 438 258 l 1,3,-1
 254 258 l 1,0,-1
346 -12 m 0,4,5
 278 -12 278 -12 222.5 11 c 128,-1,6
 167 34 167 34 127.5 77.5 c 128,-1,7
 88 121 88 121 66 184.5 c 128,-1,8
 44 248 44 248 44 328 c 256,9,10
 44 408 44 408 66 470.5 c 128,-1,11
 88 533 88 533 127.5 575.5 c 128,-1,12
 167 618 167 618 222.5 640 c 128,-1,13
 278 662 278 662 346 662 c 0,14,15
 413 662 413 662 469 640 c 128,-1,16
 525 618 525 618 564.5 575 c 128,-1,17
 604 532 604 532 626 470 c 128,-1,18
 648 408 648 408 648 328 c 256,19,20
 648 248 648 248 626 184.5 c 128,-1,21
 604 121 604 121 564.5 77.5 c 128,-1,22
 525 34 525 34 469 11 c 128,-1,23
 413 -12 413 -12 346 -12 c 0,4,5
346 136 m 256,24,25
 405 136 405 136 438.5 187.5 c 128,-1,26
 472 239 472 239 472 328 c 256,27,28
 472 417 472 417 438.5 465.5 c 128,-1,29
 405 514 405 514 346 514 c 256,30,31
 287 514 287 514 253.5 465.5 c 128,-1,32
 220 417 220 417 220 328 c 256,33,34
 220 239 220 239 253.5 187.5 c 128,-1,35
 287 136 287 136 346 136 c 256,24,25
EndSplineSet
Validated: 1
Substitution2: "'c2sc' Capitals to Small Capitals lookup 17 subtable" Theta.sc
Substitution2: "'aalt' Access All Alternates lookup 0 subtable" Theta.sc
EndChar

